SplineFontDB: 3.0
FontName: Gemunu-Sinhala-1
FullName: Gemunu-Sinhala
FamilyName: Gemunu-Sinhala
OS2FamilyName: "AbhayaLibre"
OS2StyleName: "regular"
Weight: Extra
Copyright: Copyright (c) 1997-2015 Pushpananda Ekanayake (http://isiwara.lk), Copyright (c) 2015 mooniak (http://mooniak.com)\n
UComments: "2015-2-15: Created with FontForge (http://fontforge.org) The  Free Font Editor"
Version: 1.0
ItalicAngle: 0
UnderlinePosition: -102
UnderlineWidth: 51
Ascent: 819
Descent: 205
InvalidEm: 0
UFOAscent: 819
UFODescent: -205
LayerCount: 2
Layer: 0 0 "Back" 1
Layer: 1 0 "Fore" 0
FSType: 0
OS2Version: 0
OS2_WeightWidthSlopeOnly: 0
OS2_UseTypoMetrics: 0
CreationTime: 1453838774
ModificationTime: 1453839417
PfmFamily: 16
TTFWeight: 400
TTFWidth: 5
LineGap: 94
VLineGap: 0
OS2TypoAscent: 819
OS2TypoAOffset: 0
OS2TypoDescent: -205
OS2TypoDOffset: 0
OS2TypoLinegap: 94
OS2WinAscent: 918
OS2WinAOffset: 0
OS2WinDescent: 205
OS2WinDOffset: 0
HheadAscent: 918
HheadAOffset: 0
HheadDescent: -205
HheadDOffset: 0
OS2CapHeight: 0
OS2XHeight: 0
OS2Vendor: 'PfEd'
OS2UnicodeRanges: 00000002.00000000.00000000.00000000
DEI: 91125
LangName: 1033 "Copyright (c) 1997-2015 Pushpananda Ekanayake (http://isiwara.lk), Copyright (c) 2015 mooniak (http://mooniak.com)+AAoA" "" "" "" "" "Version 1.0.1" "" "" "" "" "" "" "" "This Font Software is licensed under the SIL Open Font License, Version 1.1. This license is available with a FAQ at: http://scripts.sil.org/OFL" "" "" "" "Regular"
PickledDataWithLists: "(dp1
S'public.glyphOrder'
p2
(lp3
S'A'
aS'Aacute'
p4
aS'Acircumflex'
p5
aS'Adieresis'
p6
aS'Agrave'
p7
aS'Aring'
p8
aS'Atilde'
p9
aS'AE'
p10
aS'B'
aS'C'
aS'Ccedilla'
p11
aS'D'
aS'Eth'
p12
aS'E'
aS'Eacute'
p13
aS'Ecircumflex'
p14
aS'Edieresis'
p15
aS'Egrave'
p16
aS'F'
aS'G'
aS'H'
aS'I'
aS'Iacute'
p17
aS'Icircumflex'
p18
aS'Idieresis'
p19
aS'Igrave'
p20
aS'J'
aS'K'
aS'L'
aS'Lslash'
p21
aS'M'
aS'N'
aS'Ntilde'
p22
aS'O'
aS'Oacute'
p23
aS'Ocircumflex'
p24
aS'Odieresis'
p25
aS'Ograve'
p26
aS'Oslash'
p27

StartChar: .notdef
Encoding: 0 -1 0
GlifName: _notdef
Width: 631
VWidth: 0
Flags: W
LayerCount: 2
Back
Fore
SplineSet
50 -92.6602 m 257
 50 744.34 l 257
 581 744.34 l 257
 581 -92.6602 l 257
 50 -92.6602 l 257
260.653 154.374 m 256
 260.653 176.734 277.787 194.836 299.593 194.836 c 256
 321.4 194.836 339.053 176.734 339.053 154.374 c 256
 339.053 132.013 321.4 114.443 299.593 114.443 c 256
 277.787 114.443 260.653 132.013 260.653 154.374 c 256
157.38 629.34 m 257
 157.38 17.4502 l 257
 473.62 17.4502 l 257
 473.62 629.34 l 257
 157.38 629.34 l 257
212.887 451.452 m 257
 228.464 471.685 254.424 500.434 310.496 500.434 c 256
 376.954 500.434 418.49 456.244 420.567 387.564 c 256
 420.567 283.047 333.86 273.1 333.86 273.1 c 257
 333.86 214.534 l 257
 266.884 214.534 l 257
 266.884 331.662 l 257
 327.631 332.728 354.109 339.116 354.109 388.629 c 256
 354.109 416.314 330.745 432.286 306.344 432.286 c 256
 284.018 432.286 266.365 421.105 255.462 406.199 c 257
 212.887 451.452 l 257
EndSplineSet
EndChar

StartChar: anusvara
Encoding: 1 3458 1
GlifName: anusvara
Width: 417
VWidth: 0
GlyphClass: 2
Flags: W
LayerCount: 2
Back
Fore
SplineSet
76 18 m 258
 42.0589 18 22 32.9844 22 69 c 258
 22 389 l 258
 22 420.569 39.854 446 84 446 c 258
 331 446 l 258
 374.248 446 386.004 422.026 386.004 388 c 258
 386.004 73 l 258
 386.004 38.0472 372.677 18 330 18 c 258
 76 18 l 258
146 324.398 m 258
 146 144 l 258
 146 131.333 151.264 125 168.597 125 c 258
 241.201 125 l 258
 255.867 125 262 131.115 262 145.395 c 258
 262 324.399 l 258
 262 338.243 258 344 240 344 c 258
 167 344 l 258
 153 344 146 336.398 146 324.398 c 258
EndSplineSet
EndChar

StartChar: dottedcircle
Encoding: 2 9676 2
GlifName: dottedcircle
Width: 558
VWidth: 0
GlyphClass: 2
Flags: W
LayerCount: 2
Back
Fore
SplineSet
96.4319 96.5092 m 257
 97.3724 115.593 110.126 128 129.272 128 c 256
 149.186 128 162.46 115.462 161.406 95.4908 c 256
 160.467 76.4077 147.713 64 128.567 64 c 256
 108.653 64 95.3811 76.5698 96.4319 96.5092 c 257
54.1717 163.959 m 257
 55.0098 182.906 66.882 196 85.9072 196 c 256
 105.689 196 118.091 182.796 117.151 163.041 c 256
 116.311 144.092 104.438 131 85.4131 131 c 256
 65.6299 131 53.2317 144.236 54.1717 163.959 c 257
161.517 53.5093 m 257
 162.449 72.4553 174.846 85 193.855 85 c 256
 213.614 85 226.535 72.284 225.491 52.4907 c 256
 224.558 33.544 212.161 21 193.151 21 c 256
 173.392 21 160.473 33.7489 161.517 53.5093 c 257
237.896 37.5093 m 257
 238.819 56.2816 250.885 69 269.735 69 c 256
 289.308 69 301.903 56.0334 300.87 36.4907 c 257
 299.947 17.7195 287.883 5 269.031 5 c 256
 249.459 5 236.864 17.9658 237.896 37.5093 c 257
39.5037 240.273 m 256
 40.027 259.447 52.6575 272 71.8525 272 c 256
 91.7662 272 105.042 259.462 103.987 239.49 c 256
 103.053 220.544 90.6566 208 71.6475 208 c 256
 51.9549 208 38.9277 220.579 39.5037 240.273 c 256
57.362 317.18 m 257
 58.6054 336.066 70.6209 349 89.5869 349 c 256
 109.449 349 121.715 335.574 120.316 315.82 c 257
 119.113 297.474 108.099 284 89.5928 284 c 256
 69.2775 284 55.93 296.876 57.362 317.18 c 257
316.517 53.5093 m 257
 317.449 72.4553 329.846 85 348.855 85 c 256
 368.614 85 381.535 72.284 380.491 52.4907 c 256
 379.558 33.544 367.161 21 348.151 21 c 256
 328.392 21 315.473 33.7489 316.517 53.5093 c 257
102.218 384.294 m 257
 103.657 402.978 116.358 415 135.145 415 c 256
 154.757 415 167.777 402.381 166.155 382.706 c 256
 164.718 364.022 152.015 352 133.228 352 c 256
 113.615 352 100.601 364.669 102.218 384.294 c 257
383.946 96.7361 m 257
 385.277 115.436 397.476 128 416.272 128 c 256
 435.92 128 448.393 114.89 446.892 95.2639 c 256
 445.562 76.5647 433.363 64 414.567 64 c 256
 394.919 64 382.45 77.158 383.946 96.7361 c 257
168.401 427.959 m 257
 169.248 447.052 181.486 460 200.639 460 c 256
 220.573 460 233.329 446.977 232.38 427.041 c 256
 231.535 407.949 219.298 395 200.145 395 c 256
 180.211 395 167.455 408.053 168.401 427.959 c 257
427.684 164.181 m 257
 428.947 183.371 441.641 196 460.907 196 c 256
 481.068 196 494.062 182.989 492.638 162.819 c 256
 491.373 143.628 478.68 131 459.413 131 c 256
 439.253 131 426.261 144.055 427.684 164.181 c 257
246.233 442.959 m 257
 247.071 461.906 259.209 475 278.347 475 c 256
 298.13 475 310.151 461.765 309.212 442.041 c 257
 308.372 423.092 296.5 410 277.475 410 c 256
 257.692 410 245.292 423.236 246.233 442.959 c 257
444.504 240.273 m 256
 445.027 259.447 457.658 272 476.853 272 c 256
 496.766 272 510.042 259.462 508.987 239.49 c 256
 508.053 220.544 495.657 208 476.647 208 c 256
 456.955 208 443.928 220.579 444.504 240.273 c 256
323.401 427.959 m 257
 324.248 447.052 336.486 460 355.639 460 c 256
 375.573 460 388.329 446.977 387.38 427.041 c 256
 386.535 407.949 374.298 395 355.145 395 c 256
 335.211 395 322.455 408.053 323.401 427.959 c 257
430.849 316.943 m 256
 431.705 336.236 444.27 349 463.587 349 c 256
 483.678 349 496.785 336.155 495.828 316.041 c 256
 494.975 296.779 482.409 284 463.093 284 c 256
 443.001 284 429.896 296.887 430.849 316.943 c 256
387.702 384.063 m 257
 388.734 403 401.646 415 420.645 415 c 256
 440.377 415 453.826 402.773 452.671 382.937 c 256
 451.64 364 438.726 352 419.728 352 c 256
 399.995 352 386.55 364.262 387.702 384.063 c 257
EndSplineSet
EndChar

StartChar: si_A
Encoding: 3 3461 3
GlifName: si_A_
Width: 542
VWidth: 0
GlyphClass: 2
Flags: W
LayerCount: 2
Back
Fore
SplineSet
270.001 429 m 258
 270.001 472.316 299.807 497.001 332.001 497.001 c 258
 516 497.001 l 257
 516 419.001 l 257
 480 419.001 l 258
 468.647 418.773 467 412.334 467 409.001 c 256
 467 394.737 513 375.79 513 322 c 258
 513 224 l 258
 513 190.38 496.152 171.001 463 171.001 c 258
 394 171.001 l 257
 394 107.001 l 257
 511 107.001 l 257
 511 0.000976562 l 257
 394 0.000976562 l 257
 394 -139.999 l 257
 270 -139.999 l 257
 270 0.000976562 l 257
 69.999 0 l 258
 33 -0 21.999 14.0518 21.999 51 c 258
 21.999 299 l 258
 21.999 336.333 40.332 355 76.999 355 c 258
 150 355 l 257
 150 377 l 258
 150 392.226 144.532 394 129 394 c 258
 21.999 394 l 257
 21.999 497 l 257
 169 497 l 258
 212.332 497 241.001 474.112 241.001 431 c 258
 241 253 l 257
 168.999 253 l 258
 148.816 253 145.999 248.131 145.999 228 c 258
 145.999 128 l 258
 145.999 114 152 107 162.999 107 c 258
 270 107.001 l 257
 270.001 429 l 258
393 265.001 m 257
 410 265.001 l 258
 425.645 265.001 428 269.544 428 286.001 c 258
 428 329 l 258
 428 358.309 407.004 375.504 407.004 392.007 c 256
 407.004 394.673 407.455 397.952 409.004 400.007 c 257
 400.236 398.332 393 392.917 393 376.204 c 258
 393 265.001 l 257
EndSplineSet
EndChar

StartChar: si_B.halant
Encoding: 9 -1 9
GlifName: si_B_.halant
Width: 515
VWidth: 0
GlyphClass: 2
Flags: W
LayerCount: 2
Back
Fore
SplineSet
485 400 m 257
 361 400 l 257
 361 441 l 258
 361 459.349 354.061 464 335 464 c 258
 14 464 l 257
 14 550 l 257
 94 550 l 257
 64.6667 557.333 50 571.667 50 593 c 258
 50 632 l 258
 50 659.333 66.3333 673 99 673 c 258
 483 673 l 257
 483 589 l 257
 206 589 l 258
 188 589 179 584.333 179 575 c 256
 179 565.226 186.926 558 197 558 c 258
 416 558 l 258
 471.441 558 485 533.686 485 477 c 258
 485 400 l 257
198 54 m 258
 197 298.591 l 258
 196.952 310.062 194.912 316.591 183.399 316.591 c 258
 161.999 316.591 l 258
 147.999 316.591 146 310.258 146 297.591 c 258
 146 129 l 258
 146 114.333 152 107 164 107 c 258
 172 107 l 257
 172 0 l 257
 72 0 l 258
 34.9277 0 22 16.2734 22 54 c 258
 22 368.192 l 258
 22 404.859 40.667 423.192 78 423.192 c 258
 256 423.192 l 258
 288.128 423.192 311 408.979 311 369.591 c 258
 311 126.195 l 258
 311 110.599 313.397 107 327.397 107 c 258
 345.402 107 l 258
 357.402 107 361 110.33 361 124.996 c 258
 361 415 l 257
 485 415 l 257
 485 54 l 258
 485 16.2705 472.075 0 435 0 c 258
 250 0 l 258
 213.253 0 198.147 16.7305 198 54 c 258
EndSplineSet
EndChar

StartChar: si_BI
Encoding: 10 -1 10
GlifName: si_B_I_
Width: 515
VWidth: 0
GlyphClass: 2
Flags: W
LayerCount: 2
Back
Fore
SplineSet
485 400 m 257
 361 400 l 257
 361 441 l 258
 361 459.349 354.061 464 335 464 c 258
 69 464 l 258
 37.6667 464 22 480 22 512 c 258
 22 612 l 258
 22 656.156 37.8431 672 82 672 c 258
 483.5 672 l 257
 483.5 589 l 257
 165 589 l 258
 152.333 589 146 585.667 146 577 c 258
 146 568 l 258
 146 561.333 151.667 558 163 558 c 258
 416 558 l 258
 472.814 558 485 535.085 485 477 c 258
 485 400 l 257
198 54 m 258
 197 298.591 l 258
 196.952 310.062 194.912 316.591 183.399 316.591 c 258
 161.999 316.591 l 258
 147.999 316.591 146 310.258 146 297.591 c 258
 146 129 l 258
 146 114.333 152 107 164 107 c 258
 172 107 l 257
 172 0 l 257
 72 0 l 258
 34.9277 0 22 16.2734 22 54 c 258
 22 368.192 l 258
 22 404.859 40.667 423.192 78 423.192 c 258
 256 423.192 l 258
 288.128 423.192 311 408.979 311 369.591 c 258
 311 126.195 l 258
 311 110.599 313.397 107 327.397 107 c 258
 345.402 107 l 258
 357.402 107 361 110.33 361 124.996 c 258
 361 415 l 257
 485 415 l 257
 485 54 l 258
 485 16.2705 472.075 0 435 0 c 258
 250 0 l 258
 213.253 0 198.147 16.7305 198 54 c 258
EndSplineSet
EndChar

StartChar: si_BIi
Encoding: 11 -1 11
GlifName: si_B_I_i
Width: 515
VWidth: 0
GlyphClass: 2
Flags: W
LayerCount: 2
Back
Fore
SplineSet
361 405 m 257
 361 434 l 258
 361 452.191 343.683 464 325 464 c 258
 65 464 l 258
 35.1571 464 22 472.771 22 505 c 258
 22 618 l 258
 22 654.86 35.4108 672 72 672 c 258
 435 672 l 258
 471.588 672 485 654.858 485 618 c 258
 485 552 l 258
 485 529.838 468.868 512.774 450 509 c 257
 471.911 502.153 485 474.275 485 445 c 258
 485 405 l 257
 361 405 l 257
232 539 m 257
 224.066 543.656 221 547.826 221 564 c 258
 221 575 l 258
 221 581.855 221.142 584.018 224 587 c 257
 153 587 l 258
 141.667 587 136 582.333 136 573 c 258
 136 554 l 258
 136 544 141.333 539 152 539 c 258
 232 539 l 257
326 594 m 258
 317.619 594 313 588.388 313 581 c 258
 313 558 l 258
 313 547.623 322.201 543 331 543 c 258
 368 543 l 258
 379.682 543 388 549.518 388 564 c 258
 388 582 l 258
 388 591.396 381.685 594 377 594 c 258
 326 594 l 258
198 54 m 258
 197 298.591 l 258
 196.952 310.062 194.912 316.591 183.399 316.591 c 258
 161.999 316.591 l 258
 147.999 316.591 146 310.258 146 297.591 c 258
 146 129 l 258
 146 114.333 152 107 164 107 c 258
 172 107 l 257
 172 0 l 257
 72 0 l 258
 34.9277 0 22 16.2734 22 54 c 258
 22 368.192 l 258
 22 404.859 40.667 423.192 78 423.192 c 258
 256 423.192 l 258
 288.128 423.192 311 408.979 311 369.591 c 258
 311 126.195 l 258
 311 110.599 313.397 107 327.397 107 c 258
 345.402 107 l 258
 357.402 107 361 110.33 361 124.996 c 258
 361 415 l 257
 485 415 l 257
 485 54 l 258
 485 16.2705 472.075 0 435 0 c 258
 250 0 l 258
 213.253 0 198.147 16.7305 198 54 c 258
EndSplineSet
EndChar

StartChar: si_BRI
Encoding: 12 -1 12
GlifName: si_B_R_I_
Width: 619
VWidth: 0
GlyphClass: 2
Flags: W
LayerCount: 2
Back
Fore
SplineSet
23.4004 -15.8076 m 257
 23.4004 -114.824 l 258
 23.4004 -144.818 40.3164 -159.021 67.4004 -159.021 c 258
 443 -159.021 l 258
 468.333 -159.021 484 -147.587 484 -116.021 c 258
 484 -15.8076 l 257
 359.995 -15.8076 l 257
 359.995 -35.0098 l 258
 359.995 -47.8877 359.279 -53.0107 346.399 -53.0107 c 258
 160.4 -53.0107 l 258
 149.067 -53.0107 147.405 -47.0107 147.405 -35.0107 c 258
 147.405 -15.8076 l 257
 23.4004 -15.8076 l 257
EndSplineSet
Refer: 10 -1 N 1 0 0 1 0 0 2
EndChar

StartChar: si_BRIi
Encoding: 13 -1 13
GlifName: si_B_R_I_i
Width: 619
VWidth: 0
GlyphClass: 2
Flags: W
LayerCount: 2
Back
Fore
SplineSet
23.4004 -15.8076 m 257
 23.4004 -114.824 l 258
 23.4004 -144.818 40.3164 -159.021 67.4004 -159.021 c 258
 443 -159.021 l 258
 468.333 -159.021 484 -147.587 484 -116.021 c 258
 484 -15.8076 l 257
 359.995 -15.8076 l 257
 359.995 -35.0098 l 258
 359.995 -47.8877 359.279 -53.0107 346.399 -53.0107 c 258
 160.4 -53.0107 l 258
 149.067 -53.0107 147.405 -47.0107 147.405 -35.0107 c 258
 147.405 -15.8076 l 257
 23.4004 -15.8076 l 257
EndSplineSet
Refer: 11 -1 N 1 0 0 1 0 0 2
EndChar

StartChar: si_BRa
Encoding: 14 -1 14
GlifName: si_B_R_a
Width: 515
VWidth: 0
GlyphClass: 2
Flags: W
LayerCount: 2
Back
Fore
SplineSet
23.4004 -15.8076 m 257
 23.4004 -114.824 l 258
 23.4004 -144.818 40.3164 -159.021 67.4004 -159.021 c 258
 443 -159.021 l 258
 468.333 -159.021 484 -147.587 484 -116.021 c 258
 484 -15.8076 l 257
 359.995 -15.8076 l 257
 359.995 -35.0098 l 258
 359.995 -47.8877 359.279 -53.0107 346.399 -53.0107 c 258
 160.4 -53.0107 l 258
 149.067 -53.0107 147.405 -47.0107 147.405 -35.0107 c 258
 147.405 -15.8076 l 257
 23.4004 -15.8076 l 257
EndSplineSet
Refer: 17 3510 N 1 0 0 1 0 0 2
EndChar

StartChar: si_Ba
Encoding: 17 3510 17
GlifName: si_B_a
Width: 515
VWidth: 0
GlyphClass: 2
Flags: W
LayerCount: 2
Back
Fore
SplineSet
416 625 m 258
 471 625 485 600.687 485 544 c 258
 485 400 l 257
 361 400 l 257
 361 494.602 l 258
 361 512.95 354.062 517.602 335 517.602 c 258
 22 517.602 l 257
 22 625 l 257
 416 625 l 258
198 54 m 258
 197 345.414 l 258
 196.952 356.885 194.912 363.414 183.399 363.414 c 258
 161.999 363.414 l 258
 147.999 363.414 146 357.081 146 344.414 c 258
 146 129 l 258
 146 114.333 152 107 164 107 c 258
 172 107 l 257
 172 0 l 257
 72 0 l 258
 34.9277 0 22 16.273 22 54 c 258
 22 415.016 l 258
 22 451.683 40.667 470.016 78 470.016 c 258
 256 470.016 l 258
 288.128 470.016 311 455.803 311 416.414 c 258
 311 126.195 l 258
 311 110.599 313.397 107 327.397 107 c 258
 345.402 107 l 258
 357.402 107 361 110.33 361 124.996 c 258
 361 415 l 257
 485 415 l 257
 485 54 l 258
 485 16.2703 472.075 0 435 0 c 258
 250 0 l 258
 213.253 0 198.135 16.7309 198 54 c 258
EndSplineSet
EndChar

StartChar: si_Ba.reph
Encoding: 18 -1 18
GlifName: si_B_a.reph
Width: 515
VWidth: 0
GlyphClass: 2
Flags: W
LayerCount: 2
Back
Fore
SplineSet
198 54 m 258
 197 277.414 l 258
 196.952 288.885 194.912 295.414 183.399 295.414 c 258
 161.999 295.414 l 258
 147.999 295.414 146 289.081 146 276.414 c 258
 146 129 l 258
 146 114.333 152 107 164 107 c 258
 172 107 l 257
 172 0 l 257
 72 0 l 258
 34.9277 0 22 16.2734 22 54 c 258
 22 347.016 l 258
 22 383.683 40.667 402.016 78 402.016 c 258
 256 402.016 l 258
 288.128 402.016 311 387.803 311 348.414 c 258
 311 126.195 l 258
 311 110.599 313.397 107 327.397 107 c 258
 345.402 107 l 258
 357.402 107 361 110.33 361 124.996 c 258
 361 347 l 257
 485 347 l 257
 485 54 l 258
 485 16.2705 472.075 0 435 0 c 258
 250 0 l 258
 213.253 0 198.167 16.7306 198 54 c 258
213.593 628 m 257
 297.802 628 l 257
 297.802 590.188 l 258
 297.802 563.011 286.311 553.188 266.802 553.188 c 258
 94.8018 553.188 l 258
 68.332 553.188 54.8018 567.084 54.8018 599.188 c 258
 54.8018 669 l 258
 54.8018 697.736 72.0508 717 108.802 717 c 258
 393.802 717 l 258
 427.247 717 444.802 700.164 444.802 661 c 258
 444.802 575.198 l 257
 331.802 575.198 l 257
 331.802 630 l 258
 331.802 645.321 326.469 653 315.802 653 c 258
 182.802 653 l 258
 172.135 653 166.802 648.667 166.802 640 c 258
 166.802 612 l 258
 166.802 603.333 170.521 599 178.802 599 c 258
 200.802 599 l 258
 212.066 599 213.593 604.333 213.593 615 c 258
 213.593 628 l 257
416 557 m 258
 471 557 485 532.687 485 476 c 258
 485 332 l 257
 361 332 l 257
 361 426.602 l 258
 361 444.95 354.062 449.602 335 449.602 c 258
 22 449.602 l 257
 22 557 l 257
 416 557 l 258
EndSplineSet
EndChar

StartChar: si_Bha
Encoding: 27 3511 27
GlifName: si_B_ha
Width: 592
VWidth: 0
GlyphClass: 2
Flags: W
LayerCount: 2
Back
Fore
SplineSet
22 51 m 258
 22 216.999 l 258
 22 238 29.667 250.864 45 258.197 c 257
 61.2197 280.5 41 354.998 78 354.999 c 258
 106 355 l 257
 106 377 l 258
 106 392 100.533 394 85 394 c 258
 22 394 l 257
 22 497 l 257
 125 497 l 258
 168.332 497 197.001 474.112 197.001 431 c 258
 197 253 l 257
 169 253 l 258
 148.818 253 146 248.131 146 228 c 258
 146 128 l 258
 146 114 151.667 107 163 107 c 258
 229 107 l 258
 248.709 107 249 111.54 249 132 c 258
 249 196 l 258
 249 209.333 244 216 234 216 c 258
 220 216 l 257
 258 446 l 258
 264 480 288 497 330 497 c 258
 495 497 l 258
 541.224 497 562 479.952 562 434 c 258
 562 64 l 258
 562 15.29 548.134 0 499 0 c 258
 402 0 l 257
 402 107 l 257
 416 107 l 258
 436.64 107 438 112.033 438 133 c 258
 438 372 l 258
 438 384 432 390 420 390 c 258
 384 390 l 258
 370.667 390 362.667 384.333 360 373 c 258
 345 288 l 257
 347.75 287.928 l 258
 362.583 287.538 370 276.896 370 256 c 258
 370 60 l 258
 370 12.6074 350.6 0 303 0 c 258
 70 0 l 258
 33.3613 0 22 14 22 51 c 258
-6 354.995 m 257
 88 354.995 l 257
 88 257.995 l 257
 -6 257.995 l 257
 -6 354.995 l 257
EndSplineSet
EndChar

StartChar: si_C.halant
Encoding: 29 -1 29
GlifName: si_C_.halant
Width: 539
VWidth: 0
GlyphClass: 2
Flags: W
LayerCount: 2
Back
Fore
SplineSet
-6 294.165 m 257
 162 294.165 l 257
 162 200.165 l 257
 -6.00195 200.165 l 257
 -6 294.165 l 257
509 400 m 257
 385 400 l 257
 385 441 l 258
 385 459.349 378.062 464 359 464 c 258
 38 464 l 257
 38 550 l 257
 118 550 l 257
 88.667 557.333 74 571.667 74 593 c 258
 74 632 l 258
 74 659.333 90.333 673 123 673 c 258
 507 673 l 257
 507 589 l 257
 230 589 l 258
 212 589 203 584.333 203 575 c 256
 203 565.227 210.926 558 221 558 c 258
 440 558 l 258
 495.441 558 509 533.687 509 477 c 258
 509 400 l 257
508.997 415 m 257
 508.997 54 l 258
 508.997 16.2705 496.072 0 458.997 0 c 258
 95.9971 0 l 258
 58.9248 0 45.9971 16.2734 45.9971 54 c 258
 45.9971 150.968 l 258
 45.9971 183.179 53.9268 196.333 62 204.968 c 258
 62 204.968 118.863 294.175 148 294.175 c 258
 167.997 294.175 l 257
 167.997 313.161 l 258
 167.997 322.494 162.664 327.161 151.997 327.161 c 258
 45.9961 327.161 l 257
 45.9961 430.161 l 257
 228.997 430.161 l 258
 270.702 430.161 291.996 408.571 291.996 372.161 c 258
 291.996 200.175 l 257
 205.398 200.175 l 258
 177.746 200.175 169.997 184.667 169.997 155.176 c 258
 169.997 129 l 258
 169.997 114.333 175.997 107 187.997 107 c 258
 366.997 107 l 258
 378.997 107 384.997 114.333 384.997 129 c 258
 384.997 415 l 257
 508.997 415 l 257
EndSplineSet
EndChar

StartChar: si_CI
Encoding: 30 -1 30
GlifName: si_C_I_
Width: 539
VWidth: 0
GlyphClass: 2
Flags: W
LayerCount: 2
Back
Fore
SplineSet
508.999 400 m 257
 384.999 400 l 257
 384.999 441 l 258
 384.999 459.349 378.061 464 358.999 464 c 258
 92.999 464 l 258
 61.666 464 45.999 480 45.999 512 c 258
 45.999 612 l 258
 45.999 656.156 61.8418 672 105.999 672 c 258
 507.499 672 l 257
 507.499 589 l 257
 188.999 589 l 258
 176.332 589 169.999 585.667 169.999 577 c 258
 169.999 568 l 258
 169.999 561.333 175.666 558 186.999 558 c 258
 439.999 558 l 258
 496.813 558 508.999 535.085 508.999 477 c 258
 508.999 400 l 257
-6 294.165 m 257
 162 294.165 l 257
 162 200.165 l 257
 -6.00195 200.165 l 257
 -6 294.165 l 257
508.997 415 m 257
 508.997 54 l 258
 508.997 16.2705 496.072 0 458.997 0 c 258
 95.9971 0 l 258
 58.9248 0 45.9971 16.2734 45.9971 54 c 258
 45.9971 150.968 l 258
 45.9971 183.179 53.9268 196.333 62 204.968 c 258
 62 204.968 118.863 294.175 148 294.175 c 258
 167.997 294.175 l 257
 167.997 313.161 l 258
 167.997 322.494 162.664 327.161 151.997 327.161 c 258
 45.9961 327.161 l 257
 45.9961 430.161 l 257
 228.997 430.161 l 258
 270.702 430.161 291.996 408.571 291.996 372.161 c 258
 291.996 200.175 l 257
 205.398 200.175 l 258
 177.746 200.175 169.997 184.667 169.997 155.176 c 258
 169.997 129 l 258
 169.997 114.333 175.997 107 187.997 107 c 258
 366.997 107 l 258
 378.997 107 384.997 114.333 384.997 129 c 258
 384.997 415 l 257
 508.997 415 l 257
EndSplineSet
EndChar

StartChar: si_CIi
Encoding: 31 -1 31
GlifName: si_C_I_i
Width: 539
VWidth: 0
GlyphClass: 2
Flags: W
LayerCount: 2
Back
Fore
SplineSet
384.999 405 m 257
 384.999 434 l 258
 384.999 452.19 367.682 464 348.999 464 c 258
 88.999 464 l 258
 59.1562 464 45.999 472.771 45.999 505 c 258
 45.999 618 l 258
 45.999 654.859 59.4102 672 95.999 672 c 258
 458.999 672 l 258
 495.587 672 508.999 654.858 508.999 618 c 258
 508.999 552 l 258
 508.999 529.838 492.867 512.773 473.999 509 c 257
 495.91 502.152 508.999 474.274 508.999 445 c 258
 508.999 405 l 257
 384.999 405 l 257
255.999 539 m 257
 248.065 543.655 244.999 547.826 244.999 564 c 258
 244.999 575 l 258
 244.999 581.855 245.141 584.019 247.999 587 c 257
 176.999 587 l 258
 165.666 587 159.999 582.333 159.999 573 c 258
 159.999 554 l 258
 159.999 544 165.332 539 175.999 539 c 258
 255.999 539 l 257
349.999 594 m 258
 341.618 594 336.999 588.388 336.999 581 c 258
 336.999 558 l 258
 336.999 547.623 346.2 543 354.999 543 c 258
 391.999 543 l 258
 403.682 543 411.999 549.519 411.999 564 c 258
 411.999 582 l 258
 411.999 591.396 405.684 594 400.999 594 c 258
 349.999 594 l 258
-6 294.165 m 257
 162 294.165 l 257
 162 200.165 l 257
 -6.00195 200.165 l 257
 -6 294.165 l 257
508.997 415 m 257
 508.997 54 l 258
 508.997 16.2705 496.072 0 458.997 0 c 258
 95.9971 0 l 258
 58.9248 0 45.9971 16.2734 45.9971 54 c 258
 45.9971 150.968 l 258
 45.9971 183.179 53.9268 196.333 62 204.968 c 258
 62 204.968 118.863 294.175 148 294.175 c 258
 167.997 294.175 l 257
 167.997 313.161 l 258
 167.997 322.494 162.664 327.161 151.997 327.161 c 258
 45.9961 327.161 l 257
 45.9961 430.161 l 257
 228.997 430.161 l 258
 270.702 430.161 291.996 408.571 291.996 372.161 c 258
 291.996 200.175 l 257
 205.398 200.175 l 258
 177.746 200.175 169.997 184.667 169.997 155.176 c 258
 169.997 129 l 258
 169.997 114.333 175.997 107 187.997 107 c 258
 366.997 107 l 258
 378.997 107 384.997 114.333 384.997 129 c 258
 384.997 415 l 257
 508.997 415 l 257
EndSplineSet
EndChar

StartChar: si_CRI
Encoding: 32 -1 32
GlifName: si_C_R_I_
Width: 538
VWidth: 0
GlyphClass: 2
Flags: W
LayerCount: 2
Back
Fore
SplineSet
47.7939 -15.8076 m 257
 47.7939 -114.824 l 258
 47.7939 -144.818 64.71 -159.021 91.7939 -159.021 c 258
 467.604 -159.021 l 258
 492.937 -159.021 508.604 -147.587 508.604 -116.021 c 258
 508.604 -15.8076 l 257
 384.599 -15.8076 l 257
 384.599 -35.0098 l 258
 384.599 -47.8877 383.883 -53.0107 371.003 -53.0107 c 258
 184.794 -53.0107 l 258
 173.461 -53.0107 171.799 -47.0107 171.799 -35.0107 c 258
 171.799 -15.8076 l 257
 47.7939 -15.8076 l 257
EndSplineSet
Refer: 30 -1 N 1 0 0 1 0 0 2
EndChar

StartChar: si_CRIi
Encoding: 33 -1 33
GlifName: si_C_R_I_i
Width: 597
VWidth: 0
GlyphClass: 2
Flags: W
LayerCount: 2
Back
Fore
SplineSet
47.7939 -15.8076 m 257
 47.7939 -114.824 l 258
 47.7939 -144.818 64.71 -159.021 91.7939 -159.021 c 258
 467.604 -159.021 l 258
 492.937 -159.021 508.604 -147.587 508.604 -116.021 c 258
 508.604 -15.8076 l 257
 384.599 -15.8076 l 257
 384.599 -35.0098 l 258
 384.599 -47.8877 383.883 -53.0107 371.003 -53.0107 c 258
 184.794 -53.0107 l 258
 173.461 -53.0107 171.799 -47.0107 171.799 -35.0107 c 258
 171.799 -15.8076 l 257
 47.7939 -15.8076 l 257
EndSplineSet
Refer: 31 -1 N 1 0 0 1 0 0 2
EndChar

StartChar: si_CRa
Encoding: 34 -1 34
GlifName: si_C_R_a
Width: 539
VWidth: 0
GlyphClass: 2
Flags: W
LayerCount: 2
Back
Fore
SplineSet
47.7939 -15.8076 m 257
 47.7939 -114.824 l 258
 47.7939 -144.818 64.71 -159.021 91.7939 -159.021 c 258
 467.604 -159.021 l 258
 492.937 -159.021 508.604 -147.587 508.604 -116.021 c 258
 508.604 -15.8076 l 257
 384.599 -15.8076 l 257
 384.599 -35.0098 l 258
 384.599 -47.8877 383.883 -53.0107 371.003 -53.0107 c 258
 184.794 -53.0107 l 258
 173.461 -53.0107 171.799 -47.0107 171.799 -35.0107 c 258
 171.799 -15.8076 l 257
 47.7939 -15.8076 l 257
EndSplineSet
Refer: 37 3488 N 1 0 0 1 0 0 2
EndChar

StartChar: si_CU
Encoding: 35 -1 35
GlifName: si_C_U_
Width: 539
VWidth: 0
GlyphClass: 2
Flags: W
LayerCount: 2
Back
Fore
SplineSet
509.088 -159 m 257
 48.1943 -159 l 257
 48.1943 -53 l 257
 386.088 -53 l 257
 386.088 28.6035 l 257
 458.088 28.6035 l 258
 486.755 28.6035 503.755 41.6035 509.088 67.6035 c 257
 509.088 -159 l 257
EndSplineSet
Refer: 37 3488 N 1 0 0 1 0 0 2
EndChar

StartChar: si_CUu
Encoding: 36 -1 36
GlifName: si_C_U_u
Width: 539
VWidth: 0
GlyphClass: 2
Flags: W
LayerCount: 2
Back
Fore
SplineSet
509.006 -158.999 m 257
 392.406 -158.999 l 257
 384.852 -151.036 376.939 -141.535 369.211 -136.201 c 256
 359.04 -129.182 347.52 -129.002 337.411 -129.002 c 257
 311.405 -129.002 l 257
 299.43 -129.002 289.834 -131.704 277.405 -136.803 c 257
 234.201 -153.804 l 257
 222.413 -158.021 210.408 -162.805 182.408 -162.805 c 258
 96.2021 -162.805 l 258
 63.7881 -162.805 48.2012 -150.575 48.2012 -122.002 c 258
 48.2012 -29.0029 l 257
 165.201 -29.0029 l 257
 165.201 -51.002 l 258
 165.201 -62.2861 170.069 -69.0029 182.006 -69.0029 c 258
 188.202 -69.0029 l 258
 201.202 -69.0029 217.347 -65.4404 234.201 -58.8008 c 257
 267.401 -46.001 l 257
 280.367 -40.6738 293.554 -39.002 309.201 -39.002 c 257
 339.42 -39.002 l 257
 349.381 -39.002 366.443 -39.1924 374.616 -45.002 c 256
 380.423 -49.1299 381.257 -50.2412 386.004 -55.002 c 257
 386.004 14 l 257
 464.006 14 l 258
 490.006 14 505.006 28 509.006 56 c 257
 509.006 -158.999 l 257
EndSplineSet
Refer: 37 3488 N 1 0 0 1 0 0 2
EndChar

StartChar: si_Ca
Encoding: 37 3488 37
GlifName: si_C_a
Width: 539
VWidth: 0
GlyphClass: 2
Flags: W
LayerCount: 2
Back
Fore
SplineSet
508.997 415 m 257
 508.997 54 l 258
 508.997 16.2705 496.072 0 458.997 0 c 258
 95.9971 0 l 258
 58.9248 0 45.9971 16.2734 45.9971 54 c 258
 45.9971 175.792 l 258
 45.9971 208.003 53.9268 221.157 62 229.792 c 258
 62 229.792 118.863 318.999 148 318.999 c 258
 167.997 318.999 l 257
 167.997 353 l 258
 167.997 362.333 162.664 367 151.997 367 c 258
 45.9961 367 l 257
 45.9961 470 l 257
 228.997 470 l 258
 270.702 470 291.996 448.41 291.996 412 c 258
 291.996 224.999 l 257
 205.398 224.999 l 258
 177.746 224.999 169.997 209.491 169.997 180 c 258
 169.997 129 l 258
 169.997 114.333 175.997 107 187.997 107 c 258
 366.997 107 l 258
 378.997 107 384.997 114.333 384.997 129 c 258
 384.997 415 l 257
 508.997 415 l 257
439.997 625 m 258
 494.997 625 508.997 600.687 508.997 544 c 258
 508.997 400 l 257
 384.997 400 l 257
 384.997 494.602 l 258
 384.997 512.95 378.059 517.602 358.997 517.602 c 258
 45.9971 517.602 l 257
 45.9971 625 l 257
 439.997 625 l 258
-6 318.989 m 257
 162 318.989 l 257
 162 224.989 l 257
 -6.00195 224.989 l 257
 -6 318.989 l 257
EndSplineSet
EndChar

StartChar: si_Ca.reph
Encoding: 38 -1 38
GlifName: si_C_a.reph
Width: 539
VWidth: 0
GlyphClass: 2
Flags: W
LayerCount: 2
Back
Fore
SplineSet
508.997 392.378 m 257
 508.997 54 l 258
 508.997 16.2705 496.072 0 458.997 0 c 258
 95.9971 0 l 258
 58.9248 0 45.9971 16.2734 45.9971 54 c 258
 45.9971 153.17 l 258
 45.9971 185.381 53.9268 198.535 62 207.17 c 258
 62 207.17 118.863 296.377 148 296.377 c 258
 167.997 296.377 l 257
 167.997 318 l 258
 167.997 327.333 162.664 332 151.997 332 c 258
 45.9961 332 l 257
 45.9961 435 l 257
 228.997 435 l 258
 270.702 435 291.996 413.41 291.996 377 c 258
 291.996 202.377 l 257
 205.398 202.377 l 258
 177.746 202.377 169.997 186.868 169.997 157.378 c 258
 169.997 129 l 258
 169.997 114.333 175.997 107 187.997 107 c 258
 366.997 107 l 258
 378.997 107 384.997 114.333 384.997 129 c 258
 384.997 392.378 l 257
 508.997 392.378 l 257
238.791 628 m 257
 323 628 l 257
 323 590.188 l 258
 323 563.011 311.509 553.188 292 553.188 c 258
 120 553.188 l 258
 93.5303 553.188 80 567.084 80 599.188 c 258
 80 669 l 258
 80 697.736 97.249 717 134 717 c 258
 419 717 l 258
 452.445 717 470 700.164 470 661 c 258
 470 575.198 l 257
 357 575.198 l 257
 357 630 l 258
 357 645.321 351.667 653 341 653 c 258
 208 653 l 258
 197.333 653 192 648.667 192 640 c 258
 192 612 l 258
 192 603.333 195.72 599 204 599 c 258
 226 599 l 258
 237.265 599 238.791 604.333 238.791 615 c 258
 238.791 628 l 257
439.997 560.212 m 258
 494.997 560.212 508.997 535.898 508.997 479.212 c 258
 508.997 377.378 l 257
 384.997 377.378 l 257
 384.997 446.979 l 258
 384.997 465.328 378.059 469.979 358.997 469.979 c 258
 45.9971 469.979 l 257
 45.9971 560.212 l 257
 439.997 560.212 l 258
-6 296.367 m 257
 162 296.367 l 257
 162 202.367 l 257
 -6.00195 202.367 l 257
 -6 296.367 l 257
EndSplineSet
EndChar

StartChar: si_Ch.halant
Encoding: 39 -1 39
GlifName: si_C_h.halant
Width: 513
VWidth: 0
GlyphClass: 2
Flags: W
LayerCount: 2
Back
Fore
SplineSet
199.798 477 m 257
 199.798 656 l 257
 310 656 l 257
 310 433 l 257
 282.131 476.789 277.766 477 199.798 477 c 257
EndSplineSet
Refer: 44 3489 N 1 0 0 1 0 0 2
EndChar

StartChar: si_ChI
Encoding: 40 -1 40
GlifName: si_C_hI_
Width: 513
VWidth: 0
GlyphClass: 2
Flags: W
LayerCount: 2
Back
Fore
SplineSet
40 511.604 m 257
 163.408 511.604 l 257
 163.408 541 l 258
 163.408 553 169.074 559 180.408 559 c 258
 304 559 l 257
 371 642.99 l 257
 98.7979 642.989 l 258
 68.6699 642.989 40 624.453 40 590.99 c 258
 40 511.604 l 257
EndSplineSet
Refer: 44 3489 N 1 0 0 1 0 0 2
EndChar

StartChar: si_ChIi
Encoding: 41 -1 41
GlifName: si_C_hI_i
Width: 513
VWidth: 0
GlyphClass: 2
Flags: W
LayerCount: 2
Back
Fore
SplineSet
252.587 564 m 258
 252.587 546 l 258
 252.587 542 255.938 540 262.587 540 c 258
 290 540 l 258
 296 540 299 542.333 299 547 c 258
 299 564 l 258
 299 568.667 296 571 290 571 c 258
 261.587 571 l 258
 255.603 571 252.587 568.667 252.587 564 c 258
324 507 m 258
 218 507 l 258
 207 507 201 513 201 525 c 258
 201 559 l 257
 201 559 l 257
 172 559 l 258
 160.667 559 155 553 155 541 c 258
 155 507 l 257
 40 507 l 257
 40 600.792 l 258
 40 625.454 61.7109 644.792 86 644.792 c 258
 306 644.792 l 258
 331.432 644.792 350.113 631.85 350.188 599 c 258
 350.347 530 l 258
 350 517 337 507 324 507 c 258
EndSplineSet
Refer: 44 3489 N 1 0 0 1 0 0 2
EndChar

StartChar: si_Cha
Encoding: 44 3489 44
GlifName: si_C_ha
Width: 513
VWidth: 0
GlyphClass: 2
Flags: W
LayerCount: 2
Back
Fore
SplineSet
300 371 m 258
 300.2 322.188 l 258
 300.255 308.856 307.534 301.988 322.2 301.988 c 258
 344.2 301.988 l 258
 358.867 301.988 366.2 310.667 366.2 322 c 258
 366 372.199 l 258
 365.942 386.866 359.334 394.199 346 394.199 c 258
 320 394.199 l 258
 306.983 394.199 300 383.601 300 371 c 258
388 486 m 257
 250.999 486 l 257
 268.016 496.523 275.291 495 305 533 c 258
 391 643 l 257
 524 643 l 257
 439 524 l 258
 416.757 492.86 396.587 489.982 388 486 c 257
164 107 m 258
 343 107 l 258
 355 107 361 114.375 361 129 c 258
 361 183.811 l 258
 361 201.998 349.411 207.811 332 207.811 c 258
 255.599 207.811 l 258
 229.371 207.811 217 227.493 217 254.811 c 258
 216.999 419 l 258
 217 460 247.331 497 286 497 c 258
 430 497 l 258
 465.206 497 484.998 476.309 485 436 c 258
 485.004 332.2 l 258
 485 301 479.802 274.444 454 256.99 c 257
 479.011 241.293 485 219.553 485 181 c 258
 485 54 l 258
 485 16.28 472.072 0 435 0 c 258
 72 0 l 258
 34.9249 0 22 16.2703 22 54 c 258
 22 300 l 258
 22 337.333 40.6797 354.999 78 354.999 c 258
 170 355 l 257
 170 379 l 258
 170 388 164.667 394.001 154 394.001 c 258
 23 394 l 257
 23 497 l 257
 196 497 l 258
 234.656 497 259.807 479.785 259.807 438 c 258
 259.807 253 l 257
 167 253 l 258
 156.014 253 146 246.667 146 234 c 258
 146 129 l 258
 146 114.333 152 107 164 107 c 258
EndSplineSet
EndChar

StartChar: si_DAa
Encoding: 46 -1 46
GlifName: si_D_A_a
Width: 460
VWidth: 0
GlyphClass: 2
Flags: W
LayerCount: 2
Back
Fore
SplineSet
329 -36 m 258
 329 -24.709 322.999 -20 312.003 -20 c 258
 310 -20 l 257
 308 -20 l 257
 207 -20 l 257
 299 141 l 257
 428 141 l 257
 379 54 l 257
 421.003 54 l 258
 447.003 54 458 41 458 17 c 258
 458 -125.399 l 258
 458 -159.018 434.188 -171 406 -171 c 258
 160 -171 l 257
 160 -64 l 257
 308 -64 l 258
 320.969 -64 329 -59.1377 329 -46 c 258
 329 -36 l 258
226 10 m 257
 221.411 1.76955 213 1 204 0 c 258
 66 0 l 258
 32 0 22 17.9258 22 49.5996 c 258
 22 298 l 258
 22 338.656 43.1064 355 80 355 c 258
 301 355 l 257
 300.999 378 l 258
 300.998 391.309 296.338 394.001 287.005 394.001 c 258
 22 394.001 l 257
 22 497.001 l 257
 372 497 l 258
 405.564 497 425 480.913 425 444 c 258
 425 253.001 l 257
 168 253 l 258
 151.333 253 146 245.668 146 231.001 c 258
 146 133.001 l 258
 146 113.159 151.048 107 166.2 107 c 258
 265 107 l 258
 279.193 107 285.082 117.503 289 123 c 257
 226 10 l 257
EndSplineSet
EndChar

StartChar: si_DAa.halant
Encoding: 47 -1 47
GlifName: si_D_A_a.halant
Width: 614
VWidth: 0
GlyphClass: 2
Flags: W
LayerCount: 2
Back
Fore
SplineSet
226 10 m 257
 221.411 1.76953 213 1 204 0 c 258
 66 0 l 258
 32 0 22 17.9258 22 49.5996 c 258
 22 298 l 258
 22 338.656 43.1064 355 80 355 c 258
 301 355 l 257
 300.999 378 l 258
 300.998 391.309 296.338 394.001 287.005 394.001 c 258
 22 394.001 l 257
 22 497.001 l 257
 372 497 l 258
 405.564 497 425 480.913 425 444 c 258
 425 253.001 l 257
 168 253 l 258
 151.333 253 146 245.668 146 231.001 c 258
 146 133.001 l 258
 146 113.159 151.048 107 166.2 107 c 258
 265 107 l 258
 279.193 107 285.082 117.504 289 123 c 257
 226 10 l 257
453.393 -36 m 258
 453.393 -24.709 447.392 -20 436.396 -20 c 258
 342 -20 l 257
 342 -20 l 257
 207 -20 l 257
 299 141 l 257
 428 141 l 257
 379 54 l 257
 545.396 54 l 258
 571.396 54 582.393 41 582.393 17 c 258
 582.393 -125.399 l 258
 582.393 -159.018 558.58 -171 530.393 -171 c 258
 160 -171 l 257
 160 -64 l 257
 432.393 -64 l 258
 445.361 -64 453.393 -59.1377 453.393 -46 c 258
 453.393 -36 l 258
458.199 46.3965 m 257
 458.199 649 l 257
 582.401 649 l 257
 582.401 -20 l 257
 577.734 -12.667 562.319 16.6357 550.401 24.791 c 256
 537.945 33.3154 518.903 46.3965 493.401 46.3965 c 258
 458.199 46.3965 l 257
EndSplineSet
EndChar

StartChar: si_DAae
Encoding: 48 -1 48
GlifName: si_D_A_ae
Width: 530
VWidth: 0
GlyphClass: 2
Flags: W
LayerCount: 2
Back
Fore
SplineSet
386.391 143 m 257
 518.998 143 l 257
 495.404 98 l 257
 418 52.001 l 257
 471 52 l 257
 451.191 14 l 257
 451.191 14 418 -6 407 -27 c 258
 399 -42 l 258
 393.113 -53.0375 387 -64.2207 387 -69 c 256
 387 -72.1387 387.281 -77.998 396 -77.998 c 258
 484.999 -78 l 257
 485 -184 l 257
 283.199 -184 l 257
 274.215 -181.562 255.001 -164.02 255.001 -140 c 258
 255.001 -127 l 258
 255.001 -105.348 266.229 -86.0987 272 -75 c 258
 298 -25 l 258
 312 1 363.052 15 363.052 15 c 257
 320 15 l 257
 337.591 50 l 257
 417.206 96.999 l 257
 362.253 97 l 257
 386.391 143 l 257
233.391 143 m 257
 365.998 143 l 257
 252.796 -74 l 258
 238.68 -101.059 236.003 -107.863 236.003 -127 c 258
 236.003 -143 l 258
 236.003 -162.28 245.031 -175.1 257 -184 c 257
 126.796 -184 l 257
 117.812 -181.562 109.796 -164.337 109.796 -140 c 258
 109.796 -111 l 258
 109.796 -86.5557 122.524 -66.8428 128.796 -56 c 258
 233.391 143 l 257
165.789 10 m 257
 161.2 1.76953 152.789 1 143.789 0 c 258
 66 0 l 258
 32 0 22 17.9258 22 49.5996 c 258
 22 298 l 258
 22 338.656 43.1064 355 80 355 c 258
 301 355 l 257
 300.999 378 l 258
 300.998 391.309 296.338 394.001 287.005 394.001 c 258
 22 394.001 l 257
 22 497.001 l 257
 372 497 l 258
 405.564 497 425 480.913 425 444 c 258
 425 253.001 l 257
 168 253 l 258
 151.333 253 146 245.668 146 231.001 c 258
 146 133.001 l 258
 146 113.159 151.048 107 166.2 107 c 258
 198.583 107 l 258
 212.776 107 218.665 117.504 222.583 123 c 257
 165.789 10 l 257
EndSplineSet
EndChar

StartChar: si_DAe
Encoding: 49 -1 49
GlifName: si_D_A_e
Width: 530
VWidth: 0
GlyphClass: 2
Flags: W
LayerCount: 2
Back
Fore
SplineSet
386.391 143 m 257
 518.998 143 l 257
 422 -42 l 258
 416.126 -53.2025 410 -64.2207 410 -69 c 256
 410 -72.1387 410.281 -77.998 419 -77.998 c 258
 484.999 -78 l 257
 485 -184 l 257
 283.199 -184 l 257
 274.215 -181.562 255.001 -164.02 255.001 -140 c 258
 255.001 -127 l 258
 255.001 -105.348 266.185 -86.0823 272 -75 c 258
 386.391 143 l 257
233.391 143 m 257
 365.998 143 l 257
 252.796 -74 l 258
 238.68 -101.059 236.003 -107.863 236.003 -127 c 258
 236.003 -143 l 258
 236.003 -162.28 245.031 -175.1 257 -184 c 257
 126.796 -184 l 257
 117.812 -181.562 109.796 -164.337 109.796 -140 c 258
 109.796 -111 l 258
 109.796 -86.5557 122.524 -66.8428 128.796 -56 c 258
 233.391 143 l 257
165.789 10 m 257
 161.2 1.76953 152.789 1 143.789 0 c 258
 66 0 l 258
 32 0 22 17.9258 22 49.5996 c 258
 22 298 l 258
 22 338.656 43.1064 355 80 355 c 258
 301 355 l 257
 300.999 378 l 258
 300.998 391.309 296.338 394.001 287.005 394.001 c 258
 22 394.001 l 257
 22 497.001 l 257
 372 497 l 258
 405.564 497 425 480.913 425 444 c 258
 425 253.001 l 257
 168 253 l 258
 151.333 253 146 245.668 146 231.001 c 258
 146 133.001 l 258
 146 113.159 151.048 107 166.2 107 c 258
 198.583 107 l 258
 212.776 107 218.665 117.504 222.583 123 c 257
 165.789 10 l 257
EndSplineSet
EndChar

StartChar: si_DDdh.halant
Encoding: 50 -1 50
GlifName: si_D_D_dh.halant
Width: 673
VWidth: 0
GlyphClass: 2
Flags: W
LayerCount: 2
Back
Fore
SplineSet
642.997 400 m 257
 518.997 400 l 257
 518.997 441 l 258
 518.997 459.349 512.059 464 492.997 464 c 258
 195.4 464 l 257
 195.4 550 l 257
 256.401 550 l 257
 227.068 557.333 212.401 571.667 212.401 593 c 258
 212.401 632 l 258
 212.401 659.333 228.734 673 261.401 673 c 258
 640.997 673 l 257
 640.997 589 l 257
 368.401 589 l 258
 350.401 589 341.401 584.333 341.401 575 c 256
 341.401 565.227 349.327 558 359.401 558 c 258
 573.997 558 l 258
 629.438 558 642.997 533.687 642.997 477 c 258
 642.997 400 l 257
642.995 415 m 257
 642.995 49 l 258
 642.995 16.6826 629.394 0 595.997 0 c 258
 459.8 0 l 258
 433.8 0 417.466 12.333 410.8 37 c 257
 407.626 16.3779 387.069 0 363.8 0 c 258
 226.997 0 l 258
 195.606 0 179.997 15.0176 179.997 48 c 258
 179.997 361.008 l 258
 179.997 399.562 198.018 426.008 238.997 426.008 c 258
 360.995 426.008 l 257
 360.996 318.407 l 257
 313.997 318.407 l 258
 307.062 318.407 304.001 314.699 304.001 308.606 c 258
 304.001 126 l 258
 304.001 113.333 310.334 107 323.001 107 c 258
 339.8 107 l 258
 354.466 107 361.8 115.333 361.8 132 c 258
 361.8 244.796 l 257
 461.396 244.796 l 257
 461.396 134 l 258
 461.396 116 469.062 107 484.396 107 c 258
 501.994 107 l 258
 513.327 107 518.994 114 518.994 128 c 258
 518.994 414.998 l 257
 642.995 415 l 257
158.998 327.001 m 258
 146.598 327.001 140.001 321 140.001 303 c 258
 140.001 -0.000976562 l 257
 22 -0.000976562 l 257
 22 335 l 258
 22 388.544 56.2471 426 108.4 426 c 258
 255.002 425.999 l 257
 202.001 327 l 257
 158.998 327.001 l 258
EndSplineSet
EndChar

StartChar: si_DDhI
Encoding: 51 -1 51
GlifName: si_D_D_hI_
Width: 673
VWidth: 0
GlyphClass: 2
Flags: W
LayerCount: 2
Back
Fore
SplineSet
643.002 400 m 257
 519.002 400 l 257
 519.002 441 l 258
 519.002 449.667 517.169 455.667 513.502 459 c 256
 509.835 462.333 503.002 464 493.002 464 c 258
 227.002 464 l 258
 195.669 464 180.002 480 180.002 512 c 258
 180.002 612 l 258
 180.002 634 184.502 649.5 193.502 658.5 c 256
 202.502 667.5 218.002 672 240.002 672 c 258
 642.003 672 l 257
 642.002 589 l 257
 323.002 590 l 258
 310.335 590 304.002 585.667 304.002 577 c 258
 304.002 568 l 258
 304.002 561.333 309.669 558 321.002 558 c 258
 574.002 558 l 258
 601.335 558 619.669 552 629.002 540 c 256
 638.335 528 643.002 507 643.002 477 c 258
 643.002 400 l 257
642.995 415 m 257
 642.995 49 l 258
 642.995 16.6826 629.394 0 595.997 0 c 258
 459.8 0 l 258
 433.8 0 417.466 12.333 410.8 37 c 257
 407.626 16.3779 387.069 0 363.8 0 c 258
 226.997 0 l 258
 195.606 0 179.997 15.0176 179.997 48 c 258
 179.997 361.008 l 258
 179.997 399.562 198.018 426.008 238.997 426.008 c 258
 360.995 426.008 l 257
 360.996 318.407 l 257
 313.997 318.407 l 258
 307.062 318.407 304.001 314.699 304.001 308.606 c 258
 304.001 126 l 258
 304.001 113.333 310.334 107 323.001 107 c 258
 339.8 107 l 258
 354.466 107 361.8 115.333 361.8 132 c 258
 361.8 244.796 l 257
 461.396 244.796 l 257
 461.396 134 l 258
 461.396 116 469.062 107 484.396 107 c 258
 501.994 107 l 258
 513.327 107 518.994 114 518.994 128 c 258
 518.994 414.998 l 257
 642.995 415 l 257
158.998 327.001 m 258
 146.598 327.001 140.001 321 140.001 303 c 258
 140.001 -0.000976562 l 257
 22 -0.000976562 l 257
 22 335 l 258
 22 388.544 56.2471 426 108.4 426 c 258
 255.002 425.999 l 257
 202.001 327 l 257
 158.998 327.001 l 258
EndSplineSet
EndChar

StartChar: si_DDhIi
Encoding: 52 -1 52
GlifName: si_D_D_hI_i
Width: 673
VWidth: 0
GlyphClass: 2
Flags: W
LayerCount: 2
Back
Fore
SplineSet
519 405 m 257
 519 434 l 258
 519 452.19 501.683 464 483 464 c 258
 223 464 l 258
 193.157 464 180 472.771 180 505 c 258
 180 618 l 258
 180 654.859 193.411 672 230 672 c 258
 593 672 l 258
 629.588 672 643 654.858 643 618 c 258
 643 552 l 258
 643 529.838 626.868 512.773 608 509 c 257
 629.911 502.152 643 474.274 643 445 c 258
 643 405 l 257
 519 405 l 257
390 539 m 257
 382.066 543.655 379 547.826 379 564 c 258
 379 575 l 258
 379 581.855 379.142 584.019 382 587 c 257
 311 587 l 258
 299.667 587 294 582.333 294 573 c 258
 294 554 l 258
 294 544 299.333 539 310 539 c 258
 390 539 l 257
484 594 m 258
 475.619 594 471 588.388 471 581 c 258
 471 558 l 258
 471 547.623 480.201 543 489 543 c 258
 526 543 l 258
 537.683 543 546 549.519 546 564 c 258
 546 582 l 258
 546 591.396 539.685 594 535 594 c 258
 484 594 l 258
642.995 415 m 257
 642.995 49 l 258
 642.995 16.6826 629.394 0 595.997 0 c 258
 459.8 0 l 258
 433.8 0 417.466 12.333 410.8 37 c 257
 407.626 16.3779 387.069 0 363.8 0 c 258
 226.997 0 l 258
 195.606 0 179.997 15.0176 179.997 48 c 258
 179.997 361.008 l 258
 179.997 399.562 198.018 426.008 238.997 426.008 c 258
 360.995 426.008 l 257
 360.996 318.407 l 257
 313.997 318.407 l 258
 307.062 318.407 304.001 314.699 304.001 308.606 c 258
 304.001 126 l 258
 304.001 113.333 310.334 107 323.001 107 c 258
 339.8 107 l 258
 354.466 107 361.8 115.333 361.8 132 c 258
 361.8 244.796 l 257
 461.396 244.796 l 257
 461.396 134 l 258
 461.396 116 469.062 107 484.396 107 c 258
 501.994 107 l 258
 513.327 107 518.994 114 518.994 128 c 258
 518.994 414.998 l 257
 642.995 415 l 257
158.998 327.001 m 258
 146.598 327.001 140.001 321 140.001 303 c 258
 140.001 -0.000976562 l 257
 22 -0.000976562 l 257
 22 335 l 258
 22 388.544 56.2471 426 108.4 426 c 258
 255.002 425.999 l 257
 202.001 327 l 257
 158.998 327.001 l 258
EndSplineSet
EndChar

StartChar: si_DDha
Encoding: 55 -1 55
GlifName: si_D_D_ha
Width: 673
VWidth: 0
GlyphClass: 2
Flags: W
LayerCount: 2
Back
Fore
SplineSet
158.998 371.002 m 258
 146.598 371.002 140.001 365.001 140.001 347.001 c 258
 140.001 -0.000976562 l 257
 22 -0.000976562 l 257
 22 379.001 l 258
 22 432.545 56.2471 470.001 108.4 470.001 c 258
 255.002 470 l 257
 202.001 371.001 l 257
 158.998 371.002 l 258
EndSplineSet
Refer: 100 3504 N 1 0 0 1 158 0 2
EndChar

StartChar: si_DI
Encoding: 56 -1 56
GlifName: si_D_I_
Width: 460
VWidth: 0
GlyphClass: 2
Flags: W
LayerCount: 2
Back
Fore
SplineSet
22.1816 511 m 257
 22.1816 595.803 l 258
 22.1816 625.797 39.0977 640 66.1816 640 c 258
 383 640 l 258
 408.333 640 424 628.565 424 597 c 258
 424 511 l 257
 299.995 511 l 257
 299.995 528 l 258
 299.995 540.878 299.279 546.001 286.399 546.001 c 258
 159.182 546.001 l 258
 147.849 546.001 146.187 540.001 146.187 528.001 c 258
 146.187 511 l 257
 22.1816 511 l 257
EndSplineSet
Refer: 74 3503 N 1 0 0 1 0 0 2
EndChar

StartChar: si_DIi
Encoding: 57 -1 57
GlifName: si_D_I_i
Width: 460
VWidth: 0
GlyphClass: 2
Flags: W
LayerCount: 2
Back
Fore
SplineSet
291.218 582.198 m 258
 281.218 582.198 276.218 578.198 276.218 570.198 c 258
 276.218 562.011 l 258
 276.218 553.344 281.551 549.011 292.218 549.011 c 258
 313.999 549.011 l 258
 324.666 549.011 329.999 553.678 329.999 563.011 c 258
 329.999 570.198 l 258
 329.999 578.198 324.332 582.198 312.999 582.198 c 258
 291.218 582.198 l 258
158.991 553.809 m 258
 148.001 553.808 145.996 547.809 145.996 535.809 c 258
 145.996 511 l 257
 21.9912 511 l 257
 21.9912 595.803 l 258
 21.9912 625.797 38.2109 640.011 65.2012 640.011 c 258
 380 640.012 l 258
 407.479 640.012 421.999 626.66 421.999 600 c 258
 421.999 540.996 l 258
 421.999 521 411.997 510.996 391.999 510.996 c 258
 211.218 510.994 l 258
 187.942 510.994 183.218 520.251 183.218 531.996 c 258
 183.218 545.801 l 258
 183.218 550.332 184.035 552.81 185.617 553.801 c 257
 158.991 553.809 l 258
EndSplineSet
Refer: 74 3503 N 1 0 0 1 0 0 2
EndChar

StartChar: si_DRI
Encoding: 58 -1 58
GlifName: si_D_R_I_
Width: 460
VWidth: 0
GlyphClass: 2
Flags: W
LayerCount: 2
Back
Fore
SplineSet
22.1816 511 m 257
 22.1816 595.803 l 258
 22.1816 625.797 39.0977 640 66.1816 640 c 258
 383 640 l 258
 408.333 640 424 628.565 424 597 c 258
 424 511 l 257
 299.995 511 l 257
 299.995 528 l 258
 299.995 540.878 299.279 546.001 286.399 546.001 c 258
 159.182 546.001 l 258
 147.849 546.001 146.187 540.001 146.187 528.001 c 258
 146.187 511 l 257
 22.1816 511 l 257
EndSplineSet
Refer: 60 -1 N 1 0 0 1 0 0 2
EndChar

StartChar: si_DRIi
Encoding: 59 -1 59
GlifName: si_D_R_I_i
Width: 460
VWidth: 0
GlyphClass: 2
Flags: W
LayerCount: 2
Back
Fore
SplineSet
291.218 582.198 m 258
 281.218 582.198 276.218 578.198 276.218 570.198 c 258
 276.218 562.011 l 258
 276.218 553.344 281.551 549.011 292.218 549.011 c 258
 313.999 549.011 l 258
 324.666 549.011 329.999 553.678 329.999 563.011 c 258
 329.999 570.198 l 258
 329.999 578.198 324.332 582.198 312.999 582.198 c 258
 291.218 582.198 l 258
158.991 553.809 m 258
 148.001 553.808 145.996 547.809 145.996 535.809 c 258
 145.996 511 l 257
 21.9912 511 l 257
 21.9912 595.803 l 258
 21.9912 625.797 38.2109 640.011 65.2012 640.011 c 258
 380 640.012 l 258
 407.479 640.012 421.999 626.66 421.999 600 c 258
 421.999 540.996 l 258
 421.999 521 411.997 510.996 391.999 510.996 c 258
 211.218 510.994 l 258
 187.942 510.994 183.218 520.251 183.218 531.996 c 258
 183.218 545.801 l 258
 183.218 550.332 184.035 552.81 185.617 553.801 c 257
 158.991 553.809 l 258
EndSplineSet
Refer: 60 -1 N 1 0 0 1 0 0 2
EndChar

StartChar: si_DRa
Encoding: 60 -1 60
GlifName: si_D_R_a
Width: 460
VWidth: 0
GlyphClass: 2
Flags: W
LayerCount: 2
Back
Fore
SplineSet
22.1992 -15.8076 m 257
 146.204 -15.8076 l 257
 146.204 -34.8105 l 258
 146.204 -46.8105 147.866 -52.8105 159.199 -52.8105 c 258
 291.199 -52.8105 l 258
 304.079 -52.8105 304.795 -47.6871 304.795 -34.8096 c 258
 304.795 12 l 257
 428.8 12 l 257
 428.8 -115.821 l 258
 428.8 -147.387 413.133 -158.821 387.8 -158.821 c 258
 66.1992 -158.821 l 258
 39.1152 -158.821 22.1992 -144.618 22.1992 -114.624 c 258
 22.1992 -15.8076 l 257
429 0.000976562 m 257
 66.2002 0 l 258
 32.2002 -0 22 17.9256 22 49.5996 c 258
 22 298 l 258
 22 338.657 43.1063 355 80 355 c 258
 301 355 l 257
 300.999 378 l 258
 300.998 391.308 296.338 394.001 287.005 394.001 c 258
 22 394.001 l 257
 22 497.001 l 257
 372 497 l 258
 405.565 497 425 480.913 425 444 c 258
 425 253.001 l 257
 168 253 l 258
 151.333 253 146 245.668 146 231.001 c 258
 146 133.001 l 258
 146 113.159 151.048 107 166.2 107 c 258
 429 107.001 l 257
 429 0.000976562 l 257
EndSplineSet
EndChar

StartChar: si_DU
Encoding: 61 -1 61
GlifName: si_D_U_
Width: 460
VWidth: 0
GlyphClass: 2
Flags: W
LayerCount: 2
Back
Fore
SplineSet
429 -159 m 257
 20.999 -159 l 257
 20.999 -52 l 257
 305.008 -52 l 257
 305.005 14.0039 l 257
 429.002 14 l 257
 429 -159 l 257
429 0.000976562 m 257
 66.2002 0 l 258
 32.2002 -0 22 17.9256 22 49.5996 c 258
 22 298 l 258
 22 338.657 43.1063 355 80 355 c 258
 301 355 l 257
 300.999 378 l 258
 300.998 391.308 296.338 394.001 287.005 394.001 c 258
 22 394.001 l 257
 22 497.001 l 257
 372 497 l 258
 405.565 497 425 480.913 425 444 c 258
 425 253.001 l 257
 168 253 l 258
 151.333 253 146 245.668 146 231.001 c 258
 146 133.001 l 258
 146 113.159 151.048 107 166.2 107 c 258
 429 107.001 l 257
 429 0.000976562 l 257
EndSplineSet
EndChar

StartChar: si_DUu
Encoding: 62 -1 62
GlifName: si_D_U_u
Width: 460
VWidth: 0
GlyphClass: 2
Flags: W
LayerCount: 2
Back
Fore
SplineSet
429.001 -158.999 m 257
 312.401 -158.999 l 257
 304.847 -151.036 296.935 -141.535 289.206 -136.201 c 256
 279.035 -129.182 267.515 -129.002 257.406 -129.002 c 257
 252.821 -129.002 l 257
 240.846 -129.002 231.25 -131.704 218.821 -136.803 c 257
 175.617 -153.804 l 257
 163.829 -158.021 155.828 -162.805 127.828 -162.805 c 258
 70.0498 -162.805 l 258
 37.6357 -162.805 22.0488 -150.575 22.0488 -122.002 c 258
 22.0488 -29.0029 l 257
 139.049 -29.0029 l 257
 139.049 -48.1992 l 258
 139.049 -59.4834 140.313 -66.2002 152.25 -66.2002 c 258
 155.043 -66.2002 l 258
 163.46 -66.2002 171.088 -63.2168 180.196 -58.6006 c 257
 208.817 -46.001 l 257
 221.783 -40.6738 234.97 -39.002 250.617 -39.002 c 257
 259.415 -39.002 l 257
 269.376 -39.002 286.438 -39.1924 294.611 -45.002 c 256
 300.418 -49.1299 301.252 -50.2412 305.999 -55.002 c 257
 305.999 14 l 257
 384.001 14 l 258
 410.001 14 425.001 28 429.001 56 c 257
 429.001 -158.999 l 257
429 0.000976562 m 257
 66.2002 0 l 258
 32.2002 -0 22 17.9256 22 49.5996 c 258
 22 298 l 258
 22 338.657 43.1063 355 80 355 c 258
 301 355 l 257
 300.999 378 l 258
 300.998 391.308 296.338 394.001 287.005 394.001 c 258
 22 394.001 l 257
 22 497.001 l 257
 372 497 l 258
 405.565 497 425 480.913 425 444 c 258
 425 253.001 l 257
 168 253 l 258
 151.333 253 146 245.668 146 231.001 c 258
 146 133.001 l 258
 146 113.159 151.048 107 166.2 107 c 258
 429 107.001 l 257
 429 0.000976562 l 257
EndSplineSet
EndChar

StartChar: si_DV.halant
Encoding: 63 -1 63
GlifName: si_D_V_.halant
Width: 673
VWidth: 0
GlyphClass: 2
Flags: W
LayerCount: 2
Back
Fore
SplineSet
158.998 332.006 m 258
 146.598 332.006 140.001 326.005 140.001 308.005 c 258
 140.001 -0.000976562 l 257
 22 -0.000976562 l 257
 22 344.009 l 258
 22 397.553 56.2471 435.009 108.4 435.009 c 258
 255.002 435.008 l 257
 202.001 332.005 l 257
 158.998 332.006 l 258
EndSplineSet
Refer: 469 -1 N 1 0 0 1 157.8 0 2
EndChar

StartChar: si_DVI
Encoding: 64 -1 64
GlifName: si_D_V_I_
Width: 673
VWidth: 0
GlyphClass: 2
Flags: W
LayerCount: 2
Back
Fore
SplineSet
158.998 332.006 m 258
 146.598 332.006 140.001 326.005 140.001 308.005 c 258
 140.001 -0.000976562 l 257
 22 -0.000976562 l 257
 22 344.009 l 258
 22 397.553 56.2471 435.009 108.4 435.009 c 258
 255.002 435.008 l 257
 202.001 332.005 l 257
 158.998 332.006 l 258
EndSplineSet
Refer: 470 -1 N 1 0 0 1 158 0 2
EndChar

StartChar: si_DVIi
Encoding: 65 -1 65
GlifName: si_D_V_I_i
Width: 673
VWidth: 0
GlyphClass: 2
Flags: W
LayerCount: 2
Back
Fore
SplineSet
158.998 332.006 m 258
 146.598 332.006 140.001 326.005 140.001 308.005 c 258
 140.001 -0.000976562 l 257
 22 -0.000976562 l 257
 22 344.009 l 258
 22 397.553 56.2471 435.009 108.4 435.009 c 258
 255.002 435.008 l 257
 202.001 332.005 l 257
 158.998 332.006 l 258
EndSplineSet
Refer: 471 -1 N 1 0 0 1 158 0 2
EndChar

StartChar: si_DVa
Encoding: 68 -1 68
GlifName: si_D_V_a
Width: 678
VWidth: 0
GlyphClass: 2
Flags: W
LayerCount: 2
Back
Fore
SplineSet
158.998 367.001 m 258
 146.598 367.001 140.001 361 140.001 343 c 258
 140.001 -0.000976562 l 257
 22 -0.000976562 l 257
 22 379.001 l 258
 22 432.545 56.2471 470.001 108.4 470.001 c 258
 255.002 470 l 257
 202.001 367 l 257
 158.998 367.001 l 258
EndSplineSet
Refer: 477 3520 N 1 0 0 1 163 0 2
EndChar

StartChar: si_DYAa.post
Encoding: 69 -1 69
GlifName: si_D_Y_A_a.post
Width: 821
VWidth: 0
GlyphClass: 2
Flags: W
LayerCount: 2
Back
Fore
SplineSet
411 -36.4775 m 257
 411.002 66.3896 l 258
 411.002 95.5352 432.776 106.89 472.44 106.89 c 258
 607 106.89 l 257
 607 45 l 257
 515 45 l 258
 505.218 45 502.2 40.5 502.2 35.8203 c 258
 502.2 18.6025 l 257
 549.4 18.6025 l 258
 593.242 18.6025 607.015 6.04102 607.015 -19.1982 c 258
 607.015 -123.689 l 258
 607.015 -149.156 588.998 -161.489 553.415 -161.489 c 258
 424.761 -161.489 l 258
 393.833 -161.489 382.096 -153.283 371.8 -147.45 c 258
 348.926 -134.49 l 257
 340.126 -161.489 l 257
 221.003 -161.489 l 257
 261.602 -14.2002 l 258
 262.188 -12.0762 262.726 -10.292 262.726 -8.36621 c 256
 262.726 -2.61816 255.257 -0.0517578 246.724 -0.0517578 c 258
 221.325 -0.0517578 l 257
 250.602 106.89 l 257
 349.726 106.89 l 258
 383.289 106.89 401.721 88.873 401.721 66.6045 c 256
 401.721 60.7891 400.294 51.9805 398.873 46.4102 c 258
 373 -55 l 257
 400.601 -71.8545 l 258
 414.492 -80.3369 422.514 -83.1953 443 -83.1953 c 258
 476.198 -83.1953 l 258
 486.235 -83.1953 492.198 -80.8652 492.198 -72.3955 c 258
 492.198 -45.875 l 258
 492.198 -38.498 487.072 -36.4775 477.798 -36.4775 c 258
 411 -36.4775 l 257
228.602 -0.000976562 m 257
 66 0 l 258
 32 0 22 17.9258 22 49.5996 c 258
 22 298 l 258
 22 338.656 43.1064 355 80 355 c 258
 301 355 l 257
 300.999 378 l 258
 300.998 391.309 296.338 394.001 287.005 394.001 c 258
 22 394.001 l 257
 22 497.001 l 257
 372 497 l 258
 405.564 497 425 480.913 425 444 c 258
 425 253.001 l 257
 168 253 l 258
 151.333 253 146 245.668 146 231.001 c 258
 146 133.001 l 258
 146 113.159 151.048 107 166.2 107 c 258
 259.602 107 l 257
 228.602 -0.000976562 l 257
627 107 m 257
 766 107 l 258
 795.994 107 807 92.0869 807 65.0029 c 258
 807 -119 l 258
 807 -144.333 793.333 -157 766 -157 c 258
 627 -157 l 257
 627 -63.1973 l 257
 664.999 -63.1973 l 258
 677.877 -63.1973 683 -56.8799 683 -44 c 258
 683 4 l 258
 683 15.333 677 21 665 21 c 258
 627 21 l 257
 627 107 l 257
EndSplineSet
EndChar

StartChar: si_DYOo.post
Encoding: 70 -1 70
GlifName: si_D_Y_O_o.post
Width: 837
VWidth: 0
GlyphClass: 2
Flags: W
LayerCount: 2
Back
Fore
SplineSet
411 -36.4775 m 257
 411.002 66.3896 l 258
 411.002 95.5352 432.776 106.89 472.44 106.89 c 258
 607 106.89 l 257
 607 45 l 257
 515 45 l 258
 505.218 45 502.2 40.5 502.2 35.8203 c 258
 502.2 18.6025 l 257
 549.4 18.6025 l 258
 593.242 18.6025 607.015 6.04102 607.015 -19.1982 c 258
 607.015 -123.689 l 258
 607.015 -149.156 588.998 -161.489 553.415 -161.489 c 258
 424.761 -161.489 l 258
 393.833 -161.489 382.096 -153.283 371.8 -147.45 c 258
 348.926 -134.49 l 257
 340.126 -161.489 l 257
 221.003 -161.489 l 257
 261.602 -14.2002 l 258
 262.188 -12.0762 262.726 -10.292 262.726 -8.36621 c 256
 262.726 -2.61816 255.257 -0.0517578 246.724 -0.0517578 c 258
 221.325 -0.0517578 l 257
 250.602 106.89 l 257
 349.726 106.89 l 258
 383.289 106.89 401.721 88.873 401.721 66.6045 c 256
 401.721 60.7891 400.294 51.9805 398.873 46.4102 c 258
 373 -55 l 257
 400.601 -71.8545 l 258
 414.492 -80.3369 422.514 -83.1953 443 -83.1953 c 258
 476.198 -83.1953 l 258
 486.235 -83.1953 492.198 -80.8652 492.198 -72.3955 c 258
 492.198 -45.875 l 258
 492.198 -38.498 487.072 -36.4775 477.798 -36.4775 c 258
 411 -36.4775 l 257
228.602 -0.000976562 m 257
 66 0 l 258
 32 0 22 17.9258 22 49.5996 c 258
 22 298 l 258
 22 338.656 43.1064 355 80 355 c 258
 301 355 l 257
 300.999 378 l 258
 300.998 391.309 296.338 394.001 287.005 394.001 c 258
 22 394.001 l 257
 22 497.001 l 257
 372 497 l 258
 405.564 497 425 480.913 425 444 c 258
 425 253.001 l 257
 168 253 l 258
 151.333 253 146 245.668 146 231.001 c 258
 146 133.001 l 258
 146 113.159 151.048 107 166.2 107 c 258
 259.602 107 l 257
 228.602 -0.000976562 l 257
627 107 m 257
 766 107 l 258
 795.994 107 807 92.0869 807 65.0029 c 258
 807 -119 l 258
 807 -144.333 793.333 -157 766 -157 c 258
 627 -157 l 257
 627 -63.1973 l 257
 664.999 -63.1973 l 258
 677.877 -63.1973 683 -56.8799 683 -44 c 258
 683 4 l 258
 683 15.333 677 21 665 21 c 258
 627 21 l 257
 627 107 l 257
682.801 46.3965 m 257
 682.801 649 l 257
 807.003 649 l 257
 807.003 -20 l 257
 802.336 -12.667 786.921 16.6357 775.003 24.791 c 256
 762.547 33.3154 743.505 46.3965 718.003 46.3965 c 258
 682.801 46.3965 l 257
EndSplineSet
EndChar

StartChar: si_DYUu.post
Encoding: 71 -1 71
GlifName: si_D_Y_U_u.post
Width: 617
VWidth: 0
GlyphClass: 2
Flags: W
LayerCount: 2
Back
Fore
SplineSet
411 -36.4775 m 257
 411.002 66.3896 l 258
 411.002 95.5352 432.776 106.89 472.44 106.89 c 258
 607 106.89 l 257
 607 45 l 257
 515 45 l 258
 505.218 45 502.2 40.5 502.2 35.8203 c 258
 502.2 18.6025 l 257
 549.4 18.6025 l 258
 593.242 18.6025 607.015 6.04102 607.015 -19.1982 c 258
 607.015 -123.689 l 258
 607.015 -149.156 588.998 -161.489 553.415 -161.489 c 258
 424.761 -161.489 l 258
 393.833 -161.489 382.096 -153.283 371.8 -147.45 c 258
 348.926 -134.49 l 257
 340.126 -161.489 l 257
 221.003 -161.489 l 257
 261.602 -14.2002 l 258
 262.188 -12.0762 262.726 -10.292 262.726 -8.36621 c 256
 262.726 -2.61816 255.257 -0.0517578 246.724 -0.0517578 c 258
 221.325 -0.0517578 l 257
 250.602 106.89 l 257
 349.726 106.89 l 258
 383.289 106.89 401.721 88.873 401.721 66.6045 c 256
 401.721 60.7891 400.294 51.9805 398.873 46.4102 c 258
 373 -55 l 257
 400.601 -71.8545 l 258
 414.492 -80.3369 422.514 -83.1953 443 -83.1953 c 258
 476.198 -83.1953 l 258
 486.235 -83.1953 492.198 -80.8652 492.198 -72.3955 c 258
 492.198 -45.875 l 258
 492.198 -38.498 487.072 -36.4775 477.798 -36.4775 c 258
 411 -36.4775 l 257
607.004 -262 m 257
 501.015 -262 l 257
 493.46 -254.037 485.548 -244.536 477.819 -239.202 c 256
 467.648 -232.183 456.128 -232.003 446.02 -232.003 c 257
 437.23 -232.003 l 257
 425.255 -232.003 415.659 -234.705 403.23 -239.804 c 257
 360.026 -256.805 l 257
 348.238 -261.021 336.233 -265.806 308.233 -265.806 c 258
 258.863 -265.806 l 258
 226.449 -265.806 210.862 -253.576 210.862 -225.003 c 258
 210.862 -178.003 l 257
 307.442 -178.003 l 257
 307.442 -200.002 l 258
 307.442 -211.286 312.311 -218.003 324.247 -218.003 c 258
 330.443 -218.003 l 258
 338.073 -218.003 343.172 -214.44 360.026 -207.801 c 257
 393.227 -195.001 l 257
 406.192 -189.674 419.379 -188.002 435.026 -188.002 c 257
 448.028 -188.002 l 257
 457.989 -188.002 475.052 -188.192 483.225 -194.002 c 256
 489.031 -198.13 489.865 -199.241 494.612 -204.002 c 257
 494.612 -135 l 257
 562.004 -135 l 258
 588.004 -135 603.004 -121 607.004 -93 c 257
 607.004 -262 l 257
228.602 -0.000976562 m 257
 66 0 l 258
 32 0 22 17.9258 22 49.5996 c 258
 22 298 l 258
 22 338.656 43.1064 355 80 355 c 258
 301 355 l 257
 300.999 378 l 258
 300.998 391.309 296.338 394.001 287.005 394.001 c 258
 22 394.001 l 257
 22 497.001 l 257
 372 497 l 258
 405.564 497 425 480.913 425 444 c 258
 425 253.001 l 257
 168 253 l 258
 151.333 253 146 245.668 146 231.001 c 258
 146 133.001 l 258
 146 113.159 151.048 107 166.2 107 c 258
 259.602 107 l 257
 228.602 -0.000976562 l 257
EndSplineSet
EndChar

StartChar: si_DYa.post
Encoding: 72 -1 72
GlifName: si_D_Y_a.post
Width: 617
VWidth: 0
GlyphClass: 2
Flags: W
LayerCount: 2
Back
Fore
SplineSet
411 -36.4775 m 257
 411.002 66.3896 l 258
 411.002 95.5352 432.776 106.89 472.44 106.89 c 258
 607 106.89 l 257
 607 45 l 257
 515 45 l 258
 505.218 45 502.2 40.5 502.2 35.8203 c 258
 502.2 18.6025 l 257
 549.4 18.6025 l 258
 593.242 18.6025 607.015 6.04102 607.015 -19.1982 c 258
 607.015 -123.689 l 258
 607.015 -149.156 588.998 -161.489 553.415 -161.489 c 258
 424.761 -161.489 l 258
 393.833 -161.489 382.096 -153.283 371.8 -147.45 c 258
 348.926 -134.49 l 257
 340.126 -161.489 l 257
 221.003 -161.489 l 257
 261.602 -14.2002 l 258
 262.188 -12.0762 262.726 -10.292 262.726 -8.36621 c 256
 262.726 -2.61816 255.257 -0.0517578 246.724 -0.0517578 c 258
 221.325 -0.0517578 l 257
 250.602 106.89 l 257
 349.726 106.89 l 258
 383.289 106.89 401.721 88.873 401.721 66.6045 c 256
 401.721 60.7891 400.294 51.9804 398.873 46.4102 c 258
 373 -55 l 257
 400.601 -71.8545 l 258
 414.492 -80.3374 422.514 -83.1953 443 -83.1953 c 258
 476.198 -83.1953 l 258
 486.235 -83.1953 492.198 -80.8652 492.198 -72.3955 c 258
 492.198 -45.875 l 258
 492.198 -38.498 487.072 -36.4775 477.798 -36.4775 c 258
 411 -36.4775 l 257
228.602 -0.000976562 m 257
 66 0 l 258
 32 0.000208041 22 17.9258 22 49.5996 c 258
 22 298 l 258
 22 338.656 43.1064 355 80 355 c 258
 301 355 l 257
 300.999 378 l 258
 300.998 391.309 296.338 394.001 287.005 394.001 c 258
 22 394.001 l 257
 22 497.001 l 257
 372 497 l 258
 405.564 497 425 480.913 425 444 c 258
 425 253.001 l 257
 168 253 l 258
 151.333 253 146 245.668 146 231.001 c 258
 146 133.001 l 258
 146 113.159 151.048 107 166.2 107 c 258
 259.602 107 l 257
 228.602 -0.000976562 l 257
EndSplineSet
EndChar

StartChar: si_DYu.post
Encoding: 73 -1 73
GlifName: si_D_Y_u.post
Width: 617
VWidth: 0
GlyphClass: 2
Flags: W
LayerCount: 2
Back
Fore
SplineSet
411 -36.4775 m 257
 411.002 66.3896 l 258
 411.002 95.5352 432.776 106.89 472.44 106.89 c 258
 607 106.89 l 257
 607 45 l 257
 515 45 l 258
 505.218 45 502.2 40.5 502.2 35.8203 c 258
 502.2 18.6025 l 257
 549.4 18.6025 l 258
 593.242 18.6025 607.015 6.04102 607.015 -19.1982 c 258
 607.015 -123.689 l 258
 607.015 -149.156 588.998 -161.489 553.415 -161.489 c 258
 424.761 -161.489 l 258
 393.833 -161.489 382.096 -153.283 371.8 -147.45 c 258
 348.926 -134.49 l 257
 340.126 -161.489 l 257
 221.003 -161.489 l 257
 261.602 -14.2002 l 258
 262.188 -12.0762 262.726 -10.292 262.726 -8.36621 c 256
 262.726 -2.61816 255.257 -0.0517578 246.724 -0.0517578 c 258
 221.325 -0.0517578 l 257
 250.602 106.89 l 257
 349.726 106.89 l 258
 383.289 106.89 401.721 88.873 401.721 66.6045 c 256
 401.721 60.7891 400.294 51.9805 398.873 46.4102 c 258
 373 -55 l 257
 400.601 -71.8545 l 258
 414.492 -80.3369 422.514 -83.1953 443 -83.1953 c 258
 476.198 -83.1953 l 258
 486.235 -83.1953 492.198 -80.8652 492.198 -72.3955 c 258
 492.198 -45.875 l 258
 492.198 -38.498 487.072 -36.4775 477.798 -36.4775 c 258
 411 -36.4775 l 257
228.602 -0.000976562 m 257
 66 0 l 258
 32 0 22 17.9258 22 49.5996 c 258
 22 298 l 258
 22 338.656 43.1064 355 80 355 c 258
 301 355 l 257
 300.999 378 l 258
 300.998 391.309 296.338 394.001 287.005 394.001 c 258
 22 394.001 l 257
 22 497.001 l 257
 372 497 l 258
 405.564 497 425 480.913 425 444 c 258
 425 253.001 l 257
 168 253 l 258
 151.333 253 146 245.668 146 231.001 c 258
 146 133.001 l 258
 146 113.159 151.048 107 166.2 107 c 258
 259.602 107 l 257
 228.602 -0.000976562 l 257
607.087 -261 m 257
 239.996 -261 l 257
 239.996 -196 l 257
 484.087 -196 l 257
 484.087 -143.396 l 257
 556.087 -143.396 l 258
 584.754 -143.396 601.754 -130.396 607.087 -104.396 c 257
 607.087 -261 l 257
EndSplineSet
EndChar

StartChar: si_Da
Encoding: 74 3503 74
GlifName: si_D_a
Width: 460
VWidth: 0
GlyphClass: 2
Flags: W
LayerCount: 2
Back
Fore
SplineSet
429 0.000976562 m 257
 269 0 l 258
 247.859 -0.000129033 238 -10.0111 238 -30 c 258
 238 -46 l 258
 238 -59.1377 246.031 -64 259 -64 c 258
 452 -64 l 257
 452 -171 l 257
 161 -171 l 258
 132.813 -171 109 -159.622 109 -126 c 258
 109 -56 l 258
 109 -22.2028 114.8 -9.3776 138 0 c 257
 66 0 l 258
 32.3066 0 22 17.9256 22 49.5996 c 258
 22 298 l 258
 22 338.657 43.1063 355 80 355 c 258
 301 355 l 257
 300.999 378 l 258
 300.998 391.308 296.338 394.001 287.005 394.001 c 258
 22 394.001 l 257
 22 497.001 l 257
 372 497 l 258
 405.565 497 425 480.913 425 444 c 258
 425 253.001 l 257
 168 253 l 258
 151.333 253 146 245.668 146 231.001 c 258
 146 133.001 l 258
 146 113.159 151.048 107 166.2 107 c 258
 429 107.001 l 257
 429 0.000976562 l 257
EndSplineSet
EndChar

StartChar: si_Dd.halant
Encoding: 76 -1 76
GlifName: si_D_d.halant
Width: 515
VWidth: 0
GlyphClass: 2
Flags: W
LayerCount: 2
Back
Fore
SplineSet
485 400 m 257
 361 400 l 257
 361 441 l 258
 361 459.349 354.061 464 335 464 c 258
 14 464 l 257
 14 550 l 257
 94 550 l 257
 64.6667 557.333 50 571.667 50 593 c 258
 50 632 l 258
 50 659.333 66.3333 673 99 673 c 258
 483 673 l 257
 483 589 l 257
 206 589 l 258
 188 589 179 584.333 179 575 c 256
 179 565.226 186.926 558 197 558 c 258
 416 558 l 258
 471.441 558 485 533.686 485 477 c 258
 485 400 l 257
-6 296.371 m 257
 88 296.371 l 257
 88 199.371 l 257
 -6 199.371 l 257
 -6 296.371 l 257
69.998 0 m 258
 33 0 22 16.273 22 54 c 258
 22 148 l 258
 22 183.035 29.667 194.042 45 201.375 c 257
 61.2197 223.677 40.8584 296.375 78 296.375 c 258
 145.592 296.375 l 257
 145.584 296.603 145.542 319.375 145.542 319.375 c 258
 145.542 329.375 138.875 334.375 125.542 334.375 c 258
 23 334.375 l 257
 23 437.375 l 257
 192 437.375 l 258
 230.669 437.375 264 421.141 264 383.375 c 258
 264 193.375 l 257
 169 193.375 l 258
 153.667 193.375 146 187.708 146 176.375 c 258
 146 130 l 258
 146 114.667 152 107 164.804 107 c 258
 181.803 107 l 258
 196 107 203.803 115.333 203.803 132 c 258
 203.803 161.182 l 257
 303.398 161.182 l 257
 303.398 134 l 258
 303.398 116 311.064 107 326.398 107 c 258
 343.997 107 l 258
 355.33 107 360.997 114 360.997 128 c 258
 360.997 422.802 l 257
 484.998 423 l 257
 484.998 50 l 258
 484.998 19.6379 471.396 -4.08988e-15 438 0 c 258
 301.803 0 l 258
 275.803 0 259.469 12.333 252.803 37 c 257
 249.629 16.3779 229 0 205.803 0 c 258
 69.998 0 l 258
EndSplineSet
EndChar

StartChar: si_DdI
Encoding: 77 -1 77
GlifName: si_D_dI_
Width: 515
VWidth: 0
GlyphClass: 2
Flags: W
LayerCount: 2
Back
Fore
SplineSet
485 400 m 257
 361 400 l 257
 361 441 l 258
 361 459.349 354.061 464 335 464 c 258
 69 464 l 258
 37.6667 464 22 480 22 512 c 258
 22 612 l 258
 22 656.156 37.8431 672 82 672 c 258
 483.5 672 l 257
 483.5 589 l 257
 165 589 l 258
 152.333 589 146 585.667 146 577 c 258
 146 568 l 258
 146 561.333 151.667 558 163 558 c 258
 416 558 l 258
 472.814 558 485 535.085 485 477 c 258
 485 400 l 257
-6 296.371 m 257
 88 296.371 l 257
 88 199.371 l 257
 -6 199.371 l 257
 -6 296.371 l 257
22 148 m 258
 22 183.035 29.667 194.042 45 201.375 c 257
 61.2197 223.677 40.8584 296.375 78 296.375 c 258
 145.592 296.375 l 257
 145.584 296.603 145.542 319.375 145.542 319.375 c 258
 145.542 329.375 138.875 334.375 125.542 334.375 c 258
 23 334.375 l 257
 23 437.375 l 257
 192 437.375 l 258
 230.669 437.375 264 421.141 264 383.375 c 258
 264 193.375 l 257
 169 193.375 l 258
 153.667 193.375 146 187.708 146 176.375 c 258
 146 130 l 258
 146 114.667 152 107 164.804 107 c 258
 181.803 107 l 258
 196 107 203.803 115.333 203.803 132 c 258
 203.803 161.182 l 257
 303.398 161.182 l 257
 303.398 134 l 258
 303.398 116 311.064 107 326.398 107 c 258
 343.997 107 l 258
 355.33 107 360.997 114 360.997 128 c 258
 360.997 422.802 l 257
 484.998 423 l 257
 484.998 50 l 258
 484.998 19.6379 471.396 -4.08988e-15 438 0 c 258
 301.803 0 l 258
 275.803 0 259.469 12.333 252.803 37 c 257
 249.629 16.3779 229 0 205.803 0 c 258
 69.998 0 l 258
 33 0 22 16.273 22 54 c 258
 22 148 l 258
EndSplineSet
EndChar

StartChar: si_DdIi
Encoding: 78 -1 78
GlifName: si_D_dI_i
Width: 515
VWidth: 0
GlyphClass: 2
Flags: W
LayerCount: 2
Back
Fore
SplineSet
361 405 m 257
 361 434 l 258
 361 452.191 343.683 464 325 464 c 258
 65 464 l 258
 35.1571 464 22 472.771 22 505 c 258
 22 618 l 258
 22 654.86 35.4108 672 72 672 c 258
 435 672 l 258
 471.588 672 485 654.858 485 618 c 258
 485 552 l 258
 485 529.838 468.868 512.774 450 509 c 257
 471.911 502.153 485 474.275 485 445 c 258
 485 405 l 257
 361 405 l 257
232 539 m 257
 224.066 543.656 221 547.826 221 564 c 258
 221 575 l 258
 221 581.855 221.142 584.018 224 587 c 257
 153 587 l 258
 141.667 587 136 582.333 136 573 c 258
 136 554 l 258
 136 544 141.333 539 152 539 c 258
 232 539 l 257
326 594 m 258
 317.619 594 313 588.388 313 581 c 258
 313 558 l 258
 313 547.623 322.201 543 331 543 c 258
 368 543 l 258
 379.682 543 388 549.518 388 564 c 258
 388 582 l 258
 388 591.396 381.685 594 377 594 c 258
 326 594 l 258
-6 296.371 m 257
 88 296.371 l 257
 88 199.371 l 257
 -6 199.371 l 257
 -6 296.371 l 257
22 148 m 258
 22 183.035 29.667 194.042 45 201.375 c 257
 61.2197 223.677 40.8584 296.375 78 296.375 c 258
 145.592 296.375 l 257
 145.584 296.603 145.542 319.375 145.542 319.375 c 258
 145.542 329.375 138.875 334.375 125.542 334.375 c 258
 23 334.375 l 257
 23 437.375 l 257
 192 437.375 l 258
 230.669 437.375 264 421.141 264 383.375 c 258
 264 193.375 l 257
 169 193.375 l 258
 153.667 193.375 146 187.708 146 176.375 c 258
 146 130 l 258
 146 114.667 152 107 164.804 107 c 258
 181.803 107 l 258
 196 107 203.803 115.333 203.803 132 c 258
 203.803 161.182 l 257
 303.398 161.182 l 257
 303.398 134 l 258
 303.398 116 311.064 107 326.398 107 c 258
 343.997 107 l 258
 355.33 107 360.997 114 360.997 128 c 258
 360.997 422.802 l 257
 484.998 423 l 257
 484.998 50 l 258
 484.998 19.6379 471.396 -4.08988e-15 438 0 c 258
 301.803 0 l 258
 275.803 0 259.469 12.333 252.803 37 c 257
 249.629 16.3779 229 0 205.803 0 c 258
 69.998 0 l 258
 33 0 22 16.273 22 54 c 258
 22 148 l 258
EndSplineSet
EndChar

StartChar: si_DdRI
Encoding: 79 -1 79
GlifName: si_D_dR_I_
Width: 647
VWidth: 0
GlyphClass: 2
Flags: W
LayerCount: 2
Back
Fore
SplineSet
23.4004 -15.8076 m 257
 23.4004 -114.824 l 258
 23.4004 -144.818 40.3164 -159.021 67.4004 -159.021 c 258
 443 -159.021 l 258
 468.333 -159.021 484 -147.587 484 -116.021 c 258
 484 -15.8076 l 257
 359.995 -15.8076 l 257
 359.995 -35.0098 l 258
 359.995 -47.8877 359.279 -53.0107 346.399 -53.0107 c 258
 160.4 -53.0107 l 258
 149.067 -53.0107 147.405 -47.0107 147.405 -35.0107 c 258
 147.405 -15.8076 l 257
 23.4004 -15.8076 l 257
EndSplineSet
Refer: 77 -1 N 1 0 0 1 0 0 2
EndChar

StartChar: si_DdRIi
Encoding: 80 -1 80
GlifName: si_D_dR_I_i
Width: 647
VWidth: 0
GlyphClass: 2
Flags: W
LayerCount: 2
Back
Fore
SplineSet
23.4004 -15.8076 m 257
 23.4004 -114.824 l 258
 23.4004 -144.818 40.3164 -159.021 67.4004 -159.021 c 258
 443 -159.021 l 258
 468.333 -159.021 484 -147.587 484 -116.021 c 258
 484 -15.8076 l 257
 359.995 -15.8076 l 257
 359.995 -35.0098 l 258
 359.995 -47.8877 359.279 -53.0107 346.399 -53.0107 c 258
 160.4 -53.0107 l 258
 149.067 -53.0107 147.405 -47.0107 147.405 -35.0107 c 258
 147.405 -15.8076 l 257
 23.4004 -15.8076 l 257
EndSplineSet
Refer: 78 -1 N 1 0 0 1 0 0 2
EndChar

StartChar: si_DdRa
Encoding: 81 -1 81
GlifName: si_D_dR_a
Width: 515
VWidth: 0
GlyphClass: 2
Flags: W
LayerCount: 2
Back
Fore
SplineSet
23.4004 -15.8076 m 257
 23.4004 -114.824 l 258
 23.4004 -144.818 40.3164 -159.021 67.4004 -159.021 c 258
 443 -159.021 l 258
 468.333 -159.021 484 -147.587 484 -116.021 c 258
 484 -15.8076 l 257
 359.995 -15.8076 l 257
 359.995 -35.0098 l 258
 359.995 -47.8877 359.279 -53.0107 346.399 -53.0107 c 258
 160.4 -53.0107 l 258
 149.067 -53.0107 147.405 -47.0107 147.405 -35.0107 c 258
 147.405 -15.8076 l 257
 23.4004 -15.8076 l 257
EndSplineSet
Refer: 84 3497 N 1 0 0 1 0 0 2
EndChar

StartChar: si_Dda
Encoding: 84 3497 84
GlifName: si_D_da
Width: 515
VWidth: 0
GlyphClass: 2
Flags: W
LayerCount: 2
Back
Fore
SplineSet
-6 329.003 m 257
 88 329.003 l 257
 88 232.003 l 257
 -6 232.003 l 257
 -6 329.003 l 257
69.998 0 m 258
 33 0 22 16.273 22 54 c 258
 22 191.007 l 258
 22 212.34 29.667 226.674 45 234.007 c 257
 61.2197 256.309 40.8584 329.007 78 329.007 c 258
 145.592 329.007 l 257
 145.584 329.234 145.542 352.007 145.542 352.007 c 258
 145.542 362.007 138.875 367.007 125.542 367.007 c 258
 23 367.007 l 257
 23 470.007 l 257
 192 470.007 l 258
 230.669 470.007 264 453.772 264 416.007 c 258
 264 226.007 l 257
 169 226.007 l 258
 153.667 226.007 146 220.34 146 209.007 c 258
 146 130 l 258
 146 114.667 152 107 164.804 107 c 258
 181.803 107 l 258
 196 107 203.803 115.333 203.803 132 c 258
 203.803 185.405 l 257
 303.398 185.405 l 257
 303.398 134 l 258
 303.398 116 311.064 107 326.398 107 c 258
 343.997 107 l 258
 355.33 107 360.997 114 360.997 128 c 258
 360.997 479 l 258
 360.997 503.852 353.884 510 330 510 c 258
 22.001 510 l 257
 22.001 626 l 257
 412 626 l 258
 454.309 626 484.998 609.264 484.998 560 c 258
 484.998 50 l 258
 484.998 19.6379 471.396 -4.08988e-15 438 0 c 258
 301.803 0 l 258
 275.803 0 259.469 12.333 252.803 37 c 257
 249.629 16.3779 229 0 205.803 0 c 258
 69.998 0 l 258
EndSplineSet
EndChar

StartChar: si_Dda.reph
Encoding: 85 -1 85
GlifName: si_D_da.reph
Width: 515
VWidth: 0
GlyphClass: 2
Flags: W
LayerCount: 2
Back
Fore
SplineSet
-6 298.396 m 257
 88 298.396 l 257
 88 201.396 l 257
 -6 201.396 l 257
 -6 298.396 l 257
69.998 0 m 258
 33 0 22 16.2734 22 54 c 258
 22 160.399 l 258
 22 181.732 29.667 196.066 45 203.399 c 257
 61.2197 225.701 40.8584 298.399 78 298.399 c 258
 145.592 298.399 l 257
 145.584 298.627 145.542 321.399 145.542 321.399 c 258
 145.542 331.399 138.875 336.399 125.542 336.399 c 258
 23 336.399 l 257
 23 439.399 l 257
 192 439.399 l 258
 230.669 439.399 264 423.165 264 385.399 c 258
 264 195.399 l 257
 169 195.399 l 258
 153.667 195.399 146 189.732 146 178.399 c 258
 146 130 l 258
 146 114.667 152 107 164.804 107 c 258
 181.803 107 l 258
 196 107 203.803 115.333 203.803 132 c 258
 203.803 154.798 l 257
 303.398 154.798 l 257
 303.398 134 l 258
 303.398 116 311.064 107 326.398 107 c 258
 343.997 107 l 258
 355.33 107 360.997 114 360.997 128 c 258
 360.997 448.393 l 258
 360.997 473.244 353.884 479.393 330 479.393 c 258
 22.001 479.393 l 257
 22.001 580 l 257
 412 580 l 258
 454.309 580 484.998 563.264 484.998 514 c 258
 484.998 50 l 258
 484.998 19.6377 471.396 -0 438 0 c 258
 301.803 0 l 258
 275.803 0 259.469 12.333 252.803 37 c 257
 249.629 16.3779 229 0 205.803 0 c 258
 69.998 0 l 258
238.791 628 m 257
 323 628 l 257
 323 590.188 l 258
 323 563.011 311.509 553.188 292 553.188 c 258
 120 553.188 l 258
 93.5303 553.188 80 567.084 80 599.188 c 258
 80 669 l 258
 80 697.736 97.249 717 134 717 c 258
 419 717 l 258
 452.445 717 470 700.158 470 661 c 258
 470 591 l 257
 357 591 l 257
 357 630 l 258
 357 645.315 351.667 653 341 653 c 258
 208 653 l 258
 197.333 653 192 648.667 192 640 c 258
 192 612 l 258
 192 603.333 195.72 599 204 599 c 258
 226 599 l 258
 237.265 599 238.791 604.333 238.791 615 c 258
 238.791 628 l 257
EndSplineSet
EndChar

StartChar: si_Ddh.halant
Encoding: 86 -1 86
GlifName: si_D_dh.halant
Width: 515
VWidth: 0
GlyphClass: 2
Flags: W
LayerCount: 2
Back
Fore
SplineSet
69.998 0 m 258
 33 0 22 16.273 22 54 c 258
 22 166.795 l 258
 22 188.128 29.667 202.462 45 209.795 c 257
 61.2197 232.097 40.8584 290.795 78 290.795 c 258
 168.05 290.795 l 257
 168.042 291.022 168 310.592 168 310.592 c 258
 168 320.592 161.333 325.592 148 325.592 c 258
 23 325.592 l 257
 23 419.585 l 257
 192 419.585 l 258
 230.669 419.585 264 403.351 264 365.585 c 258
 264 201.795 l 257
 169 201.795 l 258
 153.667 201.795 146 196.128 146 184.795 c 258
 146 130 l 258
 146 114.667 152 107 164.804 107 c 258
 181.803 107 l 258
 196 107 203.803 115.333 203.803 132 c 258
 203.803 161.193 l 257
 303.398 161.193 l 257
 303.398 134 l 258
 303.398 116 311.064 107 326.398 107 c 258
 343.997 107 l 258
 355.33 107 360.997 114 360.997 128 c 258
 360.997 412.001 l 257
 484.998 412 l 257
 484.998 50 l 258
 484.998 19.6379 471.396 -4.08988e-15 438 0 c 258
 301.803 0 l 258
 275.803 0 259.469 12.333 252.803 37 c 257
 249.629 16.3779 229 0 205.803 0 c 258
 69.998 0 l 258
484.981 394 m 257
 360.982 394 l 257
 360.98 439.614 l 257
 157.981 439.614 l 258
 124.689 439.614 112.198 450.586 112.198 487 c 258
 112.198 577 l 257
 61.1982 577 l 257
 61.1982 664 l 257
 183.981 664 l 258
 215.172 664 226.679 663.544 268.981 645 c 256
 269.458 644.894 414.981 581 414.981 581 c 258
 451.389 565.041 484.981 545.567 484.981 494 c 258
 484.981 394 l 257
222.198 576 m 257
 222.198 527.199 l 258
 222.198 508.791 229.601 508.614 243.981 508.614 c 258
 359.381 508.614 l 257
 359.381 511.211 l 258
 359.381 519.211 348.967 522.988 341.981 526 c 258
 341.981 526 275.947 554.586 232.981 573 c 256
 230.277 574.166 226.008 576 224.18 576 c 258
 222.198 576 l 257
-6 290.791 m 257
 88 290.791 l 257
 88 207.791 l 257
 -6 207.791 l 257
 -6 290.791 l 257
368.981 708 m 257
 484.981 708 l 257
 484.981 480 l 257
 368.982 480 l 257
 368.981 708 l 257
EndSplineSet
EndChar

StartChar: si_DdhI
Encoding: 87 -1 87
GlifName: si_D_dhI_
Width: 515
VWidth: 0
GlyphClass: 2
Flags: W
LayerCount: 2
Back
Fore
SplineSet
187.999 418 m 257
 74 418 l 258
 36.6289 418 22 437.562 22 469.387 c 258
 22 608 l 258
 22 650.583 41.6855 672.005 87.6006 672.005 c 258
 484.799 672.005 l 257
 484.799 589.198 l 257
 129 589.198 l 258
 108.939 589.198 101.799 580.598 101.799 563 c 258
 101.799 491.991 l 258
 101.799 477.911 108.772 468 124 468 c 258
 188 468 l 257
 187.999 418 l 257
293.203 497.16 m 257
 293.203 473.76 l 258
 293.203 455.352 300.605 455.175 314.986 455.175 c 258
 358.199 455.175 l 257
 358.2 481.161 l 258
 358.2 488.871 356.312 497.16 346 497.16 c 258
 293.203 497.16 l 257
485.001 361.368 m 257
 361 361.368 l 257
 361 394.383 l 257
 228.986 394.383 l 258
 195.694 394.383 183.203 405.354 183.203 441.769 c 258
 183.203 498.16 l 257
 137.809 498.16 l 257
 137.809 558.534 l 257
 419 558.534 l 258
 466.56 558.534 485.001 543.102 485.001 491.534 c 258
 485.001 361.368 l 257
-6 266.367 m 257
 88 266.367 l 257
 88 189.773 l 257
 -6 189.773 l 257
 -6 266.367 l 257
22 148.777 m 258
 22 170.11 29.667 184.444 45 191.777 c 257
 61.2197 214.079 40.8584 266.371 78 266.371 c 258
 168.05 266.371 l 257
 168.042 266.599 168 286.168 168 286.168 c 258
 168 296.168 161.333 301.168 148 301.168 c 258
 23 301.168 l 257
 23 386.953 l 257
 192 386.953 l 258
 230.669 386.953 264 370.719 264 332.953 c 258
 264 183.777 l 257
 169 183.777 l 258
 153.667 183.777 146 178.11 146 166.777 c 258
 146 130 l 258
 146 114.667 152 107 164.804 107 c 258
 181.803 107 l 258
 196 107 203.803 115.333 203.803 132 c 258
 203.803 153.386 l 257
 303.398 153.386 l 257
 303.398 134 l 258
 303.398 116 311.064 107 326.398 107 c 258
 343.997 107 l 258
 355.33 107 360.997 114 360.997 128 c 258
 360.997 379.369 l 257
 484.998 379.368 l 257
 484.998 50 l 258
 484.998 19.6377 471.396 0 438 0 c 258
 301.803 0 l 258
 275.803 0 259.469 12.333 252.803 37 c 257
 249.629 16.3779 229 0 205.803 0 c 258
 69.998 0 l 258
 33 0 22 16.2734 22 54 c 258
 22 148.777 l 258
EndSplineSet
EndChar

StartChar: si_DdhIi
Encoding: 88 -1 88
GlifName: si_D_dhI_i
Width: 515
VWidth: 0
GlyphClass: 2
Flags: W
LayerCount: 2
Back
Fore
SplineSet
338 616 m 258
 328 616 323 612 323 604 c 258
 323 583 l 258
 323 574.333 328.333 570 339 570 c 258
 380 570 l 258
 390.667 570 396 574.667 396 584 c 258
 396 604 l 258
 396 612 390.333 616 379 616 c 258
 338 616 l 258
191.8 418 m 257
 82 418 l 258
 45.3535 418 32 439 32 469 c 258
 32 614 l 258
 32 648.255 50.5791 672 95 672 c 258
 445 672 l 258
 471.631 672 488 661.562 488 635 c 258
 488 584 l 258
 488 557.302 474.291 547 444 547 c 258
 260 546.998 l 258
 239.515 546.998 230 555.715 230 572 c 258
 230 585 l 257
 230 585 l 257
 126 585 l 258
 108.851 585 104 575.513 104 561 c 258
 104 487 l 258
 104 473.963 108.626 468 126 468 c 258
 191.802 468 l 257
 191.8 418 l 257
293.203 497.16 m 257
 293.203 473.76 l 258
 293.203 455.352 300.605 455.175 314.986 455.175 c 258
 358.199 455.175 l 257
 358.2 481.161 l 258
 358.2 488.871 356.312 497.16 346 497.16 c 258
 293.203 497.16 l 257
485.001 361.368 m 257
 361 361.368 l 257
 361 394.383 l 257
 228.986 394.383 l 258
 195.694 394.383 183.203 405.354 183.203 441.769 c 258
 183.203 498.16 l 257
 137.809 498.16 l 257
 137.809 558.534 l 257
 419 558.534 l 258
 466.56 558.534 485.001 543.102 485.001 491.534 c 258
 485.001 361.368 l 257
-6 266.367 m 257
 88 266.367 l 257
 88 189.773 l 257
 -6 189.773 l 257
 -6 266.367 l 257
23 386.953 m 257
 192 386.953 l 258
 230.669 386.953 264 370.719 264 332.953 c 258
 264 183.777 l 257
 169 183.777 l 258
 153.667 183.777 146 178.11 146 166.777 c 258
 146 130 l 258
 146 114.667 152 107 164.804 107 c 258
 181.803 107 l 258
 196 107 203.803 115.333 203.803 132 c 258
 203.803 153.386 l 257
 303.398 153.386 l 257
 303.398 134 l 258
 303.398 116 311.064 107 326.398 107 c 258
 343.997 107 l 258
 355.33 107 360.997 114 360.997 128 c 258
 360.997 379.369 l 257
 484.998 379.368 l 257
 484.998 50 l 258
 484.998 19.6377 471.396 0 438 0 c 258
 301.803 0 l 258
 275.803 0 259.469 12.333 252.803 37 c 257
 249.629 16.3779 229 0 205.803 0 c 258
 69.998 0 l 258
 33 0 22 16.2734 22 54 c 258
 22 148.777 l 258
 22 170.11 29.667 184.444 45 191.777 c 257
 61.2197 214.079 40.8584 266.371 78 266.371 c 258
 168.05 266.371 l 257
 168.042 266.599 168 286.168 168 286.168 c 258
 168 296.168 161.333 301.168 148 301.168 c 258
 23 301.168 l 257
 23 386.953 l 257
EndSplineSet
EndChar

StartChar: si_Ddha
Encoding: 91 3498 91
GlifName: si_D_dha
Width: 515
VWidth: 0
GlyphClass: 2
Flags: W
LayerCount: 2
Back
Fore
SplineSet
293.203 538 m 257
 293.203 514.6 l 258
 293.203 496.191 300.605 496.015 314.986 496.015 c 258
 358.199 496.015 l 257
 358.2 522.001 l 258
 358.2 529.711 356.312 538 346 538 c 258
 293.203 538 l 257
485.001 394 m 257
 361 394 l 257
 361 427.015 l 257
 228.986 427.015 l 258
 195.694 427.015 183.203 437.986 183.203 474.4 c 258
 183.203 539 l 257
 137.809 539 l 257
 137.809 626 l 257
 419 626 l 258
 466.56 626 485.001 610.567 485.001 559 c 258
 485.001 394 l 257
-6 290.791 m 257
 88 290.791 l 257
 88 207.791 l 257
 -6 207.791 l 257
 -6 290.791 l 257
22 166.795 m 258
 22 188.128 29.667 202.462 45 209.795 c 257
 61.2197 232.097 40.8584 290.795 78 290.795 c 258
 168.05 290.795 l 257
 168.042 291.022 168 310.592 168 310.592 c 258
 168 320.592 161.333 325.592 148 325.592 c 258
 23 325.592 l 257
 23 419.585 l 257
 192 419.585 l 258
 230.669 419.585 264 403.351 264 365.585 c 258
 264 201.795 l 257
 169 201.795 l 258
 153.667 201.795 146 196.128 146 184.795 c 258
 146 130 l 258
 146 114.667 152 107 164.804 107 c 258
 181.803 107 l 258
 196 107 203.803 115.333 203.803 132 c 258
 203.803 161.193 l 257
 303.398 161.193 l 257
 303.398 134 l 258
 303.398 116 311.064 107 326.398 107 c 258
 343.997 107 l 258
 355.33 107 360.997 114 360.997 128 c 258
 360.997 412.001 l 257
 484.998 412 l 257
 484.998 50 l 258
 484.998 19.6379 471.396 -4.08988e-15 438 0 c 258
 301.803 0 l 258
 275.803 0 259.469 12.333 252.803 37 c 257
 249.629 16.3779 229 0 205.803 0 c 258
 69.998 0 l 258
 33 0 22 16.273 22 54 c 258
 22 166.795 l 258
EndSplineSet
EndChar

StartChar: si_Dh.halant
Encoding: 92 -1 92
GlifName: si_D_h.halant
Width: 515
VWidth: 0
GlyphClass: 2
Flags: W
LayerCount: 2
Back
Fore
SplineSet
485 400 m 257
 361 400 l 257
 361 441 l 258
 361 459.349 354.061 464 335 464 c 258
 14 464 l 257
 14 550 l 257
 94 550 l 257
 64.6667 557.333 50 571.667 50 593 c 258
 50 632 l 258
 50 659.333 66.3333 673 99 673 c 258
 483 673 l 257
 483 589 l 257
 206 589 l 258
 188 589 179 584.333 179 575 c 256
 179 565.226 186.926 558 197 558 c 258
 416 558 l 258
 471.441 558 485 533.686 485 477 c 258
 485 400 l 257
484.998 415 m 257
 484.998 49 l 258
 484.998 16.6827 471.396 -4.08988e-15 438 0 c 258
 301.803 0 l 258
 275.803 0 259.469 12.333 252.803 37 c 257
 249.629 16.3779 229.072 0 205.803 0 c 258
 69 0 l 258
 37.6096 0 22 15.0176 22 48 c 258
 22 361.008 l 258
 22 399.562 40.0205 426.008 81 426.008 c 258
 259.197 426.008 l 257
 259.198 318.407 l 257
 156 318.407 l 258
 149.064 318.407 146.004 314.699 146.004 308.606 c 258
 146.004 126 l 258
 146.004 113.333 152.337 107 165.004 107 c 258
 181.803 107 l 258
 196.469 107 203.803 115.333 203.803 132 c 258
 203.803 244.796 l 257
 303.398 244.796 l 257
 303.398 134 l 258
 303.398 116 311.064 107 326.398 107 c 258
 343.997 107 l 258
 355.33 107 360.997 114 360.997 128 c 258
 360.997 414.998 l 257
 484.998 415 l 257
EndSplineSet
EndChar

StartChar: si_DhI
Encoding: 93 -1 93
GlifName: si_D_hI_
Width: 515
VWidth: 0
GlyphClass: 2
Flags: W
LayerCount: 2
Back
Fore
SplineSet
485 400 m 257
 361 400 l 257
 361 441 l 258
 361 449.667 359.167 455.667 355.5 459 c 256
 351.833 462.333 345 464 335 464 c 258
 69 464 l 258
 37.6667 464 22 480 22 512 c 258
 22 612 l 258
 22 634 26.5 649.5 35.5 658.5 c 256
 44.5 667.5 60 672 82 672 c 258
 484.001 672 l 257
 484 589 l 257
 165 590 l 258
 152.333 590 146 585.667 146 577 c 258
 146 568 l 258
 146 561.333 151.667 558 163 558 c 258
 416 558 l 258
 443.333 558 461.667 552 471 540 c 256
 480.333 528 485 507 485 477 c 258
 485 400 l 257
484.998 415 m 257
 484.998 49 l 258
 484.998 16.6827 471.396 -4.08988e-15 438 0 c 258
 301.803 0 l 258
 275.803 0 259.469 12.333 252.803 37 c 257
 249.629 16.3779 229.072 0 205.803 0 c 258
 69 0 l 258
 37.6096 0 22 15.0176 22 48 c 258
 22 361.008 l 258
 22 399.562 40.0205 426.008 81 426.008 c 258
 259.197 426.008 l 257
 259.198 318.407 l 257
 156 318.407 l 258
 149.064 318.407 146.004 314.699 146.004 308.606 c 258
 146.004 126 l 258
 146.004 113.333 152.337 107 165.004 107 c 258
 181.803 107 l 258
 196.469 107 203.803 115.333 203.803 132 c 258
 203.803 244.796 l 257
 303.398 244.796 l 257
 303.398 134 l 258
 303.398 116 311.064 107 326.398 107 c 258
 343.997 107 l 258
 355.33 107 360.997 114 360.997 128 c 258
 360.997 414.998 l 257
 484.998 415 l 257
EndSplineSet
EndChar

StartChar: si_DhIi
Encoding: 94 -1 94
GlifName: si_D_hI_i
Width: 515
VWidth: 0
GlyphClass: 2
Flags: W
LayerCount: 2
Back
Fore
SplineSet
361 405 m 257
 361 434 l 258
 361 452.191 343.683 464 325 464 c 258
 65 464 l 258
 35.1571 464 22 472.771 22 505 c 258
 22 618 l 258
 22 654.86 35.4108 672 72 672 c 258
 435 672 l 258
 471.588 672 485 654.858 485 618 c 258
 485 552 l 258
 485 529.838 468.868 512.774 450 509 c 257
 471.911 502.153 485 474.275 485 445 c 258
 485 405 l 257
 361 405 l 257
232 539 m 257
 224.066 543.656 221 547.826 221 564 c 258
 221 575 l 258
 221 581.855 221.142 584.018 224 587 c 257
 153 587 l 258
 141.667 587 136 582.333 136 573 c 258
 136 554 l 258
 136 544 141.333 539 152 539 c 258
 232 539 l 257
326 594 m 258
 317.619 594 313 588.388 313 581 c 258
 313 558 l 258
 313 547.623 322.201 543 331 543 c 258
 368 543 l 258
 379.682 543 388 549.518 388 564 c 258
 388 582 l 258
 388 591.396 381.685 594 377 594 c 258
 326 594 l 258
484.998 415 m 257
 484.998 49 l 258
 484.998 16.6827 471.396 -4.08988e-15 438 0 c 258
 301.803 0 l 258
 275.803 0 259.469 12.333 252.803 37 c 257
 249.629 16.3779 229.072 0 205.803 0 c 258
 69 0 l 258
 37.6096 0 22 15.0176 22 48 c 258
 22 361.008 l 258
 22 399.562 40.0205 426.008 81 426.008 c 258
 259.197 426.008 l 257
 259.198 318.407 l 257
 156 318.407 l 258
 149.064 318.407 146.004 314.699 146.004 308.606 c 258
 146.004 126 l 258
 146.004 113.333 152.337 107 165.004 107 c 258
 181.803 107 l 258
 196.469 107 203.803 115.333 203.803 132 c 258
 203.803 244.796 l 257
 303.398 244.796 l 257
 303.398 134 l 258
 303.398 116 311.064 107 326.398 107 c 258
 343.997 107 l 258
 355.33 107 360.997 114 360.997 128 c 258
 360.997 414.998 l 257
 484.998 415 l 257
EndSplineSet
EndChar

StartChar: si_DhRI
Encoding: 95 -1 95
GlifName: si_D_hR_I_
Width: 638
VWidth: 0
GlyphClass: 2
Flags: W
LayerCount: 2
Back
Fore
SplineSet
23.4004 -15.8076 m 257
 23.4004 -114.824 l 258
 23.4004 -144.818 40.3164 -159.021 67.4004 -159.021 c 258
 443 -159.021 l 258
 468.333 -159.021 484 -147.587 484 -116.021 c 258
 484 -15.8076 l 257
 359.995 -15.8076 l 257
 359.995 -35.0098 l 258
 359.995 -47.8877 359.279 -53.0107 346.399 -53.0107 c 258
 160.4 -53.0107 l 258
 149.067 -53.0107 147.405 -47.0107 147.405 -35.0107 c 258
 147.405 -15.8076 l 257
 23.4004 -15.8076 l 257
EndSplineSet
Refer: 93 -1 N 1 0 0 1 0 0 2
EndChar

StartChar: si_DhRIi
Encoding: 96 -1 96
GlifName: si_D_hR_I_i
Width: 638
VWidth: 0
GlyphClass: 2
Flags: W
LayerCount: 2
Back
Fore
SplineSet
23.4004 -15.8076 m 257
 23.4004 -114.824 l 258
 23.4004 -144.818 40.3164 -159.021 67.4004 -159.021 c 258
 443 -159.021 l 258
 468.333 -159.021 484 -147.587 484 -116.021 c 258
 484 -15.8076 l 257
 359.995 -15.8076 l 257
 359.995 -35.0098 l 258
 359.995 -47.8877 359.279 -53.0107 346.399 -53.0107 c 258
 160.4 -53.0107 l 258
 149.067 -53.0107 147.405 -47.0107 147.405 -35.0107 c 258
 147.405 -15.8076 l 257
 23.4004 -15.8076 l 257
EndSplineSet
Refer: 94 -1 N 1 0 0 1 0 0 2
EndChar

StartChar: si_DhRa
Encoding: 97 -1 97
GlifName: si_D_hR_a
Width: 515
VWidth: 0
GlyphClass: 2
Flags: W
LayerCount: 2
Back
Fore
SplineSet
23.4004 -15.8076 m 257
 23.4004 -114.824 l 258
 23.4004 -144.818 40.3164 -159.021 67.4004 -159.021 c 258
 443 -159.021 l 258
 468.333 -159.021 484 -147.587 484 -116.021 c 258
 484 -15.8076 l 257
 359.995 -15.8076 l 257
 359.995 -35.0098 l 258
 359.995 -47.8877 359.279 -53.0107 346.399 -53.0107 c 258
 160.4 -53.0107 l 258
 149.067 -53.0107 147.405 -47.0107 147.405 -35.0107 c 258
 147.405 -15.8076 l 257
 23.4004 -15.8076 l 257
EndSplineSet
Refer: 100 3504 N 1 0 0 1 0 0 2
EndChar

StartChar: si_Dha
Encoding: 100 3504 100
GlifName: si_D_ha
Width: 515
VWidth: 0
GlyphClass: 2
Flags: W
LayerCount: 2
Back
Fore
SplineSet
259.198 362.4 m 257
 156 362.4 l 258
 149.064 362.4 146.004 358.692 146.004 352.6 c 258
 146.004 126 l 258
 146.004 113.333 152.337 107 165.004 107 c 258
 181.803 107 l 258
 196.469 107 203.803 115.333 203.803 132 c 258
 203.803 244.796 l 257
 303.398 244.796 l 257
 303.398 134 l 258
 303.398 116 311.064 107 326.398 107 c 258
 343.997 107 l 258
 355.33 107 360.997 114 360.997 128 c 258
 360.997 479 l 258
 360.997 503.852 353.884 510 330 510 c 258
 22.001 510 l 257
 22.001 626 l 257
 412 626 l 258
 454.309 626 484.998 609.264 484.998 560 c 258
 484.998 50 l 258
 484.998 19.6379 471.396 -4.08988e-15 438 0 c 258
 301.803 0 l 258
 275.803 0 259.469 12.333 252.803 37 c 257
 249.629 16.3779 229.072 0 205.803 0 c 258
 69 0 l 258
 37.6096 0 22 15.0176 22 48 c 258
 22 405.001 l 258
 22 443.556 40.0205 470.001 81 470.001 c 258
 259.197 470.001 l 257
 259.198 362.4 l 257
EndSplineSet
EndChar

StartChar: si_Dha.reph
Encoding: 101 -1 101
GlifName: si_D_ha.reph
Width: 515
VWidth: 0
GlyphClass: 2
Flags: W
LayerCount: 2
Back
Fore
SplineSet
259.198 295 m 257
 156 295 l 258
 149.064 295 146.004 291.292 146.004 285.199 c 258
 146.004 126 l 258
 146.004 113.333 152.337 107 165.004 107 c 258
 181.803 107 l 258
 196.469 107 203.803 115.333 203.803 132 c 258
 203.803 244.796 l 257
 303.398 244.796 l 257
 303.398 134 l 258
 303.398 116 311.064 107 326.398 107 c 258
 343.997 107 l 258
 355.33 107 360.997 114 360.997 128 c 258
 360.997 411.6 l 258
 360.997 436.451 353.884 442.6 330 442.6 c 258
 22.001 442.6 l 257
 22.001 558.6 l 257
 412 558.6 l 258
 454.309 558.6 484.998 541.863 484.998 492.6 c 258
 484.998 50 l 258
 484.998 19.6377 471.396 -0 438 0 c 258
 301.803 0 l 258
 275.803 0 259.469 12.333 252.803 37 c 257
 249.629 16.3779 229.072 0 205.803 0 c 258
 69 0 l 258
 37.6094 0 22 15.0176 22 48 c 258
 22 337.601 l 258
 22 376.155 40.0205 402.601 81 402.601 c 258
 259.197 402.601 l 257
 259.198 295 l 257
213.593 628 m 257
 297.802 628 l 257
 297.802 590.188 l 258
 297.802 563.011 286.311 553.188 266.802 553.188 c 258
 94.8018 553.188 l 258
 68.332 553.188 54.8018 567.084 54.8018 599.188 c 258
 54.8018 669 l 258
 54.8018 697.736 72.0508 717 108.802 717 c 258
 393.802 717 l 258
 427.247 717 444.802 700.164 444.802 661 c 258
 444.802 575.198 l 257
 331.802 575.198 l 257
 331.802 630 l 258
 331.802 645.321 326.469 653 315.802 653 c 258
 182.802 653 l 258
 172.135 653 166.802 648.667 166.802 640 c 258
 166.802 612 l 258
 166.802 603.333 170.521 599 178.802 599 c 258
 200.802 599 l 258
 212.066 599 213.593 604.333 213.593 615 c 258
 213.593 628 l 257
EndSplineSet
EndChar

StartChar: si_E
Encoding: 104 3473 104
GlifName: si_E_
Width: 534
VWidth: 0
GlyphClass: 2
Flags: W
LayerCount: 2
Back
Fore
SplineSet
241.217 576 m 257
 241.217 527.199 l 258
 241.217 508.791 248.619 508.614 263 508.614 c 258
 377.198 508.614 l 257
 377.198 511.211 l 258
 377.198 519.211 367.985 522.988 361 526 c 258
 361 526 294.966 554.586 252 573 c 256
 249.296 574.166 245.026 576 243.198 576 c 258
 241.217 576 l 257
504 494 m 258
 504 51 l 258
 504 19.9499 486.854 -3.53366e-15 458 0 c 258
 86 0 l 258
 56.432 0 38 13.2377 38 44 c 258
 38 145 l 258
 38 175.599 51.5352 188.864 64.2021 196.197 c 257
 4 196.197 l 257
 4 286.795 l 257
 184.998 286.795 l 257
 184.998 308 l 258
 184.998 314.656 179.64 319 170.998 319 c 258
 41 319 l 257
 41 407 l 257
 249 407 l 258
 289.939 407 309 384.43 309 346 c 258
 309 189.799 l 257
 201 189.799 l 258
 174.971 189.799 162.002 177.919 162.002 159 c 258
 162.002 130 l 258
 162.002 113.813 165.731 107 186.398 107 c 258
 360.198 107 l 258
 372.865 107 379.198 113.667 379.198 127 c 258
 379.198 439.614 l 257
 177 439.614 l 258
 143.708 439.614 131.217 450.586 131.217 487 c 258
 131.217 577 l 257
 80.2168 577 l 257
 80.2168 664 l 257
 203 664 l 258
 234.19 664 245.697 663.544 288 645 c 256
 288.476 644.894 434 581 434 581 c 258
 470.407 565.041 504 545.567 504 494 c 258
EndSplineSet
EndChar

StartChar: si_Ee
Encoding: 105 3474 105
GlifName: si_E_e
Width: 534
VWidth: 0
GlyphClass: 2
Flags: W
LayerCount: 2
Back
Fore
SplineSet
388 708 m 257
 504 708 l 257
 504 480 l 257
 388.001 480 l 257
 388 708 l 257
EndSplineSet
Refer: 104 3473 N 1 0 0 1 0 0 2
EndChar

StartChar: si_FI
Encoding: 107 -1 107
GlifName: si_F_I_
Width: 564
VWidth: 0
GlyphClass: 2
Flags: W
LayerCount: 2
Back
Fore
SplineSet
24 511 m 257
 24 595.803 l 258
 24 625.797 40.916 640 68 640 c 258
 490.201 640 l 258
 515.534 640 531.201 628.565 531.201 597 c 258
 531.201 511 l 257
 407.196 511 l 257
 407.196 528 l 258
 407.196 540.878 406.48 546.001 393.601 546.001 c 258
 161 546.001 l 258
 149.667 546.001 148.005 540.001 148.005 528.001 c 258
 148.005 511 l 257
 24 511 l 257
EndSplineSet
Refer: 114 3526 N 1 0 0 1 0 0 2
EndChar

StartChar: si_FIi
Encoding: 108 -1 108
GlifName: si_F_I_i
Width: 564
VWidth: 0
GlyphClass: 2
Flags: W
LayerCount: 2
Back
Fore
SplineSet
382.589 582.198 m 258
 372.589 582.198 367.589 578.198 367.589 570.198 c 258
 367.589 562.011 l 258
 367.589 553.344 372.922 549.011 383.589 549.011 c 258
 424.589 549.011 l 258
 435.256 549.011 440.589 553.678 440.589 563.011 c 258
 440.589 570.198 l 258
 440.589 578.198 434.922 582.198 423.589 582.198 c 258
 382.589 582.198 l 258
160.995 546.001 m 258
 150.005 546 148 540.001 148 528.001 c 258
 148 511 l 257
 23.9951 511 l 257
 23.9951 595.803 l 258
 23.9951 625.797 40.2148 640.011 67.2051 640.011 c 258
 490.79 640.012 l 258
 518.27 640.012 532.589 626.66 532.589 600 c 258
 532.589 540.996 l 258
 532.589 521 522.587 510.996 502.589 510.996 c 258
 302.589 510.994 l 258
 279.313 510.994 274.589 520.251 274.589 531.996 c 258
 274.589 537.993 l 258
 274.589 542.524 275.406 545.002 276.988 545.993 c 257
 160.995 546.001 l 258
EndSplineSet
Refer: 114 3526 N 1 0 0 1 0 0 2
EndChar

StartChar: si_FRI
Encoding: 109 -1 109
GlifName: si_F_R_I_
Width: 564
VWidth: 0
GlyphClass: 2
Flags: W
LayerCount: 2
Back
Fore
SplineSet
23.4004 -15.8076 m 257
 147.405 -15.8076 l 257
 147.405 -35.0107 l 258
 147.405 -47.0107 149.067 -53.0107 160.4 -53.0107 c 258
 393.8 -53.0107 l 258
 406.68 -53.0107 407.396 -47.8877 407.396 -35.0098 c 258
 407.396 -15.8076 l 257
 531.4 -15.8076 l 257
 531.4 -116.021 l 258
 531.4 -147.587 515.733 -159.021 490.4 -159.021 c 258
 67.4004 -159.021 l 258
 40.3164 -159.021 23.4004 -144.818 23.4004 -114.824 c 258
 23.4004 -15.8076 l 257
EndSplineSet
Refer: 107 -1 N 1 0 0 1 0 0 2
EndChar

StartChar: si_FRIi
Encoding: 110 -1 110
GlifName: si_F_R_I_i
Width: 564
VWidth: 0
GlyphClass: 2
Flags: W
LayerCount: 2
Back
Fore
SplineSet
23.4004 -15.8076 m 257
 147.405 -15.8076 l 257
 147.405 -35.0107 l 258
 147.405 -47.0107 149.067 -53.0107 160.4 -53.0107 c 258
 393.8 -53.0107 l 258
 406.68 -53.0107 407.396 -47.8877 407.396 -35.0098 c 258
 407.396 -15.8076 l 257
 531.4 -15.8076 l 257
 531.4 -116.021 l 258
 531.4 -147.587 515.733 -159.021 490.4 -159.021 c 258
 67.4004 -159.021 l 258
 40.3164 -159.021 23.4004 -144.818 23.4004 -114.824 c 258
 23.4004 -15.8076 l 257
EndSplineSet
Refer: 108 -1 N 1 0 0 1 0 0 2
EndChar

StartChar: si_FRa
Encoding: 111 -1 111
GlifName: si_F_R_a
Width: 564
VWidth: 0
GlyphClass: 2
Flags: W
LayerCount: 2
Back
Fore
SplineSet
23.4004 -15.8076 m 257
 147.405 -15.8076 l 257
 147.405 -35.0107 l 258
 147.405 -47.0107 149.067 -53.0107 160.4 -53.0107 c 258
 393.8 -53.0107 l 258
 406.68 -53.0107 407.396 -47.8877 407.396 -35.0098 c 258
 407.396 -15.8076 l 257
 531.4 -15.8076 l 257
 531.4 -116.021 l 258
 531.4 -147.587 515.733 -159.021 490.4 -159.021 c 258
 67.4004 -159.021 l 258
 40.3164 -159.021 23.4004 -144.818 23.4004 -114.824 c 258
 23.4004 -15.8076 l 257
EndSplineSet
Refer: 114 3526 N 1 0 0 1 0 0 2
EndChar

StartChar: si_FU
Encoding: 112 -1 112
GlifName: si_F_U_
Width: 564
VWidth: 0
GlyphClass: 2
Flags: W
LayerCount: 2
Back
Fore
SplineSet
534 -159 m 257
 24.7168 -159 l 257
 24.7168 -53 l 257
 411 -53 l 257
 411 25 l 257
 483 25 l 258
 511.667 25 528.667 38 534 64 c 257
 534 -159 l 257
EndSplineSet
Refer: 114 3526 N 1 0 0 1 0 0 2
EndChar

StartChar: si_FUu
Encoding: 113 -1 113
GlifName: si_F_U_u
Width: 564
VWidth: 0
GlyphClass: 2
Flags: W
LayerCount: 2
Back
Fore
SplineSet
534.007 -158.999 m 257
 417.407 -158.999 l 257
 409.853 -151.036 401.94 -141.535 394.212 -136.201 c 256
 384.041 -129.182 372.521 -129.002 362.412 -129.002 c 257
 328.198 -129.002 l 257
 316.223 -129.002 306.627 -131.704 294.198 -136.803 c 257
 250.994 -153.804 l 257
 239.206 -158.021 227.201 -162.805 199.201 -162.805 c 258
 73.1992 -162.805 l 258
 40.7852 -162.805 25.1982 -150.575 25.1982 -122.002 c 258
 25.1982 -29.0029 l 257
 142.198 -29.0029 l 257
 142.198 -51.002 l 258
 142.198 -62.2861 147.066 -69.0029 159.003 -69.0029 c 258
 201.191 -69.0029 l 258
 214.191 -69.0029 230.336 -65.4404 247.19 -58.8008 c 257
 284.194 -46.001 l 257
 297.16 -40.6738 310.347 -39.002 325.994 -39.002 c 257
 364.421 -39.002 l 257
 374.382 -39.002 391.444 -39.1924 399.617 -45.002 c 256
 405.424 -49.1299 406.258 -50.2412 411.005 -55.002 c 257
 411.005 14 l 257
 489.007 14 l 258
 515.007 14 530.007 28 534.007 56 c 257
 534.007 -158.999 l 257
EndSplineSet
Refer: 114 3526 N 1 0 0 1 0 0 2
EndChar

StartChar: si_Fa
Encoding: 114 3526 114
GlifName: si_F_a
Width: 564
VWidth: 0
GlyphClass: 2
Flags: W
LayerCount: 2
Back
Fore
SplineSet
307.007 107 m 257
 388.408 107 l 258
 402.408 107 409.408 113.333 409.408 126 c 258
 409.408 370 l 258
 409.408 386 403.074 394 390.408 394 c 258
 352.809 394 l 258
 338.809 394 331.809 385.667 331.809 369 c 258
 331.809 167 l 257
 220.809 167 l 257
 220.809 368.003 l 258
 220.809 387.336 214.142 394 200.809 394 c 258
 166.811 394 l 258
 153.629 394 146.007 387.068 146.007 370.401 c 258
 146.007 126 l 258
 146.007 110.236 152.959 107 170.007 107 c 258
 246.007 107 l 257
 246.007 0 l 257
 73 0 l 258
 36.858 0 22 26.7744 22 62 c 258
 22 440.999 l 258
 22 467.418 37.9722 496.999 76.4004 496.999 c 258
 222.2 497 l 258
 259.078 497 272.213 485.666 278.213 462.999 c 257
 284.213 485.666 300.333 497 336 497 c 258
 480 497 l 258
 507.177 497 533.816 482.139 533.816 445 c 258
 533.816 61 l 258
 533.816 21.3639 510.408 -3.72388e-15 480 0 c 258
 307.007 0 l 257
 307.007 107 l 257
EndSplineSet
EndChar

StartChar: si_GDha
Encoding: 117 -1 117
GlifName: si_G_D_ha
Width: 890
VWidth: 0
GlyphClass: 2
Flags: W
LayerCount: 2
Back
Fore
SplineSet
22 436 m 258
 22 473.333 44.333 497 81 497 c 258
 196.781 496.999 l 257
 196.781 394 l 257
 169 393.998 l 258
 148.817 393.997 146 389.129 146 368.998 c 258
 146 128 l 258
 146 114 151.667 107 163 107 c 258
 214.186 107 l 258
 233.895 107 234.186 111.54 234.186 132 c 258
 234.186 196 l 258
 234.186 209.333 229.186 216 219.186 216 c 258
 205.186 216 l 257
 239 418.999 l 258
 245 452.999 269 469.999 311 469.999 c 258
 490.814 469.999 l 257
 415.814 362.999 l 257
 365 362.999 l 258
 351.667 362.999 343.667 357.332 341 345.999 c 258
 330.186 288 l 257
 332.936 287.928 l 258
 347.769 287.538 355.186 276.896 355.186 256 c 258
 355.186 60 l 258
 355.186 12.6074 335.785 -5.82927e-15 288.186 0 c 258
 74 0 l 258
 37.3613 0 22 24.0518 22 61 c 258
 22 436 l 258
EndSplineSet
Refer: 100 3504 N 1 0 0 1 373 0 2
EndChar

StartChar: si_Ga
Encoding: 126 3484 126
GlifName: si_G_a
Width: 592
VWidth: 0
GlyphClass: 2
Flags: W
LayerCount: 2
Back
Fore
SplineSet
196.781 496.999 m 257
 196.781 394 l 257
 169 393.998 l 258
 148.817 393.997 146 389.129 146 368.998 c 258
 146 128 l 258
 146 114 151.667 107 163 107 c 258
 214.186 107 l 258
 233.895 107 234.186 111.54 234.186 132 c 258
 234.186 196 l 258
 234.186 209.333 229.186 216 219.186 216 c 258
 205.186 216 l 257
 243.186 446 l 258
 249.186 480 273.186 497 315.186 497 c 258
 495 497 l 258
 541.224 497 562 479.952 562 434 c 258
 562 64 l 258
 562 15.29 548.134 0 499 0 c 258
 402 0 l 257
 402 107 l 257
 416 107 l 258
 436.64 107 438 112.033 438 133 c 258
 438 372 l 258
 438 384 432 390 420 390 c 258
 369.186 390 l 258
 355.853 390 347.853 384.333 345.186 373 c 258
 330.186 288 l 257
 332.936 287.928 l 258
 347.769 287.538 355.186 276.896 355.186 256 c 258
 355.186 60 l 258
 355.186 12.6074 335.785 -5.82927e-15 288.186 0 c 258
 74 0 l 258
 37.3613 0 22 24.0518 22 61 c 258
 22 436 l 258
 22 473.333 44.333 497 81 497 c 258
 196.781 496.999 l 257
EndSplineSet
EndChar

StartChar: si_Gh.halant
Encoding: 128 -1 128
GlifName: si_G_h.halant
Width: 564
VWidth: 0
GlyphClass: 2
Flags: W
LayerCount: 2
Back
Fore
SplineSet
408.798 492.396 m 257
 408.798 649 l 257
 533 649 l 257
 533 426 l 257
 528.333 433.333 512.918 462.636 501 470.791 c 256
 488.544 479.315 469.502 492.396 444 492.396 c 258
 408.798 492.396 l 257
EndSplineSet
Refer: 136 3485 N 1 0 0 1 0 0 2
EndChar

StartChar: si_GhI
Encoding: 129 -1 129
GlifName: si_G_hI_
Width: 564
VWidth: 0
GlyphClass: 2
Flags: W
LayerCount: 2
Back
Fore
SplineSet
24 511 m 257
 24 595.803 l 258
 24 625.797 40.916 640 68 640 c 258
 490.201 640 l 258
 515.534 640 531.201 628.565 531.201 597 c 258
 531.201 511 l 257
 407.196 511 l 257
 407.196 528 l 258
 407.196 540.878 406.48 546.001 393.601 546.001 c 258
 161 546.001 l 258
 149.667 546.001 148.005 540.001 148.005 528.001 c 258
 148.005 511 l 257
 24 511 l 257
EndSplineSet
Refer: 136 3485 N 1 0 0 1 0 0 2
EndChar

StartChar: si_GhIi
Encoding: 130 -1 130
GlifName: si_G_hI_i
Width: 564
VWidth: 0
GlyphClass: 2
Flags: W
LayerCount: 2
Back
Fore
SplineSet
383.994 582.198 m 258
 373.994 582.198 368.994 578.198 368.994 570.198 c 258
 368.994 562.011 l 258
 368.994 553.344 374.327 549.011 384.994 549.011 c 258
 425.994 549.011 l 258
 436.661 549.011 441.994 553.678 441.994 563.011 c 258
 441.994 570.198 l 258
 441.994 578.198 436.327 582.198 424.994 582.198 c 258
 383.994 582.198 l 258
160.397 546.001 m 258
 149.407 546 147.402 540.001 147.402 528.001 c 258
 147.402 511 l 257
 23.3975 511 l 257
 23.3975 595.803 l 258
 23.3975 625.797 39.6172 640.011 66.6074 640.011 c 258
 492.195 640.012 l 258
 519.675 640.012 533.994 626.66 533.994 600 c 258
 533.994 540.996 l 258
 533.994 521 523.992 510.996 503.994 510.996 c 258
 303.994 510.994 l 258
 280.719 510.994 275.994 520.251 275.994 531.996 c 258
 275.994 537.993 l 258
 275.994 542.524 276.812 545.002 278.394 545.993 c 257
 160.397 546.001 l 258
EndSplineSet
Refer: 136 3485 N 1 0 0 1 0 0 2
EndChar

StartChar: si_GhRI
Encoding: 131 -1 131
GlifName: si_G_hR_I_
Width: 565
VWidth: 0
GlyphClass: 2
Flags: W
LayerCount: 2
Back
Fore
SplineSet
23.4004 -15.8076 m 257
 23.4004 -114.824 l 258
 23.4004 -144.818 40.3164 -159.021 67.4004 -159.021 c 258
 490.4 -159.021 l 258
 515.733 -159.021 531.4 -147.587 531.4 -116.021 c 258
 531.4 -15.8076 l 257
 407.396 -15.8076 l 257
 407.396 -35.0098 l 258
 407.396 -47.8877 406.68 -53.0107 393.8 -53.0107 c 258
 160.4 -53.0107 l 258
 149.067 -53.0107 147.405 -47.0107 147.405 -35.0107 c 258
 147.405 -15.8076 l 257
 23.4004 -15.8076 l 257
EndSplineSet
Refer: 129 -1 N 1 0 0 1 0 0 2
EndChar

StartChar: si_GhRIi
Encoding: 132 -1 132
GlifName: si_G_hR_I_i
Width: 566
VWidth: 0
GlyphClass: 2
Flags: W
LayerCount: 2
Back
Fore
SplineSet
23.4004 -15.8076 m 257
 23.4004 -114.824 l 258
 23.4004 -144.818 40.3164 -159.021 67.4004 -159.021 c 258
 490.4 -159.021 l 258
 515.733 -159.021 531.4 -147.587 531.4 -116.021 c 258
 531.4 -15.8076 l 257
 407.396 -15.8076 l 257
 407.396 -35.0098 l 258
 407.396 -47.8877 406.68 -53.0107 393.8 -53.0107 c 258
 160.4 -53.0107 l 258
 149.067 -53.0107 147.405 -47.0107 147.405 -35.0107 c 258
 147.405 -15.8076 l 257
 23.4004 -15.8076 l 257
EndSplineSet
Refer: 130 -1 N 1 0 0 1 0 0 2
EndChar

StartChar: si_GhRa
Encoding: 133 -1 133
GlifName: si_G_hR_a
Width: 564
VWidth: 0
GlyphClass: 2
Flags: W
LayerCount: 2
Back
Fore
SplineSet
23.4004 -15.8076 m 257
 23.4004 -114.824 l 258
 23.4004 -144.818 40.3164 -159.021 67.4004 -159.021 c 258
 490.4 -159.021 l 258
 515.733 -159.021 531.4 -147.587 531.4 -116.021 c 258
 531.4 -15.8076 l 257
 407.396 -15.8076 l 257
 407.396 -35.0098 l 258
 407.396 -47.8877 406.68 -53.0107 393.8 -53.0107 c 258
 160.4 -53.0107 l 258
 149.067 -53.0107 147.405 -47.0107 147.405 -35.0107 c 258
 147.405 -15.8076 l 257
 23.4004 -15.8076 l 257
EndSplineSet
Refer: 136 3485 N 1 0 0 1 0 0 2
EndChar

StartChar: si_GhU
Encoding: 134 -1 134
GlifName: si_G_hU_
Width: 564
VWidth: 0
GlyphClass: 2
Flags: W
LayerCount: 2
Back
Fore
SplineSet
533.888 -159 m 257
 22 -159 l 257
 22 -53 l 257
 410.888 -53 l 257
 410.888 25 l 257
 482.888 25 l 258
 511.555 25 528.555 38 533.888 64 c 257
 533.888 -159 l 257
EndSplineSet
Refer: 136 3485 N 1 0 0 1 0 0 2
EndChar

StartChar: si_GhUu
Encoding: 135 -1 135
GlifName: si_G_hU_u
Width: 564
VWidth: 0
GlyphClass: 2
Flags: W
LayerCount: 2
Back
Fore
SplineSet
534.006 -158.999 m 257
 417.406 -158.999 l 257
 409.852 -151.036 401.939 -141.535 394.211 -136.201 c 256
 384.04 -129.182 372.52 -129.002 362.411 -129.002 c 257
 336.405 -129.002 l 257
 324.43 -129.002 312.596 -129.478 294 -137 c 257
 248 -153 l 257
 234.936 -157.679 217 -162.805 189 -162.805 c 258
 70.001 -162.805 l 258
 37.5869 -162.805 22 -150.575 22 -122.002 c 258
 22 -29.0029 l 257
 139 -29.0029 l 257
 139 -51.002 l 258
 139 -62.2861 143.868 -69.0029 155.805 -69.0029 c 258
 194.794 -69.0029 l 258
 207.794 -69.0029 226.387 -65.3271 244 -59 c 257
 279 -47 l 257
 298.456 -39.2598 318.554 -39.002 334.201 -39.002 c 257
 364.42 -39.002 l 257
 374.381 -39.002 391.443 -39.1924 399.616 -45.002 c 256
 405.423 -49.1299 406.257 -50.2412 411.004 -55.002 c 257
 411.004 14 l 257
 489.006 14 l 258
 515.006 14 530.006 28 534.006 56 c 257
 534.006 -158.999 l 257
EndSplineSet
Refer: 136 3485 N 1 0 0 1 0 0 2
EndChar

StartChar: si_Gha
Encoding: 136 3485 136
GlifName: si_G_ha
Width: 564
VWidth: 0
GlyphClass: 2
Flags: W
LayerCount: 2
Back
Fore
SplineSet
330.95 0 m 258
 302.2 0 278.95 20.8428 278.95 47 c 258
 278.95 131.199 l 258
 278.95 139.492 286.789 143.436 294.083 148 c 256
 300.326 151.906 306.17 156.269 306.357 164.201 c 258
 306.351 172 l 258
 306.345 180.38 301.938 181.996 294.755 181.996 c 258
 277.95 181.996 l 257
 261.195 181.996 l 258
 255.41 181.996 249.606 180.38 249.6 172 c 258
 249.593 164.201 l 258
 249.781 156.268 255.624 151.907 261.867 148 c 256
 269.161 143.436 277 139.492 277 131.199 c 258
 277 47 l 258
 277 20.8429 253.414 -3.47967e-15 225 0 c 258
 72 0 l 258
 34.9277 0 22 16.273 22 54 c 258
 22 218 l 258
 22 239.333 29.6667 253.667 45 261 c 257
 61.2198 283.302 40.8581 356 78 356 c 258
 168.05 356 l 257
 168.042 356.227 168 379 168 379 c 258
 168 389 161.333 394 148 394 c 258
 23 394 l 257
 23 497 l 257
 192 497 l 258
 230.669 497 264 480.766 264 443 c 258
 264 253 l 257
 169 253 l 258
 153.667 253 146 247.333 146 236 c 258
 146 130 l 258
 146 114.667 152 107 164 107 c 258
 196.801 107 l 258
 205.057 107 214.751 108.853 214.778 118.203 c 258
 214.801 121.729 l 258
 214.801 130.158 207.909 133.604 200.349 137 c 256
 191.166 141.126 180.997 145.178 180.997 158 c 258
 180.997 198.996 l 258
 180.997 214.996 190.41 222.996 207.005 222.996 c 258
 277.95 222.996 l 257
 348.945 222.996 l 258
 364.672 222.996 374.953 214.996 374.953 198.996 c 258
 374.953 158 l 258
 374.953 145.179 364.784 141.126 355.602 137 c 256
 348.041 133.604 341.149 130.158 341.149 121.729 c 258
 341.172 118.203 l 258
 341.199 108.853 351.2 107 359.149 107 c 258
 392 107 l 258
 404 107 410 114.667 410 130 c 258
 410 236 l 258
 410 247.333 402.333 253 387 253 c 258
 292 253 l 257
 291.999 443 l 258
 291.999 480.775 325.296 497 364 497 c 258
 533 497 l 257
 533 394 l 257
 409 394 l 258
 395 394 388 389 388 379 c 258
 388 356 l 257
 470 356 l 258
 513.529 356 534 339.26 534 296 c 258
 534 54 l 258
 534 16.2703 521 0 484 0 c 258
 330.95 0 l 258
-6 355.996 m 257
 88 355.996 l 257
 88 258.996 l 257
 -6 258.996 l 257
 -6 355.996 l 257
EndSplineSet
EndChar

StartChar: si_HU
Encoding: 143 -1 143
GlifName: si_H_U_
Width: 592
VWidth: 0
GlyphClass: 2
Flags: W
LayerCount: 2
Back
Fore
SplineSet
562 -159 m 257
 24 -159 l 257
 24 -53 l 257
 439 -53 l 257
 439 25 l 257
 511 25 l 258
 539.667 25 556.667 38 562 64 c 257
 562 -159 l 257
EndSplineSet
Refer: 145 3524 N 1 0 0 1 0 0 2
EndChar

StartChar: si_HUu
Encoding: 144 -1 144
GlifName: si_H_U_u
Width: 592
VWidth: 0
GlyphClass: 2
Flags: W
LayerCount: 2
Back
Fore
SplineSet
561.802 -158.999 m 257
 445.202 -158.999 l 257
 437.647 -151.036 429.735 -141.535 422.007 -136.201 c 256
 411.836 -129.182 400.315 -129.002 390.207 -129.002 c 257
 355.993 -129.002 l 257
 344.018 -129.002 334.422 -131.704 321.993 -136.803 c 257
 278.789 -153.804 l 257
 267.001 -158.021 254.996 -162.805 226.996 -162.805 c 258
 72.001 -162.805 l 258
 39.5869 -162.805 24 -150.575 24 -122.002 c 258
 24 -29.0029 l 257
 148.007 -29.0029 l 257
 148.007 -51.002 l 258
 148.007 -62.2861 152.875 -69.0029 164.812 -69.0029 c 258
 228.986 -69.0029 l 258
 241.986 -69.0029 258.131 -65.4404 274.985 -58.8008 c 257
 311.989 -46.001 l 257
 324.955 -40.6738 338.142 -39.002 353.789 -39.002 c 257
 392.216 -39.002 l 257
 402.177 -39.002 419.239 -39.1924 427.412 -45.002 c 256
 433.219 -49.1299 434.053 -50.2412 438.8 -55.002 c 257
 438.8 18.4043 l 257
 516.802 18.4043 l 258
 542.802 18.4043 557.802 32.4043 561.802 60.4043 c 257
 561.802 -158.999 l 257
EndSplineSet
Refer: 145 3524 N 1 0 0 1 0 0 2
EndChar

StartChar: si_Ha
Encoding: 145 3524 145
GlifName: si_H_a
Width: 592
VWidth: 0
GlyphClass: 2
Flags: W
LayerCount: 2
Back
Fore
SplineSet
146 128 m 258
 146 114 151.667 107 163 107 c 258
 229 107 l 258
 248.709 107 249 111.54 249 132 c 258
 249 196 l 258
 249 209.333 244 216 234 216 c 258
 220 216 l 257
 258 446 l 258
 264 480 288 497 330 497 c 258
 495 497 l 258
 541.224 497 562 479.952 562 434 c 258
 562 64 l 258
 562 15.29 548.134 0 499 0 c 258
 402 0 l 257
 402 107 l 257
 416 107 l 258
 436.64 107 438 112.033 438 133 c 258
 438 372 l 258
 438 384 432 390 420 390 c 258
 384 390 l 258
 370.667 390 362.667 384.333 360 373 c 258
 345 288 l 257
 347.75 287.928 l 258
 362.583 287.538 370 276.896 370 256 c 258
 370 60 l 258
 370 12.6074 350.6 0 303 0 c 258
 70 0 l 258
 33.3613 0 22 14.0518 22 51 c 258
 22 299 l 258
 22 336.333 40.333 355 77 355 c 258
 106 355 l 257
 106 377 l 258
 106 392.226 100.533 394 85 394 c 258
 22 394 l 257
 22 497 l 257
 125 497 l 258
 168.332 497 197.001 474.112 197.001 431 c 258
 197 253 l 257
 169 253 l 258
 148.818 253 146 248.131 146 228 c 258
 146 128 l 258
EndSplineSet
EndChar

StartChar: si_Halant
Encoding: 147 3530 147
GlifName: si_H_alant
Width: 2
VWidth: 0
GlyphClass: 2
Flags: W
LayerCount: 2
Back
Fore
SplineSet
-159.202 492.396 m 257
 -159.202 649 l 257
 -35 649 l 257
 -35 426 l 257
 -39.667 433.333 -55.082 462.636 -67 470.791 c 256
 -79.4561 479.315 -98.498 492.396 -124 492.396 c 258
 -159.202 492.396 l 257
EndSplineSet
EndChar

StartChar: si_I
Encoding: 148 3465 148
GlifName: si_I_
Width: 519
VWidth: 0
GlyphClass: 2
Flags: W
LayerCount: 2
Back
Fore
SplineSet
311.197 346 m 257
 311.197 206 l 258
 311.197 172.077 291.191 156 258 156 c 258
 78 156 l 258
 41.2336 156 22 172.981 22 210 c 258
 22 442 l 258
 22 476.486 43.9766 497 83.001 497 c 258
 428 497 l 258
 471.529 497 489.001 474.966 489.001 442 c 258
 489.001 122.996 l 258
 489.001 83.1543 466.443 66.2295 444 59.9961 c 257
 460 48.6631 472.001 33.9961 472.001 9.99609 c 258
 472.001 -99.0049 l 258
 472.001 -141.628 454.968 -159.005 416 -159.005 c 258
 46.2031 -159.005 l 257
 46.2031 -50.0049 l 257
 324 -50.0049 l 258
 343.751 -50.0049 348.001 -49.6621 348.001 -37.0049 c 258
 348.001 -12.999 l 258
 348.001 -4.33203 344.189 -7.1178e-05 324 0 c 258
 47.001 0.000976562 l 257
 47.001 107.001 l 257
 332.001 107.001 l 258
 354.001 107.001 365.001 117.334 365.001 138.001 c 258
 365.001 374 l 258
 365.001 387.333 359.001 394 347.001 394 c 258
 168.002 394 l 258
 153.335 394 146.002 388 146.002 376 c 258
 146.002 276.994 l 258
 146.002 261.564 148.775 256.994 162 256.994 c 258
 182.196 256.994 l 258
 196.521 256.994 199.197 260.994 199.197 276.994 c 258
 199.197 346 l 257
 311.197 346 l 257
EndSplineSet
EndChar

StartChar: si_Ii
Encoding: 149 3466 149
GlifName: si_I_i
Width: 451
VWidth: 0
GlyphClass: 2
Flags: W
LayerCount: 2
Back
Fore
SplineSet
22 48.2002 m 258
 22 11.8604 38.2246 0 67.6016 0 c 258
 365.8 0 l 258
 416.645 -6.22668e-15 421.001 32.0948 421.001 61 c 258
 421.001 438 l 258
 421.001 473.887 402.535 497 360 497 c 258
 212.001 497.001 l 257
 365.001 663.001 l 257
 222.001 663.001 l 257
 63.001 498.001 l 258
 39 474 22 453.477 22 430 c 258
 22 48.2002 l 258
146.006 367.001 m 258
 146.006 388.975 148.754 394.001 171.206 394.001 c 258
 272 394 l 258
 292.793 394 296.801 391.192 296.801 372.001 c 258
 296.801 133.194 l 258
 296.801 110.47 295.242 107 272 107 c 258
 169.601 107 l 258
 146.288 107 146.003 112.619 146 129.597 c 256
 146 129.666 146.006 367.001 146.006 367.001 c 258
21.9961 663.001 m 257
 123.996 663.001 l 257
 123.996 569.001 l 257
 21.9961 569.001 l 257
 21.9961 663.001 l 257
333.001 612.001 m 257
 435.001 612.001 l 257
 435.001 518.001 l 257
 333.001 518.001 l 257
 333.001 612.001 l 257
EndSplineSet
EndChar

StartChar: si_J.halant
Encoding: 150 -1 150
GlifName: si_J_.halant
Width: 513
VWidth: 0
GlyphClass: 2
Flags: W
LayerCount: 2
Back
Fore
SplineSet
72 0 m 258
 34.9248 0 22 16.2705 22 54 c 258
 22 300 l 258
 22 337.333 40.667 356 78 356 c 258
 124.781 356 l 257
 124.781 380 l 258
 124.781 389 119.448 394 108.781 394 c 258
 23 394 l 257
 23 497 l 257
 143.995 497 l 258
 182.651 497 215.995 480.761 215.995 443 c 258
 215.995 253 l 257
 167 253 l 258
 156 253 146 246.667 146 234 c 258
 146 129 l 258
 146 114.333 152 107 164 107 c 258
 343 107 l 258
 355 107 361 114.333 361 129 c 258
 361 234 l 258
 361 246.667 354 253 340 253 c 258
 242.995 253 l 257
 242.995 443 l 258
 242.995 480.766 276.326 497 314.995 497 c 258
 484 497 l 257
 484 394 l 257
 354.995 394 l 258
 344.328 394 338.995 389.333 338.995 380 c 258
 338.995 356 l 257
 429 356 l 258
 466.333 356 485 337.333 485 300 c 258
 485 54 l 258
 485 16.2734 472.072 0 435 0 c 258
 72 0 l 258
429 486 m 257
 291.999 486.4 l 257
 301.852 493.377 312.738 498.217 331 532 c 258
 391 643 l 257
 524 643 l 257
 465.996 524 l 258
 455.393 502.245 437.587 489.982 429 486 c 257
242.99 438 m 257
 242.99 656 l 257
 345.785 656 l 257
 345.785 437.204 l 257
 242.99 438 l 257
EndSplineSet
EndChar

StartChar: si_JI
Encoding: 151 -1 151
GlifName: si_J_I_
Width: 513
VWidth: 0
GlyphClass: 2
Flags: W
LayerCount: 2
Back
Fore
SplineSet
40 511.604 m 257
 163.408 511.604 l 257
 163.408 541 l 258
 163.408 553 169.074 559 180.408 559 c 258
 328 559 l 257
 373.803 642.99 l 257
 98.7979 642.989 l 258
 68.6699 642.989 40 624.453 40 590.99 c 258
 40 511.604 l 257
EndSplineSet
Refer: 158 3490 N 1 0 0 1 0 0 2
EndChar

StartChar: si_JIi
Encoding: 152 -1 152
GlifName: si_J_I_i
Width: 513
VWidth: 0
GlyphClass: 2
Flags: W
LayerCount: 2
Back
Fore
SplineSet
252.587 564 m 258
 252.587 546 l 258
 252.587 542 255.938 540 262.587 540 c 258
 290 540 l 258
 296 540 299 542.333 299 547 c 258
 299 564 l 258
 299 568.667 296 571 290 571 c 258
 261.587 571 l 258
 255.603 571 252.587 568.667 252.587 564 c 258
324 507 m 258
 218 507 l 258
 207 507 201 513 201 525 c 258
 201 559 l 257
 201 559 l 257
 172 559 l 258
 160.667 559 155 553 155 541 c 258
 155 507 l 257
 40 507 l 257
 40 600.792 l 258
 40 625.454 61.7109 644.792 86 644.792 c 258
 306 644.792 l 258
 331.432 644.792 350.113 631.85 350.188 599 c 258
 350.347 530 l 258
 350 517 337 507 324 507 c 258
EndSplineSet
Refer: 158 3490 N 1 0 0 1 0 0 2
EndChar

StartChar: si_JRI
Encoding: 153 -1 153
GlifName: si_J_R_I_
Width: 513
VWidth: 0
GlyphClass: 2
Flags: W
LayerCount: 2
Back
Fore
SplineSet
343 107 m 258
 355 107 361 114.333 361 129 c 258
 361 234 l 258
 361 246.667 354 253 340 253 c 258
 267 253 l 257
 267 443 l 258
 267 480.766 300.331 497 339 497 c 258
 484 497 l 257
 484 394 l 257
 379 394 l 258
 368.333 394 363 389.333 363 380 c 258
 363 356 l 257
 429 356 l 258
 466.333 356 485 337.333 485 300 c 258
 485 54 l 258
 485 16.2734 472.072 0 435 0 c 258
 72 0 l 258
 34.9248 0 22 16.2705 22 54 c 258
 22 300 l 258
 22 337.333 40.667 356 78 356 c 258
 144 356 l 257
 144 380 l 258
 144 389 138.667 394 128 394 c 258
 23 394 l 257
 23 497 l 257
 168 497 l 258
 206.656 497 240 480.761 240 443 c 258
 240 253 l 257
 167 253 l 258
 156 253 146 246.667 146 234 c 258
 146 129 l 258
 146 114.333 152 107 164 107 c 258
 343 107 l 258
21.9902 -15.8076 m 257
 21.9902 -114.824 l 258
 21.9902 -144.818 38.9062 -159.021 65.9902 -159.021 c 258
 443.802 -159.021 l 258
 469.135 -159.021 484.802 -147.587 484.802 -116.021 c 258
 484.802 -15.8076 l 257
 360.797 -15.8076 l 257
 360.797 -35.0098 l 258
 360.797 -47.8877 360.081 -53.0107 347.201 -53.0107 c 258
 158.99 -53.0107 l 258
 147.657 -53.0107 145.995 -47.0107 145.995 -35.0107 c 258
 145.995 -15.8076 l 257
 21.9902 -15.8076 l 257
40 511.604 m 257
 163.408 511.604 l 257
 163.408 541 l 258
 163.408 553 169.074 559 180.408 559 c 258
 328 559 l 257
 373.803 642.99 l 257
 98.7979 642.989 l 258
 68.6699 642.989 40 624.453 40 590.99 c 258
 40 511.604 l 257
429 486 m 257
 291.999 486.4 l 257
 301.851 493.377 313 498.099 331 532 c 258
 391 643.198 l 257
 524 643.198 l 257
 465.996 524 l 258
 455.539 502.185 437.587 489.982 429 486 c 257
EndSplineSet
EndChar

StartChar: si_JRIi
Encoding: 154 -1 154
GlifName: si_J_R_I_i
Width: 513
VWidth: 0
GlyphClass: 2
Flags: W
LayerCount: 2
Back
Fore
SplineSet
343 107 m 258
 355 107 361 114.333 361 129 c 258
 361 234 l 258
 361 246.667 354 253 340 253 c 258
 267 253 l 257
 267 443 l 258
 267 480.766 300.331 497 339 497 c 258
 484 497 l 257
 484 394 l 257
 379 394 l 258
 368.333 394 363 389.333 363 380 c 258
 363 356 l 257
 429 356 l 258
 466.333 356 485 337.333 485 300 c 258
 485 54 l 258
 485 16.2734 472.072 0 435 0 c 258
 72 0 l 258
 34.9248 0 22 16.2705 22 54 c 258
 22 300 l 258
 22 337.333 40.667 356 78 356 c 258
 144 356 l 257
 144 380 l 258
 144 389 138.667 394 128 394 c 258
 23 394 l 257
 23 497 l 257
 168 497 l 258
 206.656 497 240 480.761 240 443 c 258
 240 253 l 257
 167 253 l 258
 156 253 146 246.667 146 234 c 258
 146 129 l 258
 146 114.333 152 107 164 107 c 258
 343 107 l 258
324 507 m 258
 218 507 l 258
 207 507 201 513 201 525 c 258
 201 559 l 257
 201 559 l 257
 172 559 l 258
 160.667 559 155 553 155 541 c 258
 155 507 l 257
 40 507 l 257
 40 600.792 l 258
 40 625.454 61.7109 644.792 86 644.792 c 258
 306 644.792 l 258
 331.432 644.792 350.113 631.85 350.188 599 c 258
 350.347 530 l 258
 350 517 337 507 324 507 c 258
21.9902 -15.8076 m 257
 21.9902 -114.824 l 258
 21.9902 -144.818 38.9062 -159.021 65.9902 -159.021 c 258
 443.802 -159.021 l 258
 469.135 -159.021 484.802 -147.587 484.802 -116.021 c 258
 484.802 -15.8076 l 257
 360.797 -15.8076 l 257
 360.797 -35.0098 l 258
 360.797 -47.8877 360.081 -53.0107 347.201 -53.0107 c 258
 158.99 -53.0107 l 258
 147.657 -53.0107 145.995 -47.0107 145.995 -35.0107 c 258
 145.995 -15.8076 l 257
 21.9902 -15.8076 l 257
252.587 564 m 258
 252.587 546 l 258
 252.587 542 255.938 540 262.587 540 c 258
 290 540 l 258
 296 540 299 542.333 299 547 c 258
 299 564 l 258
 299 568.667 296 571 290 571 c 258
 261.587 571 l 258
 255.603 571 252.587 568.667 252.587 564 c 258
429 486 m 257
 291.999 486.4 l 257
 301.851 493.377 313 498.099 331 532 c 258
 391 643.198 l 257
 524 643.198 l 257
 465.996 524 l 258
 455.539 502.185 437.587 489.982 429 486 c 257
EndSplineSet
EndChar

StartChar: si_JRa
Encoding: 155 -1 155
GlifName: si_J_R_a
Width: 513
VWidth: 0
GlyphClass: 2
Flags: W
LayerCount: 2
Back
Fore
SplineSet
21.9902 -15.8076 m 257
 21.9902 -114.824 l 258
 21.9902 -144.818 38.9062 -159.021 65.9902 -159.021 c 258
 443.802 -159.021 l 258
 469.135 -159.021 484.802 -147.587 484.802 -116.021 c 258
 484.802 -15.8076 l 257
 360.797 -15.8076 l 257
 360.797 -35.0098 l 258
 360.797 -47.8877 360.081 -53.0107 347.201 -53.0107 c 258
 158.99 -53.0107 l 258
 147.657 -53.0107 145.995 -47.0107 145.995 -35.0107 c 258
 145.995 -15.8076 l 257
 21.9902 -15.8076 l 257
EndSplineSet
Refer: 158 3490 N 1 0 0 1 0 0 2
EndChar

StartChar: si_Ja
Encoding: 158 3490 158
GlifName: si_J_a
Width: 513
VWidth: 0
GlyphClass: 2
Flags: W
LayerCount: 2
Back
Fore
SplineSet
343 107 m 258
 355 107 361 114.333 361 129 c 258
 361 234 l 258
 361 246.667 354 253 340 253 c 258
 267 253 l 257
 267 443 l 258
 267 480.766 300.331 497 339 497 c 258
 484 497 l 257
 484 394 l 257
 379 394 l 258
 368.333 394 363 389.333 363 380 c 258
 363 356 l 257
 429 356 l 258
 466.333 356 485 337.333 485 300 c 258
 485 54 l 258
 485 16.273 472.072 0 435 0 c 258
 72 0 l 258
 34.9249 0 22 16.2703 22 54 c 258
 22 300 l 258
 22 337.333 40.6667 356 78 356 c 258
 144 356 l 257
 144 380 l 258
 144 389 138.667 394 128 394 c 258
 23 394 l 257
 23 497 l 257
 168 497 l 258
 206.656 497 240 480.761 240 443 c 258
 240 253 l 257
 167 253 l 258
 156 253 146 246.667 146 234 c 258
 146 129 l 258
 146 114.333 152 107 164 107 c 258
 343 107 l 258
429 486 m 257
 291.999 486.4 l 257
 301.851 493.377 313 498.099 331 532 c 258
 391 643.198 l 257
 524 643.198 l 257
 465.996 524 l 258
 455.539 502.185 437.587 489.982 429 486 c 257
EndSplineSet
EndChar

StartChar: si_Ja.reph
Encoding: 159 -1 159
GlifName: si_J_a.reph
Width: 513
VWidth: 0
GlyphClass: 2
Flags: W
LayerCount: 2
Back
Fore
SplineSet
154.405 618 m 257
 212.405 618 l 257
 212.405 552 l 258
 212.405 524.822 200.914 515 181.405 515 c 258
 63.1992 515 l 258
 36.7305 515 23.1992 528.896 23.1992 561 c 258
 23.1992 659 l 258
 23.1992 687.736 40.4482 707 77.1992 707 c 258
 286.8 707 l 258
 320.245 707 337.8 690.179 337.8 651 c 258
 337.8 518 l 257
 240.199 518 l 257
 240.199 620 l 258
 240.199 635.333 234.866 643 224.199 643 c 258
 143.033 643 l 258
 132.366 643 127.033 638.667 127.033 630 c 258
 127.033 602 l 258
 127.033 593.333 130.753 589 139.033 589 c 258
 141.614 589 l 258
 152.879 589 154.405 594.333 154.405 605 c 258
 154.405 618 l 257
EndSplineSet
Refer: 158 3490 N 1 0 0 1 0 0 2
EndChar

StartChar: si_Jh.halant
Encoding: 160 -1 160
GlifName: si_J_h.halant
Width: 912
VWidth: 0
GlyphClass: 2
Flags: W
LayerCount: 2
Back
Fore
SplineSet
881 400 m 257
 757 400 l 257
 757 441 l 258
 757 459.349 750.062 464 731 464 c 258
 425.196 464 l 257
 425 550 l 257
 484.412 550 l 257
 455.079 557.333 440.412 571.667 440.412 593 c 258
 440.412 632 l 258
 440.412 659.333 456.745 673 489.412 673 c 258
 879 673 l 257
 879 589 l 257
 596.412 589 l 258
 578.412 589 569.412 584.333 569.412 575 c 256
 569.412 565.227 577.338 558 587.412 558 c 258
 812 558 l 258
 867.441 558 881 533.687 881 477 c 258
 881 400 l 257
880.998 415 m 257
 880.998 49 l 258
 880.998 16.6826 867.396 0 834 0 c 258
 697.803 0 l 258
 671.803 0 655.469 12.333 648.803 37 c 257
 645.629 16.3779 625.072 0 601.803 0 c 258
 465 0 l 258
 433.609 0 418 15.0176 418 48 c 258
 418 326.606 l 258
 418 365.161 436.021 391.606 477 391.606 c 258
 598.999 391.606 l 257
 599 284.006 l 257
 552 284.006 l 258
 545.064 284.006 542.004 280.298 542.004 274.205 c 258
 542.004 126 l 258
 542.004 113.333 548.337 107 561.004 107 c 258
 577.803 107 l 258
 592.469 107 599.803 115.333 599.803 132 c 258
 599.803 244.796 l 257
 699.398 244.796 l 257
 699.398 134 l 258
 699.398 116 707.064 107 722.398 107 c 258
 739.997 107 l 258
 751.33 107 756.997 114 756.997 128 c 258
 756.997 414.998 l 257
 880.998 415 l 257
275.4 243 m 258
 275.4 255.665 270.4 262 260.4 262 c 258
 145 262 l 257
 115.399 236 l 257
 143.793 236 l 257
 143.996 222 l 257
 138.511 218.224 131.996 204.954 131.996 180.803 c 258
 131.996 127 l 258
 131.996 109.666 134.656 107 145.996 107 c 258
 154.397 107 l 258
 167.482 107 169.397 112.667 169.397 124.001 c 258
 169.397 188 l 257
 237.397 188 l 257
 237.397 126 l 258
 237.397 111.333 240.106 107 251.397 107 c 258
 262.4 107 l 258
 272.605 107 275.4 111.803 275.4 129.802 c 258
 275.4 243 l 258
11.9971 203.002 m 257
 11.9971 276.397 l 257
 11.9971 276.397 87.4082 342.001 130.608 380.401 c 257
 130.608 381.999 l 258
 130.608 391.229 119.919 393.972 107.012 394.002 c 258
 22 394.201 l 257
 22 497.201 l 257
 185.409 497.001 l 258
 217.092 496.963 221.005 469.791 221.005 461.599 c 258
 221.005 459.398 l 257
 243.6 475.202 l 258
 267.183 490.383 280.128 491.401 301 491.401 c 256
 308.069 491.401 335.533 486.575 351 481 c 258
 598.999 391.606 l 257
 433 350 l 256
 343 382.198 l 258
 331.382 386.588 315.375 391.201 309 391.201 c 256
 296.886 391.201 292.494 390.784 276.198 376.592 c 258
 251.407 355.001 l 257
 331.4 355.001 l 258
 363.213 355.001 384.4 337.696 384.4 298.001 c 258
 384.4 51.001 l 258
 384.4 14.9551 361.045 0.000976562 331.4 0.000976562 c 258
 241.397 0.000976562 l 258
 222.438 0.000976562 209.064 9.66797 204.397 29.002 c 257
 199.73 9.66797 183.09 0.000976562 165.397 0.000976562 c 258
 65.9961 0.000976562 l 258
 34.1328 0.000976562 22 19.8174 22 50.002 c 258
 22 140.201 l 258
 22 180.996 34.2734 195.266 48 203.002 c 257
 11.9971 203.002 l 257
EndSplineSet
EndChar

StartChar: si_JhI
Encoding: 161 -1 161
GlifName: si_J_hI_
Width: 912
VWidth: 0
GlyphClass: 2
Flags: W
LayerCount: 2
Back
Fore
SplineSet
11.9971 276.397 m 257
 11.9971 276.397 87.4082 342.001 130.608 380.401 c 257
 130.608 381.999 l 258
 130.608 391.229 119.919 393.972 107.012 394.002 c 258
 22 394.201 l 257
 22 497.201 l 257
 185.409 497.001 l 258
 217.092 496.963 221.005 469.791 221.005 461.599 c 258
 221.005 459.398 l 257
 243.6 475.202 l 258
 267.183 490.383 280.128 491.401 301 491.401 c 256
 308.069 491.401 335.533 486.575 351 481 c 258
 598.999 391.606 l 257
 433 350 l 256
 343 382.198 l 258
 331.382 386.588 315.375 391.201 309 391.201 c 256
 296.886 391.201 292.494 390.784 276.198 376.592 c 258
 251.407 355.001 l 257
 331.4 355.001 l 258
 363.213 355.001 384.4 337.696 384.4 298.001 c 258
 384.4 51.001 l 258
 384.4 14.9551 361.045 0.000976562 331.4 0.000976562 c 258
 241.397 0.000976562 l 258
 222.438 0.000976562 209.064 9.66797 204.397 29.002 c 257
 199.73 9.66797 183.09 0.000976562 165.397 0.000976562 c 258
 65.9961 0.000976562 l 258
 34.1328 0.000976562 22 19.8174 22 50.002 c 258
 22 140.201 l 258
 22 180.996 34.2734 195.266 48 203.002 c 257
 11.9971 203.002 l 257
 11.9971 276.397 l 257
880.998 415 m 257
 880.998 49 l 258
 880.998 16.6826 867.396 0 834 0 c 258
 697.803 0 l 258
 671.803 0 655.469 12.333 648.803 37 c 257
 645.629 16.3779 625.072 0 601.803 0 c 258
 465 0 l 258
 433.609 0 418 15.0176 418 48 c 258
 418 326.606 l 258
 418 365.161 436.021 391.606 477 391.606 c 258
 598.999 391.606 l 257
 599 284.006 l 257
 552 284.006 l 258
 545.064 284.006 542.004 280.298 542.004 274.205 c 258
 542.004 126 l 258
 542.004 113.333 548.337 107 561.004 107 c 258
 577.803 107 l 258
 592.469 107 599.803 115.333 599.803 132 c 258
 599.803 244.796 l 257
 699.398 244.796 l 257
 699.398 134 l 258
 699.398 116 707.064 107 722.398 107 c 258
 739.997 107 l 258
 751.33 107 756.997 114 756.997 128 c 258
 756.997 414.998 l 257
 880.998 415 l 257
275.4 243 m 258
 275.4 255.665 270.4 262 260.4 262 c 258
 145 262 l 257
 115.399 236 l 257
 143.793 236 l 257
 143.996 222 l 257
 138.511 218.224 131.996 204.954 131.996 180.803 c 258
 131.996 127 l 258
 131.996 109.666 134.656 107 145.996 107 c 258
 154.397 107 l 258
 167.482 107 169.397 112.667 169.397 124.001 c 258
 169.397 188 l 257
 237.397 188 l 257
 237.397 126 l 258
 237.397 111.333 240.106 107 251.397 107 c 258
 262.4 107 l 258
 272.605 107 275.4 111.803 275.4 129.802 c 258
 275.4 243 l 258
881 394 m 257
 757 394 l 257
 757 435 l 258
 757 443.667 755.167 449.667 751.5 453 c 256
 747.833 456.333 741 458 731 458 c 258
 465 458 l 258
 433.667 458 418 474 418 506 c 258
 418 606 l 258
 418 628 422.5 643.5 431.5 652.5 c 256
 440.5 661.5 456 666 478 666 c 258
 879 666 l 257
 880 583 l 257
 561 584 l 258
 548.333 584 542 579.667 542 571 c 258
 542 562 l 258
 542 555.333 547.667 552 559 552 c 258
 812 552 l 258
 839.333 552 857.667 546 867 534 c 256
 876.333 522 881 501 881 471 c 258
 881 394 l 257
EndSplineSet
EndChar

StartChar: si_JhIi
Encoding: 162 -1 162
GlifName: si_J_hI_i
Width: 912
VWidth: 0
GlyphClass: 2
Flags: W
LayerCount: 2
Back
Fore
SplineSet
756.999 405 m 257
 756.999 434 l 258
 756.999 452.19 739.682 464 720.999 464 c 258
 460.999 464 l 258
 431.156 464 417.999 472.771 417.999 505 c 258
 417.999 618 l 258
 417.999 654.859 431.41 672 467.999 672 c 258
 830.999 672 l 258
 867.587 672 880.999 654.858 880.999 618 c 258
 880.999 552 l 258
 880.999 529.838 864.867 512.773 845.999 509 c 257
 867.91 502.152 880.999 474.274 880.999 445 c 258
 880.999 405 l 257
 756.999 405 l 257
627.999 539 m 257
 620.065 543.655 616.999 547.826 616.999 564 c 258
 616.999 575 l 258
 616.999 581.855 617.141 584.019 619.999 587 c 257
 548.999 587 l 258
 537.666 587 531.999 582.333 531.999 573 c 258
 531.999 554 l 258
 531.999 544 537.332 539 547.999 539 c 258
 627.999 539 l 257
721.999 594 m 258
 713.618 594 708.999 588.388 708.999 581 c 258
 708.999 558 l 258
 708.999 547.623 718.2 543 726.999 543 c 258
 763.999 543 l 258
 775.682 543 783.999 549.519 783.999 564 c 258
 783.999 582 l 258
 783.999 591.396 777.684 594 772.999 594 c 258
 721.999 594 l 258
880.998 415 m 257
 880.998 49 l 258
 880.998 16.6826 867.396 0 834 0 c 258
 697.803 0 l 258
 671.803 0 655.469 12.333 648.803 37 c 257
 645.629 16.3779 625.072 0 601.803 0 c 258
 465 0 l 258
 433.609 0 418 15.0176 418 48 c 258
 418 326.606 l 258
 418 365.161 436.021 391.606 477 391.606 c 258
 598.999 391.606 l 257
 599 284.006 l 257
 552 284.006 l 258
 545.064 284.006 542.004 280.298 542.004 274.205 c 258
 542.004 126 l 258
 542.004 113.333 548.337 107 561.004 107 c 258
 577.803 107 l 258
 592.469 107 599.803 115.333 599.803 132 c 258
 599.803 244.796 l 257
 699.398 244.796 l 257
 699.398 134 l 258
 699.398 116 707.064 107 722.398 107 c 258
 739.997 107 l 258
 751.33 107 756.997 114 756.997 128 c 258
 756.997 414.998 l 257
 880.998 415 l 257
275.4 243 m 258
 275.4 255.665 270.4 262 260.4 262 c 258
 145 262 l 257
 115.399 236 l 257
 143.793 236 l 257
 143.996 222 l 257
 138.511 218.224 131.996 204.954 131.996 180.803 c 258
 131.996 127 l 258
 131.996 109.666 134.656 107 145.996 107 c 258
 154.397 107 l 258
 167.482 107 169.397 112.667 169.397 124.001 c 258
 169.397 188 l 257
 237.397 188 l 257
 237.397 126 l 258
 237.397 111.333 240.106 107 251.397 107 c 258
 262.4 107 l 258
 272.605 107 275.4 111.803 275.4 129.802 c 258
 275.4 243 l 258
11.9971 276.397 m 257
 11.9971 276.397 87.4082 342.001 130.608 380.401 c 257
 130.608 381.999 l 258
 130.608 391.229 119.919 393.972 107.012 394.002 c 258
 22 394.201 l 257
 22 497.201 l 257
 185.409 497.001 l 258
 217.092 496.963 221.005 469.791 221.005 461.599 c 258
 221.005 459.398 l 257
 243.6 475.202 l 258
 267.183 490.383 280.128 491.401 301 491.401 c 256
 308.069 491.401 335.533 486.575 351 481 c 258
 598.999 391.606 l 257
 433 350 l 256
 343 382.198 l 258
 331.382 386.588 315.375 391.201 309 391.201 c 256
 296.886 391.201 292.494 390.784 276.198 376.592 c 258
 251.407 355.001 l 257
 331.4 355.001 l 258
 363.213 355.001 384.4 337.696 384.4 298.001 c 258
 384.4 51.001 l 258
 384.4 14.9551 361.045 0.000976562 331.4 0.000976562 c 258
 241.397 0.000976562 l 258
 222.438 0.000976562 209.064 9.66797 204.397 29.002 c 257
 199.73 9.66797 183.09 0.000976562 165.397 0.000976562 c 258
 65.9961 0.000976562 l 258
 34.1328 0.000976562 22 19.8174 22 50.002 c 258
 22 140.201 l 258
 22 180.996 34.2734 195.266 48 203.002 c 257
 11.9971 203.002 l 257
 11.9971 276.397 l 257
EndSplineSet
EndChar

StartChar: si_JhRI
Encoding: 163 -1 163
GlifName: si_J_hR_I_
Width: 911
VWidth: 0
GlyphClass: 2
Flags: W
LayerCount: 2
Back
Fore
SplineSet
419.382 -15.8076 m 257
 419.382 -114.824 l 258
 419.382 -144.818 436.298 -159.021 463.382 -159.021 c 258
 839.792 -159.021 l 258
 865.125 -159.021 880.792 -147.587 880.792 -116.021 c 258
 880.792 -15.8076 l 257
 756.787 -15.8076 l 257
 756.787 -35.0098 l 258
 756.787 -47.8877 756.071 -53.0107 743.191 -53.0107 c 258
 556.382 -53.0107 l 258
 545.049 -53.0107 543.387 -47.0107 543.387 -35.0107 c 258
 543.387 -15.8076 l 257
 419.382 -15.8076 l 257
EndSplineSet
Refer: 161 -1 N 1 0 0 1 0 0 2
EndChar

StartChar: si_JhRIi
Encoding: 164 -1 164
GlifName: si_J_hR_I_i
Width: 911
VWidth: 0
GlyphClass: 2
Flags: W
LayerCount: 2
Back
Fore
SplineSet
419.382 -15.8076 m 257
 419.382 -114.824 l 258
 419.382 -144.818 436.298 -159.021 463.382 -159.021 c 258
 839.792 -159.021 l 258
 865.125 -159.021 880.792 -147.587 880.792 -116.021 c 258
 880.792 -15.8076 l 257
 756.787 -15.8076 l 257
 756.787 -35.0098 l 258
 756.787 -47.8877 756.071 -53.0107 743.191 -53.0107 c 258
 556.382 -53.0107 l 258
 545.049 -53.0107 543.387 -47.0107 543.387 -35.0107 c 258
 543.387 -15.8076 l 257
 419.382 -15.8076 l 257
EndSplineSet
Refer: 162 -1 N 1 0 0 1 0 0 2
EndChar

StartChar: si_JhRa
Encoding: 165 -1 165
GlifName: si_J_hR_a
Width: 917
VWidth: 0
GlyphClass: 2
Flags: W
LayerCount: 2
Back
Fore
SplineSet
425.588 -15.8076 m 257
 425.588 -114.824 l 258
 425.588 -144.818 442.504 -159.021 469.588 -159.021 c 258
 845.998 -159.021 l 258
 871.331 -159.021 886.998 -147.587 886.998 -116.021 c 258
 886.998 -15.8076 l 257
 762.993 -15.8076 l 257
 762.993 -35.0098 l 258
 762.993 -47.8877 762.277 -53.0107 749.397 -53.0107 c 258
 562.588 -53.0107 l 258
 551.255 -53.0107 549.593 -47.0107 549.593 -35.0107 c 258
 549.593 -15.8076 l 257
 425.588 -15.8076 l 257
EndSplineSet
Refer: 170 3491 N 1 0 0 1 0 0 2
EndChar

StartChar: si_JhU.reph
Encoding: 167 -1 167
GlifName: si_J_hU_.reph
Width: 912
VWidth: 0
GlyphClass: 2
Flags: W
LayerCount: 2
Back
Fore
SplineSet
11.9971 276.397 m 257
 11.9971 276.397 87.4082 342.001 130.608 380.401 c 257
 130.608 381.999 l 258
 130.608 391.229 119.919 393.972 107.012 394.002 c 258
 22 394.201 l 257
 22 497.201 l 257
 185.409 497.001 l 258
 217.092 496.963 221.005 469.791 221.005 461.599 c 258
 221.005 459.398 l 257
 243.6 475.202 l 258
 267.183 490.383 280.128 491.401 301 491.401 c 256
 308.069 491.401 335.533 486.575 351 481 c 258
 598.999 391.606 l 257
 433 350 l 256
 343 382.198 l 258
 331.382 386.588 315.375 391.201 309 391.201 c 256
 296.886 391.201 292.494 390.784 276.198 376.592 c 258
 251.407 355.001 l 257
 331.4 355.001 l 258
 363.213 355.001 384.4 337.696 384.4 298.001 c 258
 384.4 51.001 l 258
 384.4 14.9551 361.045 0.000976562 331.4 0.000976562 c 258
 241.397 0.000976562 l 258
 222.438 0.000976562 209.064 9.66797 204.397 29.002 c 257
 199.73 9.66797 183.09 0.000976562 165.397 0.000976562 c 258
 65.9961 0.000976562 l 258
 34.1328 0.000976562 22 19.8174 22 50.002 c 258
 22 140.201 l 258
 22 180.996 34.2734 195.266 48 203.002 c 257
 11.9971 203.002 l 257
 11.9971 276.397 l 257
598.196 284.79 m 257
 555.997 284.79 l 258
 549.062 284.79 546.001 281.082 546.001 274.989 c 258
 546.001 126 l 258
 546.001 113.333 552.334 107 565.001 107 c 258
 581.8 107 l 258
 596.466 107 603.8 115.333 603.8 132 c 258
 603.8 244.796 l 257
 703.396 244.796 l 257
 703.396 134 l 258
 703.396 116 711.062 107 726.396 107 c 258
 743.994 107 l 258
 755.327 107 760.994 114 760.994 128 c 258
 760.994 426 l 258
 760.994 450.852 753.881 457 729.997 457 c 258
 448 457 l 257
 448 558.6 l 257
 811.997 558.6 l 258
 854.306 558.6 884.995 541.863 884.995 492.6 c 258
 884.995 50 l 258
 884.995 19.6377 871.394 0 837.997 0 c 258
 701.8 0 l 258
 675.8 0 659.466 12.333 652.8 37 c 257
 649.626 16.3779 629.069 0 605.8 0 c 258
 468.997 0 l 258
 437.606 0 421.997 15.0176 421.997 48 c 258
 421.997 327.391 l 258
 421.997 365.945 440.018 392.391 480.997 392.391 c 258
 598.195 392.391 l 257
 598.196 284.79 l 257
631.178 628 m 257
 715.387 628 l 257
 715.387 590.188 l 258
 715.387 563.011 703.896 553.188 684.387 553.188 c 258
 512.387 553.188 l 258
 485.917 553.188 472.387 567.084 472.387 599.188 c 258
 472.387 669 l 258
 472.387 697.736 489.636 717 526.387 717 c 258
 811.387 717 l 258
 844.832 717 862.387 700.164 862.387 661 c 258
 862.387 575.198 l 257
 749.387 575.198 l 257
 749.387 630 l 258
 749.387 645.321 744.054 653 733.387 653 c 258
 600.387 653 l 258
 589.72 653 584.387 648.667 584.387 640 c 258
 584.387 612 l 258
 584.387 603.333 588.106 599 596.387 599 c 258
 618.387 599 l 258
 629.651 599 631.178 604.333 631.178 615 c 258
 631.178 628 l 257
275.4 243 m 258
 275.4 255.665 270.4 262 260.4 262 c 258
 145 262 l 257
 115.399 236 l 257
 143.793 236 l 257
 143.996 222 l 257
 138.511 218.224 131.996 204.954 131.996 180.803 c 258
 131.996 127 l 258
 131.996 109.666 134.656 107 145.996 107 c 258
 154.397 107 l 258
 167.482 107 169.397 112.667 169.397 124.001 c 258
 169.397 188 l 257
 237.397 188 l 257
 237.397 126 l 258
 237.397 111.333 240.106 107 251.397 107 c 258
 262.4 107 l 258
 272.605 107 275.4 111.803 275.4 129.802 c 258
 275.4 243 l 258
884.888 -159 m 257
 423.994 -159 l 257
 423.994 -53 l 257
 761.888 -53 l 257
 761.888 28.6035 l 257
 833.888 28.6035 l 258
 862.555 28.6035 879.555 41.6035 884.888 67.6035 c 257
 884.888 -159 l 257
EndSplineSet
EndChar

StartChar: si_JhUu.reph
Encoding: 169 -1 169
GlifName: si_J_hU_u.reph
Width: 912
VWidth: 0
GlyphClass: 2
Flags: W
LayerCount: 2
Back
Fore
SplineSet
11.9971 276.397 m 257
 11.9971 276.397 87.4082 342.001 130.608 380.401 c 257
 130.608 381.999 l 258
 130.608 391.229 119.919 393.972 107.012 394.002 c 258
 22 394.201 l 257
 22 497.201 l 257
 185.409 497.001 l 258
 217.092 496.963 221.005 469.791 221.005 461.599 c 258
 221.005 459.398 l 257
 243.6 475.202 l 258
 267.183 490.383 280.128 491.401 301 491.401 c 256
 308.069 491.401 335.533 486.575 351 481 c 258
 598.999 391.606 l 257
 433 350 l 256
 343 382.198 l 258
 331.382 386.588 315.375 391.201 309 391.201 c 256
 296.886 391.201 292.494 390.784 276.198 376.592 c 258
 251.407 355.001 l 257
 331.4 355.001 l 258
 363.213 355.001 384.4 337.696 384.4 298.001 c 258
 384.4 51.001 l 258
 384.4 14.9551 361.045 0.000976562 331.4 0.000976562 c 258
 241.397 0.000976562 l 258
 222.438 0.000976562 209.064 9.66797 204.397 29.002 c 257
 199.73 9.66797 183.09 0.000976562 165.397 0.000976562 c 258
 65.9961 0.000976562 l 258
 34.1328 0.000976562 22 19.8174 22 50.002 c 258
 22 140.201 l 258
 22 180.996 34.2734 195.266 48 203.002 c 257
 11.9971 203.002 l 257
 11.9971 276.397 l 257
598.196 284.79 m 257
 555.997 284.79 l 258
 549.062 284.79 546.001 281.082 546.001 274.989 c 258
 546.001 126 l 258
 546.001 113.333 552.334 107 565.001 107 c 258
 581.8 107 l 258
 596.466 107 603.8 115.333 603.8 132 c 258
 603.8 244.796 l 257
 703.396 244.796 l 257
 703.396 134 l 258
 703.396 116 711.062 107 726.396 107 c 258
 743.994 107 l 258
 755.327 107 760.994 114 760.994 128 c 258
 760.994 426 l 258
 760.994 450.852 753.881 457 729.997 457 c 258
 448 457 l 257
 448 558.6 l 257
 811.997 558.6 l 258
 854.306 558.6 884.995 541.863 884.995 492.6 c 258
 884.995 50 l 258
 884.995 19.6377 871.394 0 837.997 0 c 258
 701.8 0 l 258
 675.8 0 659.466 12.333 652.8 37 c 257
 649.626 16.3779 629.069 0 605.8 0 c 258
 468.997 0 l 258
 437.606 0 421.997 15.0176 421.997 48 c 258
 421.997 327.391 l 258
 421.997 365.945 440.018 392.391 480.997 392.391 c 258
 598.195 392.391 l 257
 598.196 284.79 l 257
631.178 628 m 257
 715.387 628 l 257
 715.387 590.188 l 258
 715.387 563.011 703.896 553.188 684.387 553.188 c 258
 512.387 553.188 l 258
 485.917 553.188 472.387 567.084 472.387 599.188 c 258
 472.387 669 l 258
 472.387 697.736 489.636 717 526.387 717 c 258
 811.387 717 l 258
 844.832 717 862.387 700.164 862.387 661 c 258
 862.387 575.198 l 257
 749.387 575.198 l 257
 749.387 630 l 258
 749.387 645.321 744.054 653 733.387 653 c 258
 600.387 653 l 258
 589.72 653 584.387 648.667 584.387 640 c 258
 584.387 612 l 258
 584.387 603.333 588.106 599 596.387 599 c 258
 618.387 599 l 258
 629.651 599 631.178 604.333 631.178 615 c 258
 631.178 628 l 257
275.4 243 m 258
 275.4 255.665 270.4 262 260.4 262 c 258
 145 262 l 257
 115.399 236 l 257
 143.793 236 l 257
 143.996 222 l 257
 138.511 218.224 131.996 204.954 131.996 180.803 c 258
 131.996 127 l 258
 131.996 109.666 134.656 107 145.996 107 c 258
 154.397 107 l 258
 167.482 107 169.397 112.667 169.397 124.001 c 258
 169.397 188 l 257
 237.397 188 l 257
 237.397 126 l 258
 237.397 111.333 240.106 107 251.397 107 c 258
 262.4 107 l 258
 272.605 107 275.4 111.803 275.4 129.802 c 258
 275.4 243 l 258
EndSplineSet
Refer: 258 3542 N 1 0 0 1 927 0 2
EndChar

StartChar: si_Jha
Encoding: 170 3491 170
GlifName: si_J_ha
Width: 917
VWidth: 0
GlyphClass: 2
Flags: W
LayerCount: 2
Back
Fore
SplineSet
11.9971 203.002 m 257
 11.9971 276.397 l 257
 11.9971 276.397 87.4082 342.001 130.608 380.401 c 257
 130.608 381.999 l 258
 130.608 391.229 119.919 393.972 107.012 394.002 c 258
 22 394.201 l 257
 22 497.201 l 257
 185.409 497.001 l 258
 217.092 496.963 221.005 469.791 221.005 461.599 c 258
 221.005 459.398 l 257
 243.6 475.202 l 258
 267.183 490.383 280.128 491.401 301 491.401 c 256
 308.069 491.401 329.488 489.309 346 487.201 c 258
 660.794 447.013 l 257
 440 377.201 l 256
 329.603 390.599 l 258
 326.478 391.041 319.48 391.8 316.603 391.8 c 256
 300.822 391.799 292.494 390.784 276.198 376.592 c 258
 251.407 355.001 l 257
 331.4 355.001 l 258
 363.213 355.001 384.4 337.696 384.4 298.001 c 258
 384.4 51.001 l 258
 384.4 14.9551 361.045 0.000976562 331.4 0.000976562 c 258
 241.397 0.000976562 l 258
 222.438 0.000976562 209.064 9.66797 204.397 29.002 c 257
 199.73 9.66797 183.09 0.000976562 165.397 0.000976562 c 258
 65.9961 0.000976562 l 258
 34.1328 0.000976562 22 19.8174 22 50.002 c 258
 22 140.201 l 258
 22 180.996 34.2734 195.266 48 203.002 c 257
 11.9971 203.002 l 257
275.4 243 m 258
 275.4 255.665 270.4 262 260.4 262 c 258
 145 262 l 257
 115.399 236 l 257
 143.793 236 l 257
 143.996 222 l 257
 138.511 218.224 131.996 204.954 131.996 180.803 c 258
 131.996 127 l 258
 131.996 109.666 134.656 107 145.996 107 c 258
 154.397 107 l 258
 167.482 107 169.397 112.667 169.397 124.001 c 258
 169.397 188 l 257
 237.397 188 l 257
 237.397 126 l 258
 237.397 111.333 240.106 107 251.397 107 c 258
 262.4 107 l 258
 272.605 107 275.4 111.803 275.4 129.802 c 258
 275.4 243 l 258
661.217 338.211 m 257
 558.019 338.211 l 258
 551.083 338.211 548.022 334.503 548.022 328.41 c 258
 548.022 126 l 258
 548.022 113.333 554.355 107 567.022 107 c 258
 583.821 107 l 258
 598.487 107 605.821 115.333 605.821 132 c 258
 605.821 244.796 l 257
 705.417 244.796 l 257
 705.417 134 l 258
 705.417 116 713.083 107 728.417 107 c 258
 746.016 107 l 258
 757.349 107 763.016 114 763.016 128 c 258
 763.016 479 l 258
 763.016 503.852 755.902 510 732.019 510 c 258
 424.02 510 l 257
 424.02 626 l 257
 814.019 626 l 258
 856.327 626 887.017 609.264 887.017 560 c 258
 887.017 50 l 258
 887.017 19.6377 873.415 0 840.019 0 c 258
 703.821 0 l 258
 677.821 0 661.487 12.333 654.821 37 c 257
 651.647 16.3779 631.091 0 607.821 0 c 258
 471.019 0 l 258
 439.628 0 424.019 15.0176 424.019 48 c 258
 424.019 371 l 258
 424.019 413.076 442.04 444.827 483.019 445.011 c 258
 661.216 445.812 l 257
 661.217 338.211 l 257
EndSplineSet
EndChar

StartChar: si_Jha.reph
Encoding: 171 -1 171
GlifName: si_J_ha.reph
Width: 912
VWidth: 0
GlyphClass: 2
Flags: W
LayerCount: 2
Back
Fore
SplineSet
11.9971 276.397 m 257
 11.9971 276.397 87.4082 342.001 130.608 380.401 c 257
 130.608 381.999 l 258
 130.608 391.229 119.919 393.972 107.012 394.002 c 258
 22 394.201 l 257
 22 497.201 l 257
 185.409 497.001 l 258
 217.092 496.963 221.005 469.791 221.005 461.599 c 258
 221.005 459.398 l 257
 243.6 475.202 l 258
 267.183 490.383 280.128 491.401 301 491.401 c 256
 308.069 491.401 335.533 486.575 351 481 c 258
 598.999 391.606 l 257
 433 350 l 256
 343 382.198 l 258
 331.382 386.588 315.375 391.201 309 391.201 c 256
 296.886 391.201 292.494 390.784 276.198 376.592 c 258
 251.407 355.001 l 257
 331.4 355.001 l 258
 363.213 355.001 384.4 337.696 384.4 298.001 c 258
 384.4 51.001 l 258
 384.4 14.9551 361.045 0.000976562 331.4 0.000976562 c 258
 241.397 0.000976562 l 258
 222.438 0.000976562 209.064 9.66797 204.397 29.002 c 257
 199.73 9.66797 183.09 0.000976562 165.397 0.000976562 c 258
 65.9961 0.000976562 l 258
 34.1328 0.000976562 22 19.8174 22 50.002 c 258
 22 140.201 l 258
 22 180.996 34.2734 195.266 48 203.002 c 257
 11.9971 203.002 l 257
 11.9971 276.397 l 257
598.196 284.79 m 257
 555.997 284.79 l 258
 549.062 284.79 546.001 281.082 546.001 274.989 c 258
 546.001 126 l 258
 546.001 113.333 552.334 107 565.001 107 c 258
 581.8 107 l 258
 596.466 107 603.8 115.333 603.8 132 c 258
 603.8 244.796 l 257
 703.396 244.796 l 257
 703.396 134 l 258
 703.396 116 711.062 107 726.396 107 c 258
 743.994 107 l 258
 755.327 107 760.994 114 760.994 128 c 258
 760.994 426 l 258
 760.994 450.852 753.881 457 729.997 457 c 258
 448 457 l 257
 448 558.6 l 257
 811.997 558.6 l 258
 854.306 558.6 884.995 541.863 884.995 492.6 c 258
 884.995 50 l 258
 884.995 19.6377 871.394 0 837.997 0 c 258
 701.8 0 l 258
 675.8 0 659.466 12.333 652.8 37 c 257
 649.626 16.3779 629.069 0 605.8 0 c 258
 468.997 0 l 258
 437.606 0 421.997 15.0176 421.997 48 c 258
 421.997 327.391 l 258
 421.997 365.945 440.018 392.391 480.997 392.391 c 258
 598.195 392.391 l 257
 598.196 284.79 l 257
631.178 628 m 257
 715.387 628 l 257
 715.387 590.188 l 258
 715.387 563.011 703.896 553.188 684.387 553.188 c 258
 512.387 553.188 l 258
 485.917 553.188 472.387 567.084 472.387 599.188 c 258
 472.387 669 l 258
 472.387 697.736 489.636 717 526.387 717 c 258
 811.387 717 l 258
 844.832 717 862.387 700.164 862.387 661 c 258
 862.387 575.198 l 257
 749.387 575.198 l 257
 749.387 630 l 258
 749.387 645.321 744.054 653 733.387 653 c 258
 600.387 653 l 258
 589.72 653 584.387 648.667 584.387 640 c 258
 584.387 612 l 258
 584.387 603.333 588.106 599 596.387 599 c 258
 618.387 599 l 258
 629.651 599 631.178 604.333 631.178 615 c 258
 631.178 628 l 257
275.4 243 m 258
 275.4 255.665 270.4 262 260.4 262 c 258
 145 262 l 257
 115.399 236 l 257
 143.793 236 l 257
 143.996 222 l 257
 138.511 218.224 131.996 204.954 131.996 180.803 c 258
 131.996 127 l 258
 131.996 109.666 134.656 107 145.996 107 c 258
 154.397 107 l 258
 167.482 107 169.397 112.667 169.397 124.001 c 258
 169.397 188 l 257
 237.397 188 l 257
 237.397 126 l 258
 237.397 111.333 240.106 107 251.397 107 c 258
 262.4 107 l 258
 272.605 107 275.4 111.803 275.4 129.802 c 258
 275.4 243 l 258
EndSplineSet
EndChar

StartChar: si_JnyAa
Encoding: 173 -1 173
GlifName: si_J_nyA_a
Width: 1011
VWidth: 0
GlyphClass: 2
Flags: W
LayerCount: 2
Back
Fore
SplineSet
588.001 394.004 m 257
 540.39 394.004 l 258
 527.057 394.004 519.057 388.337 516.39 377.004 c 258
 498.187 288 l 257
 500.937 287.928 l 258
 515.77 287.538 523.187 276.896 523.187 256 c 258
 523.187 60 l 258
 523.187 12.6074 503.786 0 456.187 0 c 258
 238.001 0 l 258
 201.362 0 190.001 14.0518 190.001 51 c 258
 190.001 440.999 l 258
 190.001 478.332 208.334 496.999 245.001 496.999 c 258
 364.782 496.999 l 257
 364.782 394 l 257
 337.001 393.998 l 258
 316.818 393.997 314.001 389.129 314.001 368.998 c 258
 314.001 128 l 258
 314.001 114 319.668 107 331.001 107 c 258
 382.187 107 l 258
 401.896 107 402.187 111.54 402.187 132 c 258
 402.187 196 l 258
 402.187 209.333 397.187 216 387.187 216 c 258
 373.187 216 l 257
 411.187 446 l 258
 417.187 480 441.187 497 483.187 497 c 258
 588 497 l 257
 588.001 394.004 l 257
158.998 398.001 m 258
 146.598 398.001 140.001 392 140.001 374 c 258
 140.001 0 l 257
 22 0 l 257
 22 406 l 258
 22 459.608 56.2471 497 108.4 497 c 258
 255.002 496.999 l 257
 202.001 398 l 257
 158.998 398.001 l 258
EndSplineSet
Refer: 46 -1 N 1 0 0 1 543 0 2
EndChar

StartChar: si_JnyAa.halant
Encoding: 174 -1 174
GlifName: si_J_nyA_a.halant
Width: 1164
VWidth: 0
GlyphClass: 2
Flags: W
LayerCount: 2
Back
Fore
SplineSet
588.001 394.004 m 257
 540.39 394.004 l 258
 527.057 394.004 519.057 388.337 516.39 377.004 c 258
 498.187 288 l 257
 500.937 287.928 l 258
 515.77 287.538 523.187 276.896 523.187 256 c 258
 523.187 60 l 258
 523.187 12.6074 503.786 0 456.187 0 c 258
 238.001 0 l 258
 201.362 0 190.001 14.0518 190.001 51 c 258
 190.001 440.999 l 258
 190.001 478.332 208.334 496.999 245.001 496.999 c 258
 364.782 496.999 l 257
 364.782 394 l 257
 337.001 393.998 l 258
 316.818 393.997 314.001 389.129 314.001 368.998 c 258
 314.001 128 l 258
 314.001 114 319.668 107 331.001 107 c 258
 382.187 107 l 258
 401.896 107 402.187 111.54 402.187 132 c 258
 402.187 196 l 258
 402.187 209.333 397.187 216 387.187 216 c 258
 373.187 216 l 257
 411.187 446 l 258
 417.187 480 441.187 497 483.187 497 c 258
 588 497 l 257
 588.001 394.004 l 257
158.998 398.001 m 258
 146.598 398.001 140.001 392 140.001 374 c 258
 140.001 0 l 257
 22 0 l 257
 22 406 l 258
 22 459.608 56.2471 497 108.4 497 c 258
 255.002 496.999 l 257
 202.001 398 l 257
 158.998 398.001 l 258
EndSplineSet
Refer: 47 -1 N 1 0 0 1 550 0 2
EndChar

StartChar: si_JnyAe
Encoding: 175 -1 175
GlifName: N_ameM_e.560
Width: 1074
VWidth: 0
GlyphClass: 2
Flags: W
LayerCount: 2
Back
Fore
SplineSet
588.001 394.004 m 257
 540.39 394.004 l 258
 527.057 394.004 519.057 388.337 516.39 377.004 c 258
 498.187 288 l 257
 500.937 287.928 l 258
 515.77 287.538 523.187 276.896 523.187 256 c 258
 523.187 60 l 258
 523.187 12.6074 503.786 0 456.187 0 c 258
 238.001 0 l 258
 201.362 0 190.001 14.0518 190.001 51 c 258
 190.001 440.999 l 258
 190.001 478.332 208.334 496.999 245.001 496.999 c 258
 364.782 496.999 l 257
 364.782 394 l 257
 337.001 393.998 l 258
 316.818 393.997 314.001 389.129 314.001 368.998 c 258
 314.001 128 l 258
 314.001 114 319.668 107 331.001 107 c 258
 382.187 107 l 258
 401.896 107 402.187 111.54 402.187 132 c 258
 402.187 196 l 258
 402.187 209.333 397.187 216 387.187 216 c 258
 373.187 216 l 257
 411.187 446 l 258
 417.187 480 441.187 497 483.187 497 c 258
 588 497 l 257
 588.001 394.004 l 257
158.998 398.001 m 258
 146.598 398.001 140.001 392 140.001 374 c 258
 140.001 0 l 257
 22 0 l 257
 22 406 l 258
 22 459.608 56.2471 497 108.4 497 c 258
 255.002 496.999 l 257
 202.001 398 l 257
 158.998 398.001 l 258
EndSplineSet
Refer: 49 -1 N 1 0 0 1 545 0 2
EndChar

StartChar: si_JnyAee
Encoding: 176 -1 176
GlifName: N_ameM_e.561
Width: 1074
VWidth: 0
GlyphClass: 2
Flags: W
LayerCount: 2
Back
Fore
SplineSet
588.001 394.004 m 257
 540.39 394.004 l 258
 527.057 394.004 519.057 388.337 516.39 377.004 c 258
 498.187 288 l 257
 500.937 287.928 l 258
 515.77 287.538 523.187 276.896 523.187 256 c 258
 523.187 60 l 258
 523.187 12.6074 503.786 0 456.187 0 c 258
 238.001 0 l 258
 201.362 0 190.001 14.0518 190.001 51 c 258
 190.001 440.999 l 258
 190.001 478.332 208.334 496.999 245.001 496.999 c 258
 364.782 496.999 l 257
 364.782 394 l 257
 337.001 393.998 l 258
 316.818 393.997 314.001 389.129 314.001 368.998 c 258
 314.001 128 l 258
 314.001 114 319.668 107 331.001 107 c 258
 382.187 107 l 258
 401.896 107 402.187 111.54 402.187 132 c 258
 402.187 196 l 258
 402.187 209.333 397.187 216 387.187 216 c 258
 373.187 216 l 257
 411.187 446 l 258
 417.187 480 441.187 497 483.187 497 c 258
 588 497 l 257
 588.001 394.004 l 257
158.998 398.001 m 258
 146.598 398.001 140.001 392 140.001 374 c 258
 140.001 0 l 257
 22 0 l 257
 22 406 l 258
 22 459.608 56.2471 497 108.4 497 c 258
 255.002 496.999 l 257
 202.001 398 l 257
 158.998 398.001 l 258
EndSplineSet
Refer: 48 -1 N 1 0 0 1 548 0 2
EndChar

StartChar: si_JnyI
Encoding: 177 -1 177
GlifName: si_J_nyI_
Width: 1011
VWidth: 0
GlyphClass: 2
Flags: W
LayerCount: 2
Back
Fore
SplineSet
450.99 511 m 257
 450.99 595.803 l 258
 450.99 625.797 467.906 640 494.99 640 c 258
 933 640 l 258
 958.333 640 974 628.565 974 597 c 258
 974 511 l 257
 849.995 511 l 257
 849.995 528 l 258
 849.995 540.878 849.279 546.001 836.399 546.001 c 258
 587.99 546.001 l 258
 576.657 546.001 574.995 540.001 574.995 528.001 c 258
 574.995 511 l 257
 450.99 511 l 257
EndSplineSet
Refer: 184 3493 N 1 0 0 1 0 0 2
EndChar

StartChar: si_JnyIi
Encoding: 178 -1 178
GlifName: si_J_nyI_i
Width: 1011
VWidth: 0
GlyphClass: 2
Flags: W
LayerCount: 2
Back
Fore
SplineSet
825.999 582.198 m 258
 815.999 582.198 810.999 578.198 810.999 570.198 c 258
 810.999 562.011 l 258
 810.999 553.344 816.332 549.011 826.999 549.011 c 258
 867.999 549.011 l 258
 878.666 549.011 883.999 553.678 883.999 563.011 c 258
 883.999 570.198 l 258
 883.999 578.198 878.332 582.198 866.999 582.198 c 258
 825.999 582.198 l 258
589.99 546.001 m 258
 579 546 576.995 540.001 576.995 528.001 c 258
 576.995 511 l 257
 452.99 511 l 257
 452.99 595.803 l 258
 452.99 625.797 469.21 640.011 496.2 640.011 c 258
 934.2 640.012 l 258
 961.68 640.012 975.999 626.661 975.999 600 c 258
 975.999 540.996 l 258
 975.999 521 965.997 510.996 945.999 510.996 c 258
 745.999 510.994 l 258
 722.724 510.994 717.999 520.251 717.999 531.996 c 258
 717.999 537.993 l 258
 717.999 542.524 718.816 545.002 720.398 545.993 c 257
 589.99 546.001 l 258
EndSplineSet
Refer: 184 3493 N 1 0 0 1 0 0 2
EndChar

StartChar: si_JnyRI
Encoding: 179 -1 179
GlifName: si_J_nyR_I_
Width: 999
VWidth: 0
GlyphClass: 2
Flags: W
LayerCount: 2
Back
Fore
SplineSet
588.001 394.004 m 257
 540.39 394.004 l 258
 527.057 394.004 519.057 388.337 516.39 377.004 c 258
 498.187 288 l 257
 500.937 287.928 l 258
 515.77 287.538 523.187 276.896 523.187 256 c 258
 523.187 60 l 258
 523.187 12.6074 503.786 0 456.187 0 c 258
 238.001 0 l 258
 201.362 0 190.001 14.0518 190.001 51 c 258
 190.001 440.999 l 258
 190.001 478.332 208.334 496.999 245.001 496.999 c 258
 364.782 496.999 l 257
 364.782 394 l 257
 337.001 393.998 l 258
 316.818 393.997 314.001 389.129 314.001 368.998 c 258
 314.001 128 l 258
 314.001 114 319.668 107 331.001 107 c 258
 382.187 107 l 258
 401.896 107 402.187 111.54 402.187 132 c 258
 402.187 196 l 258
 402.187 209.333 397.187 216 387.187 216 c 258
 373.187 216 l 257
 411.187 446 l 258
 417.187 480 441.187 497 483.187 497 c 258
 588 497 l 257
 588.001 394.004 l 257
968 0.000976562 m 257
 605.2 0 l 258
 571.2 0 561 17.9258 561 49.5996 c 258
 561 298 l 258
 561 338.657 582.106 355 619 355 c 258
 840 355 l 257
 839.999 378 l 258
 839.998 391.308 835.338 394.001 826.005 394.001 c 258
 561 394.001 l 257
 561 497.001 l 257
 911 497 l 258
 944.565 497 964 480.913 964 444 c 258
 964 253.001 l 257
 707 253 l 258
 690.333 253 685 245.668 685 231.001 c 258
 685 133.001 l 258
 685 113.159 690.048 107 705.2 107 c 258
 968 107.001 l 257
 968 0.000976562 l 257
561.199 -15.8076 m 257
 685.204 -15.8076 l 257
 685.204 -34.8105 l 258
 685.204 -46.8105 686.866 -52.8105 698.199 -52.8105 c 258
 830.199 -52.8105 l 258
 843.079 -52.8105 843.795 -47.6875 843.795 -34.8096 c 258
 843.795 12 l 257
 967.8 12 l 257
 967.8 -115.821 l 258
 967.8 -147.387 952.133 -158.821 926.8 -158.821 c 258
 605.199 -158.821 l 258
 578.115 -158.821 561.199 -144.618 561.199 -114.624 c 258
 561.199 -15.8076 l 257
561.182 511 m 257
 561.182 595.803 l 258
 561.182 625.797 578.098 640 605.182 640 c 258
 922 640 l 258
 947.333 640 963 628.565 963 597 c 258
 963 511 l 257
 838.995 511 l 257
 838.995 528 l 258
 838.995 540.878 838.279 546.001 825.399 546.001 c 258
 698.182 546.001 l 258
 686.849 546.001 685.187 540.001 685.187 528.001 c 258
 685.187 511 l 257
 561.182 511 l 257
158.998 398.001 m 258
 146.598 398.001 140.001 392 140.001 374 c 258
 140.001 0 l 257
 22 0 l 257
 22 406 l 258
 22 459.609 56.2471 497 108.4 497 c 258
 255.002 496.999 l 257
 202.001 398 l 257
 158.998 398.001 l 258
EndSplineSet
EndChar

StartChar: si_JnyRIi
Encoding: 180 -1 180
GlifName: si_J_nyR_I_i
Width: 999
VWidth: 0
GlyphClass: 2
Flags: W
LayerCount: 2
Back
Fore
SplineSet
588.001 394.004 m 257
 540.39 394.004 l 258
 527.057 394.004 519.057 388.337 516.39 377.004 c 258
 498.187 288 l 257
 500.937 287.928 l 258
 515.77 287.538 523.187 276.896 523.187 256 c 258
 523.187 60 l 258
 523.187 12.6074 503.786 0 456.187 0 c 258
 238.001 0 l 258
 201.362 0 190.001 14.0518 190.001 51 c 258
 190.001 440.999 l 258
 190.001 478.332 208.334 496.999 245.001 496.999 c 258
 364.782 496.999 l 257
 364.782 394 l 257
 337.001 393.998 l 258
 316.818 393.997 314.001 389.129 314.001 368.998 c 258
 314.001 128 l 258
 314.001 114 319.668 107 331.001 107 c 258
 382.187 107 l 258
 401.896 107 402.187 111.54 402.187 132 c 258
 402.187 196 l 258
 402.187 209.333 397.187 216 387.187 216 c 258
 373.187 216 l 257
 411.187 446 l 258
 417.187 480 441.187 497 483.187 497 c 258
 588 497 l 257
 588.001 394.004 l 257
968 0.000976562 m 257
 605.2 0 l 258
 571.2 0 561 17.9258 561 49.5996 c 258
 561 298 l 258
 561 338.657 582.106 355 619 355 c 258
 840 355 l 257
 839.999 378 l 258
 839.998 391.308 835.338 394.001 826.005 394.001 c 258
 561 394.001 l 257
 561 497.001 l 257
 911 497 l 258
 944.565 497 964 480.913 964 444 c 258
 964 253.001 l 257
 707 253 l 258
 690.333 253 685 245.668 685 231.001 c 258
 685 133.001 l 258
 685 113.159 690.048 107 705.2 107 c 258
 968 107.001 l 257
 968 0.000976562 l 257
700.191 553.809 m 258
 689.201 553.808 687.196 547.809 687.196 535.809 c 258
 687.196 511 l 257
 563.191 511 l 257
 563.191 595.803 l 258
 563.191 625.797 579.411 640.011 606.401 640.011 c 258
 921.2 640.012 l 258
 948.68 640.012 963.199 626.66 963.199 600 c 258
 963.199 540.996 l 258
 963.199 521 953.197 510.996 933.199 510.996 c 258
 752.418 510.994 l 258
 729.143 510.994 724.418 520.251 724.418 531.996 c 258
 724.418 545.801 l 258
 724.418 550.332 725.235 552.81 726.817 553.801 c 257
 700.191 553.809 l 258
561.199 -15.8076 m 257
 685.204 -15.8076 l 257
 685.204 -34.8105 l 258
 685.204 -46.8105 686.866 -52.8105 698.199 -52.8105 c 258
 830.199 -52.8105 l 258
 843.079 -52.8105 843.795 -47.6875 843.795 -34.8096 c 258
 843.795 12 l 257
 967.8 12 l 257
 967.8 -115.821 l 258
 967.8 -147.387 952.133 -158.821 926.8 -158.821 c 258
 605.199 -158.821 l 258
 578.115 -158.821 561.199 -144.618 561.199 -114.624 c 258
 561.199 -15.8076 l 257
158.998 398.001 m 258
 146.598 398.001 140.001 392 140.001 374 c 258
 140.001 0 l 257
 22 0 l 257
 22 406 l 258
 22 459.609 56.2471 497 108.4 497 c 258
 255.002 496.999 l 257
 202.001 398 l 257
 158.998 398.001 l 258
832.418 582.198 m 258
 822.418 582.198 817.418 578.198 817.418 570.198 c 258
 817.418 562.011 l 258
 817.418 553.344 822.751 549.011 833.418 549.011 c 258
 855.199 549.011 l 258
 865.866 549.011 871.199 553.678 871.199 563.011 c 258
 871.199 570.198 l 258
 871.199 578.198 865.532 582.198 854.199 582.198 c 258
 832.418 582.198 l 258
EndSplineSet
EndChar

StartChar: si_JnyRa
Encoding: 181 -1 181
GlifName: si_J_nyR_a
Width: 999
VWidth: 0
GlyphClass: 2
Flags: W
LayerCount: 2
Back
Fore
SplineSet
588.001 394.004 m 257
 540.39 394.004 l 258
 527.057 394.004 519.057 388.337 516.39 377.004 c 258
 498.187 288 l 257
 500.937 287.928 l 258
 515.77 287.538 523.187 276.896 523.187 256 c 258
 523.187 60 l 258
 523.187 12.6074 503.786 0 456.187 0 c 258
 238.001 0 l 258
 201.362 0 190.001 14.0518 190.001 51 c 258
 190.001 440.999 l 258
 190.001 478.332 208.334 496.999 245.001 496.999 c 258
 364.782 496.999 l 257
 364.782 394 l 257
 337.001 393.998 l 258
 316.818 393.997 314.001 389.129 314.001 368.998 c 258
 314.001 128 l 258
 314.001 114 319.668 107 331.001 107 c 258
 382.187 107 l 258
 401.896 107 402.187 111.54 402.187 132 c 258
 402.187 196 l 258
 402.187 209.333 397.187 216 387.187 216 c 258
 373.187 216 l 257
 411.187 446 l 258
 417.187 480 441.187 497 483.187 497 c 258
 588 497 l 257
 588.001 394.004 l 257
158.998 398.001 m 258
 146.598 398.001 140.001 392 140.001 374 c 258
 140.001 0 l 257
 22 0 l 257
 22 406 l 258
 22 459.609 56.2471 497 108.4 497 c 258
 255.002 496.999 l 257
 202.001 398 l 257
 158.998 398.001 l 258
EndSplineSet
Refer: 60 -1 N 1 0 0 1 539 0 2
EndChar

StartChar: si_JnyU
Encoding: 182 -1 182
GlifName: si_J_nyU_
Width: 998
VWidth: 0
GlyphClass: 2
Flags: W
LayerCount: 2
Back
Fore
SplineSet
588.001 394.004 m 257
 540.39 394.004 l 258
 527.057 394.004 519.057 388.337 516.39 377.004 c 258
 498.187 288 l 257
 500.937 287.928 l 258
 515.77 287.538 523.187 276.896 523.187 256 c 258
 523.187 60 l 258
 523.187 12.6074 503.786 0 456.187 0 c 258
 238.001 0 l 258
 201.362 0 190.001 14.0518 190.001 51 c 258
 190.001 440.999 l 258
 190.001 478.332 208.334 496.999 245.001 496.999 c 258
 364.782 496.999 l 257
 364.782 394 l 257
 337.001 393.998 l 258
 316.818 393.997 314.001 389.129 314.001 368.998 c 258
 314.001 128 l 258
 314.001 114 319.668 107 331.001 107 c 258
 382.187 107 l 258
 401.896 107 402.187 111.54 402.187 132 c 258
 402.187 196 l 258
 402.187 209.333 397.187 216 387.187 216 c 258
 373.187 216 l 257
 411.187 446 l 258
 417.187 480 441.187 497 483.187 497 c 258
 588 497 l 257
 588.001 394.004 l 257
158.998 398.001 m 258
 146.598 398.001 140.001 392 140.001 374 c 258
 140.001 0 l 257
 22 0 l 257
 22 406 l 258
 22 459.609 56.2471 497 108.4 497 c 258
 255.002 496.999 l 257
 202.001 398 l 257
 158.998 398.001 l 258
EndSplineSet
Refer: 61 -1 N 1 0 0 1 539 0 2
EndChar

StartChar: si_JnyUu
Encoding: 183 -1 183
GlifName: si_J_nyU_u
Width: 998
VWidth: 0
GlyphClass: 2
Flags: W
LayerCount: 2
Back
Fore
SplineSet
588.001 394.004 m 257
 540.39 394.004 l 258
 527.057 394.004 519.057 388.337 516.39 377.004 c 258
 498.187 288 l 257
 500.937 287.928 l 258
 515.77 287.538 523.187 276.896 523.187 256 c 258
 523.187 60 l 258
 523.187 12.6074 503.786 0 456.187 0 c 258
 238.001 0 l 258
 201.362 0 190.001 14.0518 190.001 51 c 258
 190.001 440.999 l 258
 190.001 478.332 208.334 496.999 245.001 496.999 c 258
 364.782 496.999 l 257
 364.782 394 l 257
 337.001 393.998 l 258
 316.818 393.997 314.001 389.129 314.001 368.998 c 258
 314.001 128 l 258
 314.001 114 319.668 107 331.001 107 c 258
 382.187 107 l 258
 401.896 107 402.187 111.54 402.187 132 c 258
 402.187 196 l 258
 402.187 209.333 397.187 216 387.187 216 c 258
 373.187 216 l 257
 411.187 446 l 258
 417.187 480 441.187 497 483.187 497 c 258
 588 497 l 257
 588.001 394.004 l 257
158.998 398.001 m 258
 146.598 398.001 140.001 392 140.001 374 c 258
 140.001 0 l 257
 22 0 l 257
 22 406 l 258
 22 459.609 56.2471 497 108.4 497 c 258
 255.002 496.999 l 257
 202.001 398 l 257
 158.998 398.001 l 258
EndSplineSet
Refer: 62 -1 N 1 0 0 1 539 0 2
EndChar

StartChar: si_Jnya
Encoding: 184 3493 184
GlifName: si_J_nya
Width: 1011
VWidth: 0
GlyphClass: 2
Flags: W
LayerCount: 2
Back
Fore
SplineSet
588.001 394.004 m 257
 540.39 394.004 l 258
 527.057 394.004 519.057 388.337 516.39 377.004 c 258
 498.187 288 l 257
 500.937 287.928 l 258
 515.77 287.538 523.187 276.896 523.187 256 c 258
 523.187 60 l 258
 523.187 12.6074 503.786 0 456.187 0 c 258
 238.001 0 l 258
 201.362 0 190.001 14.0518 190.001 51 c 258
 190.001 440.999 l 258
 190.001 478.332 208.334 496.999 245.001 496.999 c 258
 364.782 496.999 l 257
 364.782 394 l 257
 337.001 393.998 l 258
 316.818 393.997 314.001 389.129 314.001 368.998 c 258
 314.001 128 l 258
 314.001 114 319.668 107 331.001 107 c 258
 382.187 107 l 258
 401.896 107 402.187 111.54 402.187 132 c 258
 402.187 196 l 258
 402.187 209.333 397.187 216 387.187 216 c 258
 373.187 216 l 257
 411.187 446 l 258
 417.187 480 441.187 497 483.187 497 c 258
 588 497 l 257
 588.001 394.004 l 257
158.998 398.001 m 258
 146.598 398.001 140.001 392 140.001 374 c 258
 140.001 0 l 257
 22 0 l 257
 22 406 l 258
 22 459.609 56.2471 497 108.4 497 c 258
 255.002 496.999 l 257
 202.001 398 l 257
 158.998 398.001 l 258
EndSplineSet
Refer: 74 3503 N 1 0 0 1 550.2 0 2
EndChar

StartChar: si_KSsI
Encoding: 192 -1 192
GlifName: si_K_S_sI_
Width: 920
VWidth: 0
GlyphClass: 2
Flags: W
LayerCount: 2
Back
Fore
SplineSet
427.604 511 m 257
 427.604 595.803 l 258
 427.604 625.797 444.521 640 471.604 640 c 258
 847.608 640 l 258
 872.941 640 888.608 628.565 888.608 597 c 258
 888.608 511 l 257
 764.604 511 l 257
 764.604 528 l 258
 764.604 540.878 763.888 546.001 751.008 546.001 c 258
 564.604 546.001 l 258
 553.271 546.001 551.609 540.001 551.609 528.001 c 258
 551.609 511 l 257
 427.604 511 l 257
EndSplineSet
Refer: 196 -1 N 1 0 0 1 0 0 2
EndChar

StartChar: si_KSsIi
Encoding: 193 -1 193
GlifName: si_K_S_sI_i
Width: 920
VWidth: 0
GlyphClass: 2
Flags: W
LayerCount: 2
Back
Fore
SplineSet
738.8 582.198 m 258
 728.8 582.198 723.8 578.198 723.8 570.198 c 258
 723.8 562.011 l 258
 723.8 553.344 729.133 549.011 739.8 549.011 c 258
 780.8 549.011 l 258
 791.467 549.011 796.8 553.678 796.8 563.011 c 258
 796.8 570.198 l 258
 796.8 578.198 791.133 582.198 779.8 582.198 c 258
 738.8 582.198 l 258
564.797 546.001 m 258
 553.807 546 551.802 540.001 551.802 528.001 c 258
 551.802 511 l 257
 427.797 511 l 257
 427.797 595.803 l 258
 427.797 625.797 444.017 640.011 471.007 640.011 c 258
 847.001 640.012 l 258
 874.48 640.012 888.8 626.66 888.8 600 c 258
 888.8 540.996 l 258
 888.8 521 878.798 510.996 858.8 510.996 c 258
 658.8 510.994 l 258
 635.524 510.994 630.8 520.251 630.8 531.996 c 258
 630.8 537.993 l 258
 630.8 542.524 631.617 545.002 633.199 545.993 c 257
 564.797 546.001 l 258
EndSplineSet
Refer: 196 -1 N 1 0 0 1 0 0 2
EndChar

StartChar: si_KSsa
Encoding: 196 -1 196
GlifName: si_K_S_sa
Width: 920
VWidth: 0
GlyphClass: 2
Flags: W
LayerCount: 2
Back
Fore
SplineSet
285.404 244.001 m 258
 285.404 256.666 280.404 263.001 270.404 263.001 c 258
 155.004 263.001 l 257
 125.403 237.001 l 257
 153.797 237.001 l 257
 154 223.001 l 257
 148.515 219.225 142 205.955 142 181.804 c 258
 142 128.001 l 258
 142 110.667 144.66 108.001 156 108.001 c 258
 164.401 108.001 l 258
 177.486 108.001 179.401 113.668 179.401 125.002 c 258
 179.401 189.001 l 257
 247.401 189.001 l 257
 247.401 127.001 l 258
 247.401 112.334 250.11 108.001 261.401 108.001 c 258
 272.404 108.001 l 258
 282.609 108.001 285.404 112.804 285.404 130.803 c 258
 285.404 244.001 l 258
22.001 276.397 m 257
 22.001 276.397 97.4121 342.001 140.612 380.401 c 257
 140.612 381.999 l 258
 140.612 391.229 129.923 393.972 117.016 394.002 c 258
 32.0039 394.201 l 257
 32.0039 497.201 l 257
 195.413 497.001 l 258
 227.096 496.963 231.009 469.791 231.009 461.599 c 258
 231.009 459.398 l 257
 253.604 475.202 l 258
 278.92 492.909 309.277 497 333.607 497 c 258
 439.597 497 l 257
 439.607 394.199 l 257
 347.607 394 l 258
 332.031 393.966 317.982 392.896 308.607 389 c 256
 302.434 386.434 290.745 379.688 261.411 355.001 c 257
 341.404 355.001 l 258
 373.217 355.001 394.404 337.696 394.404 298.001 c 258
 394.404 51.001 l 258
 394.404 14.9551 371.049 0.000976562 341.404 0.000976562 c 258
 251.401 0.000976562 l 258
 232.441 0.000976562 219.068 9.66797 214.401 29.002 c 257
 209.734 9.66797 193.094 0.000976562 175.401 0.000976562 c 258
 76 0.000976562 l 258
 44.1367 0.000976562 32.0039 19.8174 32.0039 50.002 c 258
 32.0039 140.201 l 258
 32.0039 180.996 44.2773 195.266 58.0039 203.002 c 257
 22.001 203.002 l 257
 22.001 276.397 l 257
EndSplineSet
Refer: 414 3522 N 1 0 0 1 404 0 2
EndChar

StartChar: si_KV.halant
Encoding: 200 -1 200
GlifName: si_K_V_.halant
Width: 912
VWidth: 0
GlyphClass: 2
Flags: W
LayerCount: 2
Back
Fore
SplineSet
11.9971 276.397 m 257
 11.9971 276.397 87.4082 342.001 130.608 380.401 c 257
 130.608 381.999 l 258
 130.608 391.229 119.919 393.972 107.012 394.002 c 258
 22 394.201 l 257
 22 497.201 l 257
 185.409 497.001 l 258
 217.092 496.963 221.005 469.791 221.005 461.599 c 258
 221.005 459.398 l 257
 243.6 475.202 l 258
 267.183 490.383 280.128 491.401 301 491.401 c 256
 308.069 491.401 335.533 486.575 351 481 c 258
 598.999 391.606 l 257
 419 349 l 256
 347.805 377.193 l 258
 336.429 382.163 314.374 386.997 307.999 386.997 c 256
 295.885 386.997 287.24 386.208 276.198 376.592 c 258
 251.407 355.001 l 257
 331.4 355.001 l 258
 363.213 355.001 384.4 337.696 384.4 298.001 c 258
 384.4 51.001 l 258
 384.4 14.9551 361.045 0.000976562 331.4 0.000976562 c 258
 241.397 0.000976562 l 258
 222.438 0.000976562 209.064 9.66797 204.397 29.002 c 257
 199.73 9.66797 183.09 0.000976562 165.397 0.000976562 c 258
 65.9961 0.000976562 l 258
 34.1328 0.000976562 22 19.8174 22 50.002 c 258
 22 140.201 l 258
 22 180.996 34.2734 195.266 48 203.002 c 257
 11.9971 203.002 l 257
 11.9971 276.397 l 257
881 415 m 257
 881 54 l 258
 881 16.2705 868.075 0 831 0 c 258
 468 0 l 258
 430.928 0 418 16.2734 418 54 c 258
 418 238 l 258
 418 274.667 436.667 293 474 293 c 258
 540 293 l 257
 540 335 l 258
 540 344.333 534.667 349 524 349 c 258
 419 349 l 257
 419 435 l 257
 600.801 435 l 258
 645.421 435 664.006 414.41 664.006 378 c 258
 664.006 199 l 257
 563 199 l 258
 549 199 542 192.667 542 180 c 258
 542 129 l 258
 542 114.333 548 107 560 107 c 258
 739 107 l 258
 751 107 757 114.333 757 129 c 258
 757 415 l 257
 881 415 l 257
275.4 243 m 258
 275.4 255.665 270.4 262 260.4 262 c 258
 145 262 l 257
 115.399 236 l 257
 143.793 236 l 257
 143.996 222 l 257
 138.511 218.224 131.996 204.954 131.996 180.803 c 258
 131.996 127 l 258
 131.996 109.666 134.656 107 145.996 107 c 258
 154.397 107 l 258
 167.482 107 169.397 112.667 169.397 124.001 c 258
 169.397 188 l 257
 237.397 188 l 257
 237.397 126 l 258
 237.397 111.333 240.106 107 251.397 107 c 258
 262.4 107 l 258
 272.605 107 275.4 111.803 275.4 129.802 c 258
 275.4 243 l 258
881 400 m 257
 757 400 l 257
 757 441 l 258
 757 459.349 750.062 464 731 464 c 258
 432.403 464 l 257
 432.403 550 l 257
 493.403 550 l 257
 464.07 557.333 449.403 571.667 449.403 593 c 258
 449.403 632 l 258
 449.403 659.333 465.736 673 498.403 673 c 258
 879 673 l 257
 879 589 l 257
 605.403 589 l 258
 587.403 589 578.403 584.333 578.403 575 c 256
 578.403 565.227 586.329 558 596.403 558 c 258
 812 558 l 258
 867.441 558 881 533.687 881 477 c 258
 881 400 l 257
EndSplineSet
EndChar

StartChar: si_KVI
Encoding: 201 -1 201
GlifName: si_K_V_I_
Width: 909
VWidth: 0
GlyphClass: 2
Flags: W
LayerCount: 2
Back
Fore
SplineSet
11.9971 276.397 m 257
 11.9971 276.397 87.4082 342.001 130.608 380.401 c 257
 130.608 381.999 l 258
 130.608 391.229 119.919 393.972 107.012 394.002 c 258
 22 394.201 l 257
 22 497.201 l 257
 185.409 497.001 l 258
 217.092 496.963 221.005 469.791 221.005 461.599 c 258
 221.005 459.398 l 257
 243.6 475.202 l 258
 267.183 490.383 280.128 491.401 301 491.401 c 256
 308.069 491.401 335.533 486.575 351 481 c 258
 598.999 391.606 l 257
 419 349 l 256
 347.805 377.193 l 258
 336.429 382.163 314.374 386.997 307.999 386.997 c 256
 295.885 386.997 287.24 386.208 276.198 376.592 c 258
 251.407 355.001 l 257
 331.4 355.001 l 258
 363.213 355.001 384.4 337.696 384.4 298.001 c 258
 384.4 51.001 l 258
 384.4 14.9551 361.045 0.000976562 331.4 0.000976562 c 258
 241.397 0.000976562 l 258
 222.438 0.000976562 209.064 9.66797 204.397 29.002 c 257
 199.73 9.66797 183.09 0.000976562 165.397 0.000976562 c 258
 65.9961 0.000976562 l 258
 34.1328 0.000976562 22 19.8174 22 50.002 c 258
 22 140.201 l 258
 22 180.996 34.2734 195.266 48 203.002 c 257
 11.9971 203.002 l 257
 11.9971 276.397 l 257
880.603 415 m 257
 880.603 54 l 258
 880.603 16.2705 867.678 0 830.603 0 c 258
 467.603 0 l 258
 430.53 0 417.603 16.2734 417.603 54 c 258
 417.603 238 l 258
 417.603 274.667 436.27 293 473.603 293 c 258
 539.603 293 l 257
 539.603 335 l 258
 539.603 344.333 534.27 349 523.603 349 c 258
 418.603 349 l 257
 418.603 435 l 257
 600.403 435 l 258
 645.023 435 663.608 414.41 663.608 378 c 258
 663.608 199 l 257
 562.603 199 l 258
 548.603 199 541.603 192.667 541.603 180 c 258
 541.603 129 l 258
 541.603 114.333 547.603 107 559.603 107 c 258
 738.603 107 l 258
 750.603 107 756.603 114.333 756.603 129 c 258
 756.603 415 l 257
 880.603 415 l 257
275.4 243 m 258
 275.4 255.665 270.4 262 260.4 262 c 258
 145 262 l 257
 115.399 236 l 257
 143.793 236 l 257
 143.996 222 l 257
 138.511 218.224 131.996 204.954 131.996 180.803 c 258
 131.996 127 l 258
 131.996 109.666 134.656 107 145.996 107 c 258
 154.397 107 l 258
 167.482 107 169.397 112.667 169.397 124.001 c 258
 169.397 188 l 257
 237.397 188 l 257
 237.397 126 l 258
 237.397 111.333 240.106 107 251.397 107 c 258
 262.4 107 l 258
 272.605 107 275.4 111.803 275.4 129.802 c 258
 275.4 243 l 258
880.603 400 m 257
 756.603 400 l 257
 756.603 441 l 258
 756.603 459.349 749.664 464 730.603 464 c 258
 464.603 464 l 258
 433.27 464 417.603 480 417.603 512 c 258
 417.603 612 l 258
 417.603 656.156 433.445 672 477.603 672 c 258
 879.103 672 l 257
 879.103 589 l 257
 560.603 589 l 258
 547.936 589 541.603 585.667 541.603 577 c 258
 541.603 568 l 258
 541.603 561.333 547.27 558 558.603 558 c 258
 811.603 558 l 258
 868.417 558 880.603 535.085 880.603 477 c 258
 880.603 400 l 257
EndSplineSet
EndChar

StartChar: si_KVIi
Encoding: 202 -1 202
GlifName: si_K_V_I_i
Width: 911
VWidth: 0
GlyphClass: 2
Flags: W
LayerCount: 2
Back
Fore
SplineSet
11.9971 276.397 m 257
 11.9971 276.397 87.4082 342.001 130.608 380.401 c 257
 130.608 381.999 l 258
 130.608 391.229 119.919 393.972 107.012 394.002 c 258
 22 394.201 l 257
 22 497.201 l 257
 185.409 497.001 l 258
 217.092 496.963 221.005 469.791 221.005 461.599 c 258
 221.005 459.398 l 257
 243.6 475.202 l 258
 267.183 490.383 280.128 491.401 301 491.401 c 256
 308.069 491.401 335.533 486.575 351 481 c 258
 598.999 391.606 l 257
 419 349 l 256
 347.805 377.193 l 258
 336.429 382.163 314.374 386.997 307.999 386.997 c 256
 295.885 386.997 287.24 386.208 276.198 376.592 c 258
 251.407 355.001 l 257
 331.4 355.001 l 258
 363.213 355.001 384.4 337.696 384.4 298.001 c 258
 384.4 51.001 l 258
 384.4 14.9551 361.045 0.000976562 331.4 0.000976562 c 258
 241.397 0.000976562 l 258
 222.438 0.000976562 209.064 9.66797 204.397 29.002 c 257
 199.73 9.66797 183.09 0.000976562 165.397 0.000976562 c 258
 65.9961 0.000976562 l 258
 34.1328 0.000976562 22 19.8174 22 50.002 c 258
 22 140.201 l 258
 22 180.996 34.2734 195.266 48 203.002 c 257
 11.9971 203.002 l 257
 11.9971 276.397 l 257
881 415 m 257
 881 54 l 258
 881 16.2705 868.075 0 831 0 c 258
 468 0 l 258
 430.928 0 418 16.2734 418 54 c 258
 418 238 l 258
 418 274.667 436.667 293 474 293 c 258
 540 293 l 257
 540 334.799 l 258
 540 344.132 534.667 348.799 524 348.799 c 258
 419 348.799 l 257
 419 435 l 257
 600.801 435 l 258
 645.421 435 664.006 414.41 664.006 378 c 258
 664.006 199 l 257
 563 199 l 258
 549 199 542 192.667 542 180 c 258
 542 129 l 258
 542 114.333 548 107 560 107 c 258
 739 107 l 258
 751 107 757 114.333 757 129 c 258
 757 415 l 257
 881 415 l 257
275.4 243 m 258
 275.4 255.665 270.4 262 260.4 262 c 258
 145 262 l 257
 115.399 236 l 257
 143.793 236 l 257
 143.996 222 l 257
 138.511 218.224 131.996 204.954 131.996 180.803 c 258
 131.996 127 l 258
 131.996 109.666 134.656 107 145.996 107 c 258
 154.397 107 l 258
 167.482 107 169.397 112.667 169.397 124.001 c 258
 169.397 188 l 257
 237.397 188 l 257
 237.397 126 l 258
 237.397 111.333 240.106 107 251.397 107 c 258
 262.4 107 l 258
 272.605 107 275.4 111.803 275.4 129.802 c 258
 275.4 243 l 258
757 405 m 257
 757 434 l 258
 757 452.19 739.683 464 721 464 c 258
 461 464 l 258
 431.157 464 418 472.771 418 505 c 258
 418 618 l 258
 418 654.859 431.411 672 468 672 c 258
 831 672 l 258
 867.588 672 881 654.858 881 618 c 258
 881 552 l 258
 881 529.838 864.868 512.773 846 509 c 257
 867.911 502.152 881 474.274 881 445 c 258
 881 405 l 257
 757 405 l 257
628 539 m 257
 620.066 543.655 617 547.826 617 564 c 258
 617 575 l 258
 617 581.855 617.142 584.019 620 587 c 257
 549 587 l 258
 537.667 587 532 582.333 532 573 c 258
 532 554 l 258
 532 544 537.333 539 548 539 c 258
 628 539 l 257
722 594 m 258
 713.619 594 709 588.388 709 581 c 258
 709 558 l 258
 709 547.623 718.201 543 727 543 c 258
 764 543 l 258
 775.683 543 784 549.519 784 564 c 258
 784 582 l 258
 784 591.396 777.685 594 773 594 c 258
 722 594 l 258
EndSplineSet
EndChar

StartChar: si_KVa
Encoding: 205 -1 205
GlifName: si_K_V_a
Width: 912
VWidth: 0
GlyphClass: 2
Flags: W
LayerCount: 2
Back
Fore
SplineSet
11.9971 276.397 m 257
 11.9971 276.397 87.4082 342.001 130.608 380.401 c 257
 130.608 381.999 l 258
 130.608 391.229 119.919 393.972 107.012 394.002 c 258
 22 394.201 l 257
 22 497.201 l 257
 185.409 497.001 l 258
 217.092 496.963 221.005 469.791 221.005 461.599 c 258
 221.005 459.398 l 257
 243.6 475.202 l 258
 264.149 489.575 285.762 494.202 306.204 494.202 c 256
 315.145 494.202 337.664 491.408 371.805 486 c 258
 468 470 l 257
 455.996 367 l 256
 365 384.599 l 258
 341.575 388.938 325.003 390.999 315.996 390.999 c 256
 304.5 390.999 288.945 387.693 276.198 376.592 c 258
 251.407 355.001 l 257
 331.4 355.001 l 258
 363.213 355.001 384.4 337.696 384.4 298.001 c 258
 384.4 51.001 l 258
 384.4 14.9551 361.045 0.000976562 331.4 0.000976562 c 258
 241.397 0.000976562 l 258
 222.438 0.000976562 209.064 9.66797 204.397 29.002 c 257
 199.73 9.66797 183.09 0.000976562 165.397 0.000976562 c 258
 65.9961 0.000976562 l 258
 34.1328 0.000976562 22 19.8174 22 50.002 c 258
 22 140.201 l 258
 22 180.996 34.2734 195.266 48 203.002 c 257
 11.9971 203.002 l 257
 11.9971 276.397 l 257
882.404 415 m 257
 882.404 54 l 258
 882.404 16.2705 869.479 0 832.404 0 c 258
 469.404 0 l 258
 432.332 0 419.404 16.2734 419.404 54 c 258
 419.404 275.61 l 258
 419.404 312.277 438.071 330.61 475.404 330.61 c 258
 541.404 330.61 l 257
 541.404 353 l 258
 541.404 362.333 536.071 367 525.404 367 c 258
 456 367 l 257
 456 470 l 257
 602.404 470 l 258
 644.109 470 665.403 448.41 665.403 412 c 258
 665.403 236.61 l 257
 564.404 236.61 l 258
 550.404 236.61 543.404 230.277 543.404 217.61 c 258
 543.404 129 l 258
 543.404 114.333 549.404 107 561.404 107 c 258
 740.404 107 l 258
 752.404 107 758.404 114.333 758.404 129 c 258
 758.404 415 l 257
 882.404 415 l 257
275.4 243 m 258
 275.4 255.665 270.4 262 260.4 262 c 258
 145 262 l 257
 115.399 236 l 257
 143.793 236 l 257
 143.996 222 l 257
 138.511 218.224 131.996 204.954 131.996 180.803 c 258
 131.996 127 l 258
 131.996 109.666 134.656 107 145.996 107 c 258
 154.397 107 l 258
 167.482 107 169.397 112.667 169.397 124.001 c 258
 169.397 188 l 257
 237.397 188 l 257
 237.397 126 l 258
 237.397 111.333 240.106 107 251.397 107 c 258
 262.4 107 l 258
 272.605 107 275.4 111.803 275.4 129.802 c 258
 275.4 243 l 258
813.404 625 m 258
 868.404 625 882.404 600.687 882.404 544 c 258
 882.404 400 l 257
 758.404 400 l 257
 758.404 494.602 l 258
 758.404 512.95 751.466 517.602 732.404 517.602 c 258
 419.404 517.602 l 257
 419.404 625 l 257
 813.404 625 l 258
EndSplineSet
EndChar

StartChar: si_Ka
Encoding: 206 3482 206
GlifName: si_K_a
Width: 592
VWidth: 0
GlyphClass: 2
Flags: W
LayerCount: 2
Back
Fore
SplineSet
275.4 242.8 m 258
 275.4 255.465 270.4 261.8 260.4 261.8 c 258
 145 261.8 l 257
 115.399 235.8 l 257
 143.793 235.8 l 257
 143.996 221.8 l 257
 138.511 218.023 131.996 204.754 131.996 180.603 c 258
 131.996 126.8 l 258
 131.996 109.466 134.656 106.8 145.996 106.8 c 258
 154.397 106.8 l 258
 167.482 106.8 169.397 112.467 169.397 123.801 c 258
 169.397 187.8 l 257
 237.397 187.8 l 257
 237.397 125.8 l 258
 237.397 111.133 240.106 106.8 251.397 106.8 c 258
 262.4 106.8 l 258
 272.605 106.8 275.4 111.603 275.4 129.602 c 258
 275.4 242.8 l 258
221.005 459.197 m 257
 240.008 475.8 l 258
 262.183 494.689 279.213 496.8 303.408 496.8 c 258
 503 497 l 258
 539.827 497 561.608 475.843 561.608 444 c 258
 561.608 49 l 258
 561.608 13.2042 537.075 -3.60972e-15 507.6 0 c 258
 401.6 0 l 257
 401.6 107 l 257
 423 107.001 l 258
 432.333 107.001 437 112.667 437 124.001 c 258
 437 376.001 l 258
 437 388.001 429.933 394.001 416.6 394.001 c 258
 313.408 393.8 l 258
 298.741 393.8 293.372 391.342 281.208 380.8 c 258
 251.407 354.8 l 257
 331.4 354.8 l 258
 363.213 354.8 384.4 337.495 384.4 297.8 c 258
 384.4 50.7998 l 258
 384.4 14.7539 361.045 -0.200195 331.4 -0.200195 c 258
 241.397 -0.200195 l 258
 222.438 -0.200195 209.064 9.4668 204.397 28.8008 c 257
 199.73 9.4668 183.09 -0.200195 165.397 -0.200195 c 258
 65.9961 -0.200195 l 258
 34.1328 -0.200195 22 19.6164 22 49.8008 c 258
 22 140 l 258
 22 180.795 34.2732 195.065 48 202.801 c 257
 11.9971 202.801 l 257
 11.9971 276.196 l 257
 11.9971 276.196 87.4082 341.8 130.608 380.2 c 257
 130.608 381.798 l 258
 130.608 391.027 119.919 393.771 107.012 393.801 c 258
 22 394 l 257
 22 497 l 257
 185.409 496.8 l 258
 217.092 496.762 221.005 469.59 221.005 461.397 c 258
 221.005 459.197 l 257
EndSplineSet
EndChar

StartChar: si_Kh.halant
Encoding: 208 -1 208
GlifName: si_K_h.halant
Width: 518
VWidth: 0
GlyphClass: 2
Flags: W
LayerCount: 2
Back
Fore
SplineSet
484.995 417.998 m 257
 484.995 51 l 258
 484.995 26.0734 473.261 -4.1958e-15 439 0 c 258
 350 0 l 258
 316.667 0 294.667 20 288 44 c 257
 270.4 -5 l 257
 178.4 -5 l 257
 199 203 l 257
 199.001 307 l 258
 198.912 318.333 195 324 181 324 c 258
 166.01 324 l 258
 148.01 324 146.011 316.667 146.01 302 c 258
 146 123 l 258
 146 115.2 147.666 107 157 107 c 258
 168.007 107 l 257
 157.997 0 l 257
 65 0 l 258
 38.3047 0 22 16.7649 22 48 c 258
 22 371.025 l 258
 22 406.991 40.6514 435 81 435 c 258
 256 435 l 258
 288.526 435 312 417.693 312 380.025 c 258
 312 212 l 257
 305 144 l 257
 317 125.333 328.219 107 340 107 c 258
 346 107 l 258
 358.667 107 360.994 114 360.994 128 c 258
 360.994 418 l 257
 484.995 417.998 l 257
485 400 m 257
 361 400 l 257
 361 441 l 258
 361 459.349 354.061 464 335 464 c 258
 14 464 l 257
 14 550 l 257
 94 550 l 257
 64.6667 557.333 50 571.667 50 593 c 258
 50 632 l 258
 50 659.333 66.3333 673 99 673 c 258
 483 673 l 257
 483 589 l 257
 206 589 l 258
 188 589 179 584.333 179 575 c 256
 179 565.226 186.926 558 197 558 c 258
 416 558 l 258
 471.441 558 485 533.686 485 477 c 258
 485 400 l 257
EndSplineSet
EndChar

StartChar: si_KhI
Encoding: 209 -1 209
GlifName: si_K_hI_
Width: 518
VWidth: 0
GlyphClass: 2
Flags: W
LayerCount: 2
Back
Fore
SplineSet
484.995 417.998 m 257
 484.995 51 l 258
 484.995 26.0734 473.261 -4.1958e-15 439 0 c 258
 350 0 l 258
 316.667 0 294.667 20 288 44 c 257
 270.4 -5 l 257
 178.4 -5 l 257
 199 203 l 257
 199.001 307 l 258
 198.912 318.333 195 324 181 324 c 258
 166.01 324 l 258
 148.01 324 146.011 316.667 146.01 302 c 258
 146 123 l 258
 146 115.2 147.666 107 157 107 c 258
 168.007 107 l 257
 157.997 0 l 257
 65 0 l 258
 38.3047 0 22 16.7649 22 48 c 258
 22 371.025 l 258
 22 406.991 40.6514 435 81 435 c 258
 256 435 l 258
 288.526 435 312 417.693 312 380.025 c 258
 312 212 l 257
 305 144 l 257
 317 125.333 328.219 107 340 107 c 258
 346 107 l 258
 358.667 107 360.994 114 360.994 128 c 258
 360.994 418 l 257
 484.995 417.998 l 257
485 400 m 257
 361 400 l 257
 361 441 l 258
 361 459.349 354.061 464 335 464 c 258
 69 464 l 258
 37.6667 464 22 480 22 512 c 258
 22 612 l 258
 22 656.156 37.8431 672 82 672 c 258
 483.5 672 l 257
 483.5 589 l 257
 165 589 l 258
 152.333 589 146 585.667 146 577 c 258
 146 568 l 258
 146 561.333 151.667 558 163 558 c 258
 416 558 l 258
 472.814 558 485 535.085 485 477 c 258
 485 400 l 257
EndSplineSet
EndChar

StartChar: si_KhIi
Encoding: 210 -1 210
GlifName: si_K_hI_i
Width: 518
VWidth: 0
GlyphClass: 2
Flags: W
LayerCount: 2
Back
Fore
SplineSet
361 405 m 257
 361 434 l 258
 361 452.191 343.683 464 325 464 c 258
 65 464 l 258
 35.1571 464 22 472.771 22 505 c 258
 22 618 l 258
 22 654.86 35.4108 672 72 672 c 258
 435 672 l 258
 471.588 672 485 654.858 485 618 c 258
 485 552 l 258
 485 529.838 468.868 512.774 450 509 c 257
 471.911 502.153 485 474.275 485 445 c 258
 485 405 l 257
 361 405 l 257
232 539 m 257
 224.066 543.656 221 547.826 221 564 c 258
 221 575 l 258
 221 581.855 221.142 584.018 224 587 c 257
 153 587 l 258
 141.667 587 136 582.333 136 573 c 258
 136 554 l 258
 136 544 141.333 539 152 539 c 258
 232 539 l 257
326 594 m 258
 317.619 594 313 588.388 313 581 c 258
 313 558 l 258
 313 547.623 322.201 543 331 543 c 258
 368 543 l 258
 379.682 543 388 549.518 388 564 c 258
 388 582 l 258
 388 591.396 381.685 594 377 594 c 258
 326 594 l 258
484.995 417.998 m 257
 484.995 51 l 258
 484.995 26.0734 473.261 -4.1958e-15 439 0 c 258
 350 0 l 258
 316.667 0 294.667 20 288 44 c 257
 270.4 -5 l 257
 178.4 -5 l 257
 199 203 l 257
 199.001 307 l 258
 198.912 318.333 195 324 181 324 c 258
 166.01 324 l 258
 148.01 324 146.011 316.667 146.01 302 c 258
 146 123 l 258
 146 115.2 147.666 107 157 107 c 258
 168.007 107 l 257
 157.997 0 l 257
 65 0 l 258
 38.3047 0 22 16.7649 22 48 c 258
 22 371.025 l 258
 22 406.991 40.6514 435 81 435 c 258
 256 435 l 258
 288.526 435 312 417.693 312 380.025 c 258
 312 212 l 257
 305 144 l 257
 317 125.333 328.219 107 340 107 c 258
 346 107 l 258
 358.667 107 360.994 114 360.994 128 c 258
 360.994 418 l 257
 484.995 417.998 l 257
EndSplineSet
EndChar

StartChar: si_KhR.halant
Encoding: 211 -1 211
GlifName: si_K_hR_.halant
Width: 630
VWidth: 0
GlyphClass: 2
Flags: W
LayerCount: 2
Back
Fore
SplineSet
23.4004 -15.8076 m 257
 23.4004 -114.824 l 258
 23.4004 -144.818 40.3164 -159.021 67.4004 -159.021 c 258
 443 -159.021 l 258
 468.333 -159.021 484 -147.587 484 -116.021 c 258
 484 -15.8076 l 257
 359.995 -15.8076 l 257
 359.995 -35.0098 l 258
 359.995 -47.8877 359.279 -53.0107 346.399 -53.0107 c 258
 160.4 -53.0107 l 258
 149.067 -53.0107 147.405 -47.0107 147.405 -35.0107 c 258
 147.405 -15.8076 l 257
 23.4004 -15.8076 l 257
EndSplineSet
Refer: 208 -1 N 1 0 0 1 0 0 2
EndChar

StartChar: si_KhRI
Encoding: 212 -1 212
GlifName: si_K_hR_I_
Width: 630
VWidth: 0
GlyphClass: 2
Flags: W
LayerCount: 2
Back
Fore
SplineSet
23.4004 -15.8076 m 257
 23.4004 -114.824 l 258
 23.4004 -144.818 40.3164 -159.021 67.4004 -159.021 c 258
 443 -159.021 l 258
 468.333 -159.021 484 -147.587 484 -116.021 c 258
 484 -15.8076 l 257
 359.995 -15.8076 l 257
 359.995 -35.0098 l 258
 359.995 -47.8877 359.279 -53.0107 346.399 -53.0107 c 258
 160.4 -53.0107 l 258
 149.067 -53.0107 147.405 -47.0107 147.405 -35.0107 c 258
 147.405 -15.8076 l 257
 23.4004 -15.8076 l 257
EndSplineSet
Refer: 209 -1 N 1 0 0 1 0 0 2
EndChar

StartChar: si_KhRIi
Encoding: 213 -1 213
GlifName: si_K_hR_I_i
Width: 630
VWidth: 0
GlyphClass: 2
Flags: W
LayerCount: 2
Back
Fore
SplineSet
23.4004 -15.8076 m 257
 23.4004 -114.824 l 258
 23.4004 -144.818 40.3164 -159.021 67.4004 -159.021 c 258
 443 -159.021 l 258
 468.333 -159.021 484 -147.587 484 -116.021 c 258
 484 -15.8076 l 257
 359.995 -15.8076 l 257
 359.995 -35.0098 l 258
 359.995 -47.8877 359.279 -53.0107 346.399 -53.0107 c 258
 160.4 -53.0107 l 258
 149.067 -53.0107 147.405 -47.0107 147.405 -35.0107 c 258
 147.405 -15.8076 l 257
 23.4004 -15.8076 l 257
EndSplineSet
Refer: 210 -1 N 1 0 0 1 0 0 2
EndChar

StartChar: si_KhRa
Encoding: 214 -1 214
GlifName: si_K_hR_a
Width: 516
VWidth: 0
GlyphClass: 2
Flags: W
LayerCount: 2
Back
Fore
SplineSet
23.4004 -15.8076 m 257
 23.4004 -114.824 l 258
 23.4004 -144.818 40.3164 -159.021 67.4004 -159.021 c 258
 443 -159.021 l 258
 468.333 -159.021 484 -147.587 484 -116.021 c 258
 484 -15.8076 l 257
 359.995 -15.8076 l 257
 359.995 -35.0098 l 258
 359.995 -47.8877 359.279 -53.0107 346.399 -53.0107 c 258
 160.4 -53.0107 l 258
 149.067 -53.0107 147.405 -47.0107 147.405 -35.0107 c 258
 147.405 -15.8076 l 257
 23.4004 -15.8076 l 257
EndSplineSet
Refer: 217 3483 N 1 0 0 1 0 0 2
EndChar

StartChar: si_Kha
Encoding: 217 3483 217
GlifName: si_K_ha
Width: 516
VWidth: 0
GlyphClass: 2
Flags: W
LayerCount: 2
Back
Fore
SplineSet
22 406.027 m 258
 22 441.993 40.6514 470.002 81 470.002 c 258
 256 470.002 l 258
 288.526 470.002 312 452.695 312 415.027 c 258
 312 266 l 257
 304.802 191 l 257
 338 139 l 258
 341.62 133.622 348.192 122.203 356.001 122.203 c 256
 361.328 122.203 361.989 130.114 361.998 139.398 c 257
 360.994 184 l 257
 360.994 479.394 l 258
 360.994 500.061 346.661 509.993 317.994 509.993 c 258
 21.998 509.993 l 257
 21.998 626 l 257
 414.995 626 l 258
 454.281 626 484.995 606.242 484.995 566 c 258
 484.995 51 l 258
 484.995 26.0734 473.261 -4.1958e-15 439 0 c 258
 369 0 l 258
 341.643 0 319.213 17.0242 306.188 41 c 258
 285 80 l 257
 270 -5 l 257
 178.4 -5 l 257
 199 291 l 257
 199.001 338.8 l 258
 199.001 354.23 195 359.002 181 359.002 c 258
 166.01 359.002 l 258
 148.01 359.002 146.01 351.669 146.01 337.002 c 258
 146 122.8 l 258
 146 115 147.666 107 157 107 c 258
 164.804 107 l 257
 157.997 0 l 257
 65 0 l 258
 38.3047 0 22 16.7649 22 48 c 258
 22 406.027 l 258
EndSplineSet
EndChar

StartChar: si_L.halant
Encoding: 218 -1 218
GlifName: si_L_.halant
Width: 557
VWidth: 0
GlyphClass: 2
Flags: W
LayerCount: 2
Back
Fore
SplineSet
401.798 492.396 m 257
 401.798 649 l 257
 526 649 l 257
 526 426 l 257
 521.333 433.333 505.918 462.636 494 470.791 c 256
 481.544 479.315 462.502 492.396 437 492.396 c 258
 401.798 492.396 l 257
EndSplineSet
Refer: 223 3517 N 1 0 0 1 0 0 2
EndChar

StartChar: si_LI
Encoding: 219 -1 219
GlifName: si_L_I_
Width: 557
VWidth: 0
GlyphClass: 2
Flags: W
LayerCount: 2
Back
Fore
SplineSet
21.9951 511 m 257
 21.9951 595.803 l 258
 21.9951 625.797 38.9111 640 65.9951 640 c 258
 479 640 l 258
 504.333 640 520 628.565 520 597 c 258
 520 511 l 257
 395.995 511 l 257
 395.995 528 l 258
 395.995 540.878 395.279 546.001 382.399 546.001 c 258
 158.995 546.001 l 258
 147.662 546.001 146 540.001 146 528.001 c 258
 146 511 l 257
 21.9951 511 l 257
EndSplineSet
Refer: 223 3517 N 1 0 0 1 0 0 2
EndChar

StartChar: si_LIi
Encoding: 220 -1 220
GlifName: si_L_I_i
Width: 557
VWidth: 0
GlyphClass: 2
Flags: W
LayerCount: 2
Back
Fore
SplineSet
372 582.198 m 258
 362 582.198 357 578.198 357 570.198 c 258
 357 562.011 l 258
 357 553.344 362.333 549.011 373 549.011 c 258
 414 549.011 l 258
 424.667 549.011 430 553.678 430 563.011 c 258
 430 570.198 l 258
 430 578.198 424.333 582.198 413 582.198 c 258
 372 582.198 l 258
158.995 546.001 m 258
 148.005 546.002 146 540.001 146 528.001 c 258
 146 511 l 257
 21.9951 511 l 257
 21.9951 595.803 l 258
 21.9951 625.797 38.2148 640.011 65.2051 640.011 c 258
 480.001 640.012 l 258
 507.48 640.012 522 626.66 522 600 c 258
 522 540.996 l 258
 522 521 511.998 510.996 492 510.996 c 258
 292 510.994 l 258
 268.725 510.994 264 520.251 264 531.996 c 258
 264 537.993 l 258
 264 542.524 264.817 545.002 266.399 545.993 c 257
 158.995 546.001 l 258
EndSplineSet
Refer: 223 3517 N 1 0 0 1 0 0 2
EndChar

StartChar: si_LU
Encoding: 221 -1 221
GlifName: si_L_U_
Width: 557
VWidth: 0
GlyphClass: 2
Flags: W
LayerCount: 2
Back
Fore
SplineSet
525.792 -159 m 257
 22 -159 l 257
 22 -53 l 257
 402.792 -53 l 257
 402.792 25 l 257
 474.792 25 l 258
 503.459 25 520.459 38 525.792 64 c 257
 525.792 -159 l 257
211.608 169.625 m 258
 211.608 265.016 l 257
 172.612 265.016 l 257
 172.612 355.016 l 257
 374.999 355.016 l 257
 374.999 267.016 l 257
 335.609 267.016 l 257
 335.609 244.625 l 258
 335.609 229.359 337.95 228.625 353.609 228.625 c 258
 388.01 228.625 l 258
 397.343 228.625 402.01 234.292 402.01 245.625 c 258
 402.01 371 l 258
 402.01 386.299 397.666 394 377 394 c 258
 169.8 394.001 l 258
 152.057 394.001 146 384 146 370 c 258
 146 123.422 l 258
 146 92.9834 155.477 82.4219 188.001 82.4219 c 258
 525.812 82.4219 l 257
 525.812 -17.7637 l 257
 92 -17.7637 l 258
 52.1143 -17.7637 22 -1.30566 22 54.2363 c 258
 22 434 l 258
 22 471.686 47.1465 497.001 76 497.001 c 258
 465 497 l 258
 501.262 497 526.013 464 526.012 428 c 258
 526 182.625 l 258
 525.999 148.83 511.801 121.625 474 121.625 c 258
 260.608 121.625 l 258
 227.708 121.625 211.608 142.497 211.608 169.625 c 258
EndSplineSet
EndChar

StartChar: si_LUu
Encoding: 222 -1 222
GlifName: si_L_U_u
Width: 557
VWidth: 0
GlyphClass: 2
Flags: W
LayerCount: 2
Back
Fore
SplineSet
525.799 -158.999 m 257
 409.199 -158.999 l 257
 401.645 -151.036 393.732 -141.535 386.004 -136.201 c 256
 375.833 -129.182 364.312 -129.002 354.204 -129.002 c 257
 319.99 -129.002 l 257
 308.015 -129.002 298.419 -131.704 285.99 -136.803 c 257
 242.786 -153.804 l 257
 230.998 -158.021 218.993 -162.805 190.993 -162.805 c 258
 69.7959 -162.805 l 258
 37.3818 -162.805 21.7949 -150.575 21.7949 -122.002 c 258
 21.7949 -29.0029 l 257
 138.795 -29.0029 l 257
 138.795 -51.002 l 258
 138.795 -62.2861 143.663 -69.0029 155.6 -69.0029 c 258
 192.983 -69.0029 l 258
 205.983 -69.0029 222.128 -65.4404 238.982 -58.8008 c 257
 275.986 -46.001 l 257
 288.952 -40.6738 302.139 -39.002 317.786 -39.002 c 257
 356.213 -39.002 l 257
 366.174 -39.002 383.236 -39.1924 391.409 -45.002 c 256
 397.216 -49.1299 398.05 -50.2412 402.797 -55.002 c 257
 402.797 14 l 257
 480.799 14 l 258
 506.799 14 521.799 28 525.799 56 c 257
 525.799 -158.999 l 257
211.608 169.625 m 258
 211.608 265.016 l 257
 172.612 265.016 l 257
 172.612 355.016 l 257
 374.999 355.016 l 257
 374.999 267.016 l 257
 335.609 267.016 l 257
 335.609 244.625 l 258
 335.609 229.359 337.95 228.625 353.609 228.625 c 258
 388.01 228.625 l 258
 397.343 228.625 402.01 234.292 402.01 245.625 c 258
 402.01 371 l 258
 402.01 386.299 397.666 394 377 394 c 258
 169.8 394.001 l 258
 152.057 394.001 146 384 146 370 c 258
 146 123.422 l 258
 146 92.9834 155.477 82.4219 188.001 82.4219 c 258
 525.812 82.4219 l 257
 525.812 -17.7637 l 257
 92 -17.7637 l 258
 52.1143 -17.7637 22 -1.30566 22 54.2363 c 258
 22 434 l 258
 22 471.686 47.1465 497.001 76 497.001 c 258
 465 497 l 258
 501.262 497 526.013 464 526.012 428 c 258
 526 182.625 l 258
 525.999 148.83 511.801 121.625 474 121.625 c 258
 260.608 121.625 l 258
 227.708 121.625 211.608 142.497 211.608 169.625 c 258
EndSplineSet
EndChar

StartChar: si_La
Encoding: 223 3517 223
GlifName: si_L_a
Width: 557
VWidth: 0
GlyphClass: 2
Flags: W
LayerCount: 2
Back
Fore
SplineSet
211.608 48 m 258
 211.608 222.204 l 257
 172.612 222.204 l 257
 172.612 312.204 l 257
 374.999 312.204 l 257
 374.999 224.204 l 257
 335.609 224.204 l 257
 335.609 123 l 258
 335.609 107.734 337.95 107 353.609 107 c 258
 388.01 107 l 258
 397.343 107 402.01 112.667 402.01 124 c 258
 402.01 371 l 258
 402.01 386.299 397.666 394 377 394 c 258
 169.8 394.001 l 258
 152.057 394.001 146 384 146 370 c 258
 146 -6.61133 l 258
 146 -37.0498 155.477 -47.6113 188.001 -47.6113 c 258
 525.812 -47.6113 l 257
 525.812 -162.611 l 257
 92 -162.611 l 258
 52.1143 -162.611 22 -146.153 22 -90.6113 c 258
 22 434 l 258
 22 471.686 47.3457 497.001 76.2002 497.001 c 258
 465 497 l 258
 501.262 497 526 464 526.012 428 c 258
 526 61 l 258
 525.999 27.2047 511.8 -4.62922e-15 474 0 c 258
 260.608 0 l 258
 227.708 0 211.608 20.8721 211.608 48 c 258
EndSplineSet
EndChar

StartChar: si_Ll.halant
Encoding: 224 -1 224
GlifName: si_L_l.halant
Width: 553
VWidth: 0
GlyphClass: 2
Flags: W
LayerCount: 2
Back
Fore
SplineSet
398.598 492.396 m 257
 398.598 649 l 257
 522.8 649 l 257
 522.8 426 l 257
 518.133 433.333 502.718 462.636 490.8 470.791 c 256
 478.344 479.315 459.302 492.396 433.8 492.396 c 258
 398.598 492.396 l 257
EndSplineSet
Refer: 229 3525 N 1 0 0 1 0 0 2
EndChar

StartChar: si_LlI
Encoding: 225 -1 225
GlifName: si_L_lI_
Width: 553
VWidth: 0
GlyphClass: 2
Flags: W
LayerCount: 2
Back
Fore
SplineSet
73.3975 511 m 257
 73.3975 595.803 l 258
 73.3975 625.797 90.3135 640 117.397 640 c 258
 481 640 l 258
 506.333 640 522 628.565 522 597 c 258
 522 511 l 257
 397.995 511 l 257
 397.995 528 l 258
 397.995 540.878 397.279 546.001 384.399 546.001 c 258
 210.397 546.001 l 258
 199.064 546.001 197.402 540.001 197.402 528.001 c 258
 197.402 511 l 257
 73.3975 511 l 257
EndSplineSet
Refer: 229 3525 N 1 0 0 1 0 0 2
EndChar

StartChar: si_LlIi
Encoding: 226 -1 226
GlifName: si_L_lI_i
Width: 553
VWidth: 0
GlyphClass: 2
Flags: W
LayerCount: 2
Back
Fore
SplineSet
372 582.198 m 258
 362 582.198 357 578.198 357 570.198 c 258
 357 562.011 l 258
 357 553.344 362.333 549.011 373 549.011 c 258
 414 549.011 l 258
 424.667 549.011 430 553.678 430 563.011 c 258
 430 570.198 l 258
 430 578.198 424.333 582.198 413 582.198 c 258
 372 582.198 l 258
206.995 546.001 m 258
 196.005 546 194 540.001 194 528.001 c 258
 194 511 l 257
 69.9951 511 l 257
 69.9951 595.803 l 258
 69.9951 625.797 86.2148 640.011 113.205 640.011 c 258
 480.201 640.012 l 258
 507.681 640.012 522 626.66 522 600 c 258
 522 540.996 l 258
 522 521 511.998 510.996 492 510.996 c 258
 292 510.994 l 258
 268.725 510.994 264 520.251 264 531.996 c 258
 264 537.993 l 258
 264 542.524 264.817 545.002 266.399 545.993 c 257
 206.995 546.001 l 258
EndSplineSet
Refer: 229 3525 N 1 0 0 1 0 0 2
EndChar

StartChar: si_LlU
Encoding: 227 -1 227
GlifName: si_L_lU_
Width: 665
VWidth: 0
GlyphClass: 2
Flags: W
LayerCount: 2
Back
Fore
SplineSet
158.998 329.401 m 258
 146.598 329.401 140.001 323.4 140.001 305.4 c 258
 140.001 0 l 257
 22 0 l 257
 22 324.401 l 258
 22 378.01 56.2471 415.401 108.4 415.401 c 258
 255.002 415.4 l 257
 214 329.4 l 257
 158.998 329.401 l 258
EndSplineSet
Refer: 374 3509 N 1 0 0 1 151.8 0 2
EndChar

StartChar: si_LlUu
Encoding: 228 -1 228
GlifName: si_L_lU_u
Width: 892
VWidth: 0
GlyphClass: 2
Flags: W
LayerCount: 2
Back
Fore
SplineSet
158.998 329.401 m 258
 146.598 329.401 140.001 323.4 140.001 305.4 c 258
 140.001 0 l 257
 22 0 l 257
 22 324.401 l 258
 22 378.01 56.2471 415.401 108.4 415.401 c 258
 255.002 415.4 l 257
 214 329.4 l 257
 158.998 329.401 l 258
EndSplineSet
Refer: 242 3537 N 1 0 0 1 643.2 -1.49012e-08 2
Refer: 374 3509 N 1 0 0 1 151.8 0 2
EndChar

StartChar: si_Lla
Encoding: 229 3525 229
GlifName: si_L_la
Width: 553
VWidth: 0
GlyphClass: 2
Flags: W
LayerCount: 2
Back
Fore
SplineSet
146 232 m 258
 146.001 -4.7998 l 258
 146.001 -24.7215 152.961 -36 177 -36 c 258
 522.811 -36 l 257
 522.811 -152 l 257
 100 -152 l 258
 51.287 -152 22 -126.804 22 -74 c 258
 22 267 l 258
 22 307.178 43.4932 329.272 72 333.396 c 257
 72 441 l 258
 72 477.475 91.6445 497 126 497 c 258
 265.41 497 l 258
 284.333 497 292.743 490 299.41 476 c 257
 307.41 490 317.367 497 335.41 497 c 258
 464.812 497 l 258
 492.655 497 522.812 485.728 522.812 445 c 258
 522.812 248.396 l 257
 154 248.396 l 258
 147 248 146 239 146 232 c 258
398.41 340.396 m 257
 398.41 384 l 258
 398.41 396.667 392.743 403 381.41 403 c 258
 361.41 403 l 258
 350.076 403 344.41 397.069 344.41 384.396 c 258
 344.41 340.396 l 257
 398.41 340.396 l 257
191.41 340.396 m 257
 247.41 340.396 l 257
 247.41 384.599 l 258
 247.41 399.396 241.675 403 230.011 403 c 258
 209.614 403 l 258
 197.343 403 191.41 396.333 191.41 383 c 258
 191.41 340.396 l 257
144 92 m 258
 144 255.999 l 257
 193 256 l 257
 193.41 195.396 l 258
 193.523 178.734 202.41 170.396 220.41 170.396 c 258
 521.01 170.396 l 257
 521.01 52.3955 l 257
 201.203 52.3955 l 258
 173.203 52.3955 144 66.0361 144 92 c 258
EndSplineSet
EndChar

StartChar: si_M.halant
Encoding: 230 -1 230
GlifName: si_M_.halant
Width: 518
VWidth: 0
GlyphClass: 2
Flags: W
LayerCount: 2
Back
Fore
SplineSet
485 400 m 257
 361 400 l 257
 361 441 l 258
 361 459.349 354.061 464 335 464 c 258
 14 464 l 257
 14 550 l 257
 94 550 l 257
 64.6667 557.333 50 571.667 50 593 c 258
 50 632 l 258
 50 659.333 66.3333 673 99 673 c 258
 483 673 l 257
 483 589 l 257
 206 589 l 258
 188 589 179 584.333 179 575 c 256
 179 565.226 186.926 558 197 558 c 258
 416 558 l 258
 471.441 558 485 533.686 485 477 c 258
 485 400 l 257
485 415 m 257
 485 54 l 258
 485 16.2703 472.075 0 435 0 c 258
 72 0 l 258
 34.0315 0 22 15.7515 22 54 c 258
 22 373 l 258
 22 404.538 42.2795 427 74 427 c 258
 268 427 l 258
 298.562 427 318 408.588 318 378 c 258
 318 196 l 258
 318 166.667 303.667 152 275 152 c 258
 146 152 l 257
 146 129 l 258
 146 114.333 152 107 164 107 c 258
 343 107 l 258
 355 107 361 114.333 361 129 c 258
 361 415 l 257
 485 415 l 257
143 244 m 257
 186 244 l 258
 196 244 201 250.333 201 263 c 258
 201 315 l 258
 201 324.333 196 329 186 329 c 258
 161 329 l 258
 149 329 143 324.333 143 315 c 258
 143 244 l 257
EndSplineSet
EndChar

